<?xml version="1.0" encoding="UTF-8"?>
<svg width="159px" height="20px" viewBox="0 0 159 20" version="1.1" xmlns="http://www.w3.org/2000/svg" xmlns:xlink="http://www.w3.org/1999/xlink">
    <title>Balkan Brothers</title>
    <desc>Balkan Brothers logo.</desc>
    <g id="Page-1" stroke="none" stroke-width="1" fill="none" fill-rule="evenodd">
        <g id="Group" fill="#FFFFFF">
            <path d="M3.74121212,16.0110303 L7.93878788,16.0243636 C10.0169697,16.0243636 11.3042424,15.5419394 11.3042424,13.7449697 C11.3042424,11.9746667 10.0169697,11.5055758 7.93878788,11.5055758 L3.74121212,11.5055758 L3.74121212,16.0110303 Z M3.74121212,8.22012121 L7.5769697,8.22012121 C9.44,8.22012121 10.8884848,7.8310303 10.8884848,6.00739394 C10.8884848,4.2510303 9.41333333,3.83527273 7.5630303,3.83527273 L3.74121212,3.83527273 L3.74121212,8.22012121 Z M14.7909091,5.73951515 C14.7909091,7.62981818 13.6242424,9.15890909 12.0690909,9.72254545 C13.7854545,10.2989091 15.1933333,11.9073939 15.1933333,13.9328485 C15.1933333,17.5261818 12.6315152,19.3098182 8.12606061,19.3098182 L-1.95399252e-14,19.3098182 L-1.95399252e-14,0.536484848 L7.67030303,0.536484848 C12.0418182,0.536484848 14.7909091,2.15890909 14.7909091,5.73951515 Z" id="Fill-1"></path>
            <path d="M21.082303,12.8064242 C21.082303,14.7906667 22.3829091,16.3864242 24.4344242,16.3864242 C26.4326061,16.3864242 27.7871515,14.8579394 27.7871515,12.8064242 C27.7871515,10.754303 26.4326061,9.22581818 24.4344242,9.22581818 C22.3829091,9.22581818 21.082303,10.8215758 21.082303,12.8064242 Z M27.6792727,19.3100606 L27.6792727,17.8749091 C26.8210909,18.934303 25.5744242,19.6452121 23.7907879,19.6452121 C20.1968485,19.6452121 17.501697,16.7082424 17.501697,12.8064242 C17.501697,8.904 20.1968485,5.9670303 23.7907879,5.9670303 C25.5744242,5.9670303 26.8210909,6.67793939 27.6792727,7.75066667 L27.6792727,6.31612121 L31.0992727,6.31612121 L31.0992727,19.3100606 L27.6792727,19.3100606 Z" id="Fill-3"></path>
            <polygon id="Fill-6" points="34.775697 19.31 38.275697 19.31 38.275697 0.000303030303 34.775697 0.000303030303"></polygon>
            <polygon id="Fill-8" points="46.6839394 10.9424242 50.3451515 6.31636364 54.6360606 6.31636364 49.5130303 12.4309091 54.6760606 19.310303 50.3712121 19.310303 46.6306061 14.0533333 45.4506061 14.0533333 45.4506061 19.310303 41.95 19.310303 41.95 1.24344979e-14 45.4506061 1.24344979e-14 45.4506061 10.9424242"></polygon>
            <path d="M58.7678788,12.8064242 C58.7678788,14.7906667 60.0684848,16.3864242 62.12,16.3864242 C64.1181818,16.3864242 65.4727273,14.8579394 65.4727273,12.8064242 C65.4727273,10.754303 64.1181818,9.22581818 62.12,9.22581818 C60.0684848,9.22581818 58.7678788,10.8215758 58.7678788,12.8064242 Z M65.3654545,19.3100606 L65.3654545,17.8749091 C64.5072727,18.934303 63.26,19.6452121 61.4769697,19.6452121 C57.8830303,19.6452121 55.1872727,16.7082424 55.1872727,12.8064242 C55.1872727,8.904 57.8830303,5.9670303 61.4769697,5.9670303 C63.26,5.9670303 64.5072727,6.67793939 65.3654545,7.75066667 L65.3654545,6.31612121 L68.7848485,6.31612121 L68.7848485,19.3100606 L65.3654545,19.3100606 Z" id="Fill-9"></path>
            <path d="M84.7447273,11.0361818 L84.7447273,19.3101212 L81.2447273,19.3101212 L81.2447273,12.1622424 C81.2447273,10.2719394 80.3192727,9.25254545 78.7101818,9.25254545 C77.2083636,9.25254545 75.9610909,10.218 75.9610909,12.1895152 L75.9610909,19.3101212 L72.4610909,19.3101212 L72.4610909,6.31618182 L75.8677576,6.31618182 L75.8677576,7.84466667 C76.7926061,6.46345455 78.2004848,5.96709091 79.6889697,5.96709091 C82.6392727,5.96709091 84.7447273,8.01921212 84.7447273,11.0361818" id="Fill-10"></path>
            <path d="M98.988,16.0110303 L103.185576,16.0243636 C105.263758,16.0243636 106.55103,15.5419394 106.55103,13.7449697 C106.55103,11.9746667 105.263758,11.5055758 103.185576,11.5055758 L98.988,11.5055758 L98.988,16.0110303 Z M98.988,8.22012121 L102.823152,8.22012121 C104.687394,8.22012121 106.135273,7.8310303 106.135273,6.00739394 C106.135273,4.2510303 104.660121,3.83527273 102.809818,3.83527273 L98.988,3.83527273 L98.988,8.22012121 Z M110.037697,5.73951515 C110.037697,7.62981818 108.87103,9.15890909 107.315273,9.72254545 C109.031636,10.2989091 110.440121,11.9073939 110.440121,13.9328485 C110.440121,17.5261818 107.878303,19.3098182 103.372848,19.3098182 L95.2467879,19.3098182 L95.2467879,0.536484848 L102.917091,0.536484848 C107.288606,0.536484848 110.037697,2.15890909 110.037697,5.73951515 Z" id="Fill-11"></path>
            <path d="M122.390303,6.2489697 L121.867273,9.72230303 C121.290909,9.46715152 120.458788,9.30654545 119.748485,9.30654545 C118.139394,9.30654545 117.012727,10.2986667 117.012727,12.2295758 L117.012727,19.3101818 L113.512727,19.3101818 L113.512727,6.31624242 L116.905455,6.31624242 L116.905455,7.73745455 C117.723636,6.50351515 118.95697,5.96715152 120.566667,5.96715152 C121.31697,5.96715152 121.907273,6.07442424 122.390303,6.2489697" id="Fill-12"></path>
            <path d="M127.098485,12.8064242 C127.098485,14.9118788 128.573636,16.3864242 130.545152,16.3864242 C132.529394,16.3864242 134.004545,14.9118788 134.004545,12.8064242 C134.004545,10.7009697 132.529394,9.22581818 130.545152,9.22581818 C128.573636,9.22581818 127.098485,10.7009697 127.098485,12.8064242 M137.585152,12.8064242 C137.585152,16.7215758 134.594848,19.6452121 130.545152,19.6452121 C126.508182,19.6452121 123.531212,16.7215758 123.531212,12.8064242 C123.531212,8.89066667 126.508182,5.9670303 130.545152,5.9670303 C134.594848,5.9670303 137.585152,8.89066667 137.585152,12.8064242" id="Fill-13"></path>
            <path d="M145.525333,8.87739394 C144.184121,8.87739394 143.527152,9.34648485 143.527152,10.0573939 C143.527152,10.8216364 144.465939,10.9961818 145.645939,11.1701212 L146.799273,11.3446667 C149.628364,11.7737576 151.184121,13.0204242 151.184121,15.2337576 C151.184121,17.9155758 148.984727,19.6452727 145.216848,19.6452727 C143.446545,19.6452727 141.127152,19.2961818 139.437455,18.1167879 L140.818667,15.4616364 C141.918061,16.1992121 143.299273,16.7349697 145.243515,16.7349697 C146.865939,16.7349697 147.644121,16.2792121 147.644121,15.5149697 C147.644121,14.8846667 147.000485,14.5361818 145.485333,14.3216364 L144.425939,14.1737576 C141.43503,13.7586061 139.933212,12.4440606 139.933212,10.2313333 C139.933212,7.56345455 141.998667,5.9810303 145.418061,5.9810303 C147.482909,5.9810303 149.145939,6.35618182 150.84897,7.21436364 L149.66897,9.93678788 C148.636242,9.44042424 146.987152,8.87739394 145.525333,8.87739394" id="Fill-14"></path>
            <path d="M158.427212,17.0302424 C158.427212,18.4381212 157.233879,19.6447879 155.838727,19.6447879 C154.444182,19.6447879 153.224182,18.4381212 153.224182,17.0302424 C153.224182,15.635697 154.444182,14.4423636 155.838727,14.4423636 C157.233879,14.4423636 158.427212,15.635697 158.427212,17.0302424" id="Fill-15"></path>
        </g>
    </g>
</svg>