<?xml version="1.0" standalone="no"?>
<!DOCTYPE svg PUBLIC "-//W3C//DTD SVG 1.1//EN" "http://www.w3.org/Graphics/SVG/1.1/DTD/svg11.dtd" >
<svg xmlns="http://www.w3.org/2000/svg" xmlns:xlink="http://www.w3.org/1999/xlink" version="1.1">
<metadata>
Created by FontForge 20170731 at Fri Jul  7 15:21:21 2017
 By Aleksey,,,
Copyright (c) 2017 by Daniel Hernandez. All rights reserved.
</metadata>
<defs>
<font id="LotaGrotesque-Bold" horiz-adv-x="0" >
  <font-face 
    font-family="Lota Grotesque Bold"
    font-weight="700"
    font-stretch="normal"
    units-per-em="1000"
    panose-1="0 0 8 0 0 0 0 0 0 0"
    ascent="800"
    descent="-200"
    x-height="490"
    cap-height="686"
    bbox="-540 -303.082 1345 912"
    underline-thickness="50"
    underline-position="-200"
    unicode-range="U+0020-FB02"
  />
<missing-glyph horiz-adv-x="412" 
 />
    <glyph glyph-name="fi" unicode="fi" horiz-adv-x="629" 
d="M499 559q-36 0 -60.5 23t-24.5 59t24.5 59.5t60.5 23.5t61 -23.5t25 -59.5t-25 -59t-61 -23zM568 490v-490h-137v381h-196v-381h-137v381h-70v109h70v40q0 85 54 139t142 54q46 0 80 -9l-4 -115q-22 9 -56 9q-39 0 -59 -22.5t-20 -60.5v-35h333z" />
    <glyph glyph-name="fl" unicode="fl" horiz-adv-x="650" 
d="M98 530q0 86 56 139.5t150 53.5q45 0 81 -9l-5 -115q-22 9 -55 9q-45 0 -67.5 -22t-22.5 -61v-35h142v-109h-142v-381h-137v381h-70v109h70v40zM452 710h137v-710h-137v710z" />
    <glyph glyph-name=".notdef" horiz-adv-x="412" 
 />
    <glyph glyph-name=".null" 
 />
    <glyph glyph-name="nonmarkingreturn" horiz-adv-x="333" 
 />
    <glyph glyph-name="space" unicode=" " horiz-adv-x="210" 
 />
    <glyph glyph-name="exclam" unicode="!" horiz-adv-x="279" 
d="M213 710l-13 -472h-120l-13 472h146zM137 155q39 0 62.5 -23t23.5 -60t-23.5 -60t-62.5 -23q-38 0 -62 23t-24 60t24 60t62 23z" />
    <glyph glyph-name="quotedbl" unicode="&#x22;" horiz-adv-x="367" 
d="M52 510l-5 237h105l-5 -237h-95zM220 510l-5 237h105l-5 -237h-95z" />
    <glyph glyph-name="numbersign" unicode="#" horiz-adv-x="651" 
d="M622 403h-121l-17 -110h101v-104h-117l-29 -189h-110l29 189h-104l-29 -189h-110l29 189h-114v104h130l17 110h-111v104h127l27 179h109l-27 -179h105l27 179h110l-27 -179h105v-104zM374 293l17 110h-105l-17 -110h105z" />
    <glyph glyph-name="dollar" unicode="$" horiz-adv-x="603" 
d="M571 189q0 -77 -56.5 -127.5t-153.5 -63.5v-108h-118v107q-103 11 -158.5 64.5t-55.5 143.5h138q0 -96 138 -96q62 0 95.5 20.5t33.5 59.5q0 32 -21.5 52t-56 30t-76 18.5t-83.5 21t-76.5 32.5t-56 59t-21.5 94q0 75 54 127t146 66v107h118v-107q94 -12 147.5 -65.5
t53.5 -139.5h-138q-1 94 -122 94t-121 -79q0 -35 29 -55.5t72 -28.5t94 -21.5t94 -31.5t72 -62.5t29 -110.5z" />
    <glyph glyph-name="percent" unicode="%" horiz-adv-x="905" 
d="M250 0l303 694h104l-301 -694h-106zM204 302q-83 0 -130 51t-47 143t47 143.5t130 51.5t129.5 -51.5t46.5 -143.5t-46.5 -143t-129.5 -51zM204 399q65 0 65 97q0 98 -65 98t-65 -98q0 -97 65 -97zM701 -5q-83 0 -129.5 51t-46.5 143q0 93 46.5 144.5t129.5 51.5
t130 -51.5t47 -144.5q0 -92 -47 -143t-130 -51zM701 93q65 0 65 96q0 98 -65 98t-65 -98q0 -96 65 -96z" />
    <glyph glyph-name="ampersand" unicode="&#x26;" horiz-adv-x="637" 
d="M639 0h-142l-38 40q-75 -47 -173 -47q-113 0 -182 56t-69 148q1 59 26.5 101t84.5 78q-51 72 -51 142q0 79 55 128t143 49q85 0 136 -45t50 -119q1 -51 -32 -92t-106 -80l-22 -11l136 -148q20 46 20 108h119q0 -114 -58 -196zM293 587q-34 0 -54 -18.5t-21 -50.5
q0 -45 31 -89l32 15q77 39 77 87q0 26 -17.5 41t-47.5 15zM298 105q46 0 83 17l-161 169q-48 -35 -49 -89q1 -46 34.5 -71.5t92.5 -25.5z" />
    <glyph glyph-name="quotesingle" unicode="'" horiz-adv-x="199" 
d="M52 510l-5 237h105l-5 -237h-95z" />
    <glyph glyph-name="parenleft" unicode="(" horiz-adv-x="307" 
d="M40 306q0 146 37 261t88 185h130q-118 -170 -118 -448q0 -276 119 -445h-130q-53 72 -89.5 186.5t-36.5 260.5z" />
    <glyph glyph-name="parenright" unicode=")" horiz-adv-x="307" 
d="M266 306q0 -146 -36.5 -261t-88.5 -186h-130q118 171 118 445q0 278 -118 448h130q51 -70 88 -185t37 -261z" />
    <glyph glyph-name="asterisk" unicode="*" horiz-adv-x="384" 
d="M351 603l-90 -22l63 -74l-78 -57l-54 87l-54 -87l-78 57l63 74l-91 22l30 91l89 -36l-7 93h96l-7 -93l89 36z" />
    <glyph glyph-name="plus" unicode="+" horiz-adv-x="480" 
d="M449 403v-113h-146v-154h-126v154h-146v113h146v154h126v-154h146z" />
    <glyph glyph-name="comma" unicode="," horiz-adv-x="257" 
d="M54 -90q28 0 53 25t25 55q-1 0 -4.5 -0.5t-8.5 -0.5q-36 0 -57.5 23.5t-21.5 59.5q0 39 24 61t62 22q39 0 64.5 -26.5t25.5 -83.5q0 -81 -47.5 -142t-114.5 -60v67z" />
    <glyph glyph-name="hyphen" unicode="-" horiz-adv-x="456" 
d="M56 236v105h345v-105h-345z" />
    <glyph glyph-name="period" unicode="." horiz-adv-x="249" 
d="M124 160q39 0 62.5 -23t23.5 -60t-23.5 -60t-62.5 -23t-62.5 23t-23.5 60t23.5 60t62.5 23z" />
    <glyph glyph-name="slash" unicode="/" horiz-adv-x="462" 
d="M19 -20l291 726h134l-288 -726h-137z" />
    <glyph glyph-name="zero" unicode="0" horiz-adv-x="643" 
d="M321 -6q-131 0 -204.5 90.5t-73.5 258.5t73.5 259.5t204.5 91.5q132 0 205.5 -91.5t73.5 -259.5t-73.5 -258.5t-205.5 -90.5zM321 114q140 0 140 229q0 231 -140 231q-139 0 -139 -231q0 -229 139 -229z" />
    <glyph glyph-name="one" unicode="1" horiz-adv-x="429" 
d="M305 116h107v-116h-370v116h126v396q-47 -24 -124 -24v115q59 0 94.5 19t59.5 64h107v-570z" />
    <glyph glyph-name="two" unicode="2" horiz-adv-x="555" 
d="M251 116h267v-116h-469v92l238 239q80 80 80 150q0 46 -23.5 69.5t-65.5 23.5q-46 0 -73.5 -30t-27.5 -85l-139 -1q0 111 66 174t173 63q105 0 167.5 -57.5t62.5 -156.5q0 -65 -29.5 -118t-94.5 -117z" />
    <glyph glyph-name="three" unicode="3" horiz-adv-x="574" 
d="M531 197q1 -92 -72 -148t-181 -56q-110 0 -177 59t-67 163l138 -1q1 -51 31 -75.5t81 -24.5q50 0 79 22.5t28 64.5q0 93 -113 93h-64v106h59q48 0 75.5 22t28.5 65q0 43 -26.5 65t-67.5 22q-44 0 -71 -26t-27 -79h-138q-1 103 65.5 164t172.5 62q101 0 166 -56t66 -149
q0 -90 -74 -138q87 -51 88 -155z" />
    <glyph glyph-name="four" unicode="4" horiz-adv-x="591" 
d="M559 265v-116h-85v-149h-138v149h-317v111l279 426h176v-421h85zM157 266v-1h186v289h-1z" />
    <glyph glyph-name="five" unicode="5" horiz-adv-x="560" 
d="M295 447q103 0 167.5 -59.5t64.5 -167.5q0 -104 -70.5 -165.5t-179.5 -61.5q-107 0 -177 58.5t-70 154.5h139q0 -44 30 -68t76 -24q51 0 82 28t30 78q1 53 -28.5 80.5t-81.5 27.5q-54 0 -101 -36l-119 41l36 353h395v-116h-285l-14 -142q49 19 106 19z" />
    <glyph glyph-name="six" unicode="6" horiz-adv-x="599" 
d="M336 433q98 1 162 -58t64 -155q0 -99 -65.5 -163t-177.5 -64q-130 0 -203 91t-73 255q0 170 73 262.5t202 92.5q102 0 165.5 -55t63.5 -142l-138 1q-1 37 -25.5 56t-64.5 19q-132 0 -139 -207q60 67 156 67zM314 114q51 0 80.5 29t29.5 77t-28.5 76.5t-80.5 28.5
q-66 0 -99.5 -46.5t-1.5 -110.5l-2 1q30 -55 102 -55z" />
    <glyph glyph-name="seven" unicode="7" horiz-adv-x="511" 
d="M91 0l252 569v1h-328v116h478v-112l-250 -574h-152z" />
    <glyph glyph-name="eight" unicode="8" horiz-adv-x="590" 
d="M454 360q94 -54 94 -160q0 -99 -68 -153t-185 -54q-118 0 -186 54t-68 153q0 107 94 160q-73 54 -73 140q0 92 65 143t168 51t167.5 -51t64.5 -143q0 -86 -73 -140zM295 584q-48 0 -75 -24.5t-27 -64.5t27.5 -64t74.5 -24q49 0 75 24t26 64q0 39 -26.5 64t-74.5 25z
M295 104q55 0 86 26t31 73q0 46 -31 72t-86 26t-86.5 -26t-31.5 -72q1 -48 32 -73.5t86 -25.5z" />
    <glyph glyph-name="nine" unicode="9" horiz-adv-x="599" 
d="M280 694q130 0 203 -89.5t73 -256.5q0 -170 -73 -262.5t-203 -92.5q-101 0 -164.5 55t-63.5 142l138 -1q1 -37 25.5 -56t64.5 -19q131 0 138 207q-59 -67 -155 -67q-98 -1 -162.5 58t-64.5 155q0 99 66 163t178 64zM284 362q65 0 99 47t2 110h1q-32 54 -102 54
q-50 0 -79.5 -29t-29.5 -77t28.5 -76.5t80.5 -28.5z" />
    <glyph glyph-name="colon" unicode=":" horiz-adv-x="276" 
d="M137 481q39 0 62.5 -23t23.5 -60t-23.5 -60t-62.5 -23t-62.5 23t-23.5 60t23.5 60t62.5 23zM138 159q39 0 62.5 -23t23.5 -60t-23.5 -60t-62.5 -23t-62.5 23t-23.5 60t23.5 60t62.5 23z" />
    <glyph glyph-name="semicolon" unicode=";" horiz-adv-x="285" 
d="M147 481q39 0 62.5 -23t23.5 -60t-23.5 -60t-62.5 -23t-62.5 23t-23.5 60t23.5 60t62.5 23zM65 -91q28 0 53 25t25 55q-1 0 -4.5 -0.5t-8.5 -0.5q-36 0 -57.5 23.5t-21.5 59.5q0 39 24 61t62 22q39 0 64.5 -26.5t25.5 -83.5q0 -81 -47.5 -142t-114.5 -60v67z" />
    <glyph glyph-name="less" unicode="&#x3c;" horiz-adv-x="504" 
d="M442 588v-120l-287 -120l287 -120v-120l-412 180v120z" />
    <glyph glyph-name="equal" unicode="=" horiz-adv-x="535" 
d="M59 395v114h417v-114h-417zM59 185v113h417v-113h-417z" />
    <glyph glyph-name="greater" unicode="&#x3e;" horiz-adv-x="504" 
d="M63 588l412 -180v-120l-412 -180v120l287 120l-287 120v120z" />
    <glyph glyph-name="question" unicode="?" horiz-adv-x="482" 
d="M241 718q97 1 154.5 -50.5t57.5 -137.5q0 -37 -17 -69.5t-41 -56t-47.5 -45t-40.5 -45.5t-17 -47v-29h-128v38q0 40 24.5 78.5t54 63.5t54 55.5t24.5 57.5q-1 33 -20.5 49.5t-54.5 16.5q-40 0 -63 -22.5t-23 -66.5l-133 -1q0 96 58 153t158 58zM224 156q38 -1 62 -24.5
t24 -59.5t-24 -59.5t-63 -23.5q-38 0 -61.5 23.5t-23.5 60.5q0 36 24 59t62 24z" />
    <glyph glyph-name="at" unicode="@" horiz-adv-x="931" 
d="M662 450v-274q-2 -53 40 -53q38 0 60 42t21 114q-1 139 -82.5 219.5t-224.5 80.5q-152 0 -242 -90.5t-90 -243.5t89.5 -243t238.5 -90q73 0 141.5 21t112.5 55l55 -83q-57 -46 -138.5 -71t-170.5 -24q-193 1 -313.5 118.5t-122.5 306.5q-2 193 119 319t313 127
q189 1 305.5 -111t117.5 -289q1 -115 -53 -186t-144 -73q-55 -1 -95 24t-56 70q-36 -81 -129 -81q-81 0 -131 57t-49 152q0 96 52.5 154t133.5 58q77 0 113 -53v47h129zM447 143q33 0 57 21.5t29 53.5v54q-5 32 -30 54t-56 22q-37 0 -60.5 -28t-23.5 -75q0 -46 22.5 -74
t61.5 -28z" />
    <glyph glyph-name="A" unicode="A" horiz-adv-x="661" 
d="M518 0l-49 149h-277l-49 -149h-138l245 686h161l245 -686h-138zM229 258h203l-101 306z" />
    <glyph glyph-name="B" unicode="B" horiz-adv-x="639" 
d="M475 357q50 -13 86.5 -57.5t36.5 -112.5q0 -83 -57.5 -135t-146.5 -52h-316v686h305q89 0 141.5 -48.5t52.5 -123.5q0 -65 -32.5 -103.5t-69.5 -50.5v-3zM439 490q0 88 -97 88h-130v-179h132q46 0 70.5 24t24.5 67zM360 107q47 0 74 25t27 72t-28.5 72t-77.5 25h-143
v-194h148z" />
    <glyph glyph-name="C" unicode="C" horiz-adv-x="704" 
d="M366 114q79 0 120 38.5t50 101.5h136q-13 -117 -90 -188.5t-220 -71.5q-142 0 -232 96t-90 254q0 156 90.5 252.5t231.5 96.5q142 0 220 -71.5t90 -189.5h-136q-10 63 -52 102t-119 39q-81 0 -133.5 -63t-51.5 -167q0 -106 52.5 -167.5t133.5 -61.5z" />
    <glyph glyph-name="D" unicode="D" horiz-adv-x="719" 
d="M344 686q151 0 243 -91.5t92 -251.5t-92 -251.5t-243 -91.5h-266v686h266zM344 114q89 0 142.5 59.5t53.5 169.5t-54 169.5t-142 59.5h-128v-458h128z" />
    <glyph glyph-name="E" unicode="E" horiz-adv-x="606" 
d="M216 115h346v-115h-484v686h478v-116h-340v-164h302v-112h-302v-179z" />
    <glyph glyph-name="F" unicode="F" horiz-adv-x="571" 
d="M545 572h-329v-193h288v-112h-288v-267h-138v686h467v-114z" />
    <glyph glyph-name="G" unicode="G" horiz-adv-x="734" 
d="M380 360h301v-360h-99v102q-70 -108 -221 -108q-146 0 -233.5 95.5t-87.5 255.5q0 156 91.5 252t244.5 96q134 0 211 -68t88 -179h-136q-10 55 -50 91t-113 36q-90 0 -143.5 -61.5t-53.5 -167.5q0 -108 51 -169t139 -61q76 0 124 40.5t59 99.5h-172v106z" />
    <glyph glyph-name="H" unicode="H" horiz-adv-x="735" 
d="M518 686h138v-686h-138v289h-302v-289h-138v686h138v-276h302v276z" />
    <glyph glyph-name="I" unicode="I" horiz-adv-x="293" 
d="M78 0v686h138v-686h-138z" />
    <glyph glyph-name="J" unicode="J" horiz-adv-x="539" 
d="M148 226q1 -111 91 -111t90 111v460h138v-452q0 -110 -59 -174t-171 -64q-109 0 -167 60t-57 170h135z" />
    <glyph glyph-name="K" unicode="K" horiz-adv-x="668" 
d="M518 0l-203 295l-99 -113v-182h-138v686h138v-342l281 342h164l-253 -293l271 -393h-161z" />
    <glyph glyph-name="L" unicode="L" horiz-adv-x="562" 
d="M216 121h336v-121h-474v686h138v-565z" />
    <glyph glyph-name="M" unicode="M" horiz-adv-x="871" 
d="M606 686h188l-1 -686h-133v531l-177 -531h-96l-176 528v-528h-133l-1 686h187l171 -526z" />
    <glyph glyph-name="N" unicode="N" horiz-adv-x="734" 
d="M521 686h135v-686h-130l-313 478v-478h-135v686h129l314 -480v480z" />
    <glyph glyph-name="O" unicode="O" horiz-adv-x="763" 
d="M382 -6q-150 0 -246.5 95t-96.5 253q0 159 96.5 255t246.5 96t246 -94.5t96 -253.5t-96 -255t-246 -96zM382 113q87 0 144.5 62t57.5 168t-57.5 168t-144.5 62t-145 -62t-58 -168t58 -168t145 -62z" />
    <glyph glyph-name="P" unicode="P" horiz-adv-x="630" 
d="M359 686q115 0 181 -56t66 -160t-66 -161.5t-181 -57.5h-143v-251h-138v686h281zM359 364q51 0 79 29t28 76q0 46 -28 74.5t-79 28.5h-143v-208h143z" />
    <glyph glyph-name="Q" unicode="Q" horiz-adv-x="763" 
d="M724 345q0 -138 -73.5 -229.5t-193.5 -114.5q56 -45 142 -45l5 -125q-97 0 -170 45.5t-107 121.5q-129 17 -208.5 109t-79.5 235q0 159 96.5 255t246.5 96t246 -94.5t96 -253.5zM382 113q87 0 144.5 62t57.5 168t-57.5 168t-144.5 62t-145 -62t-58 -168t58 -168t145 -62z
" />
    <glyph glyph-name="R" unicode="R" horiz-adv-x="668" 
d="M639 112l8 -107q-34 -10 -71 -10q-69 0 -106 27t-67 84l-76 146h-111v-252h-138v686h272q117 0 183 -57t66 -161q0 -70 -33.5 -119.5t-92.5 -74.5l63 -124q22 -43 64 -43q22 0 39 5zM216 572v-213h134q54 1 82 29.5t28 77.5t-28.5 77.5t-81.5 28.5h-134z" />
    <glyph glyph-name="S" unicode="S" horiz-adv-x="616" 
d="M187 499q0 -35 29 -55.5t72 -28.5t94 -21.5t94 -31.5t72 -62.5t29 -110.5q0 -89 -75 -142t-198 -53q-128 0 -198.5 54.5t-70.5 156.5h138q0 -96 138 -96q62 0 95.5 20.5t33.5 59.5q0 32 -21.5 52t-56 30t-76 18.5t-83.5 21t-76.5 32.5t-56 59t-21.5 94q0 88 72 142.5
t189 54.5q120 0 189 -55.5t69 -153.5h-138q-1 94 -122 94t-121 -79z" />
    <glyph glyph-name="T" unicode="T" horiz-adv-x="593" 
d="M227 0v569h-217v117h572v-117h-217v-569h-138z" />
    <glyph glyph-name="U" unicode="U" horiz-adv-x="713" 
d="M505 686h138v-413q0 -130 -77 -204.5t-209 -74.5q-136 0 -211.5 74t-75.5 205v413h138v-413q0 -78 38.5 -119t110.5 -41t110 41t38 119v413z" />
    <glyph glyph-name="V" unicode="V" horiz-adv-x="647" 
d="M505 686h138l-245 -686h-149l-245 686h138l182 -543z" />
    <glyph glyph-name="W" unicode="W" horiz-adv-x="962" 
d="M815 686h136l-189 -686h-156l-125 524l-126 -524h-156l-189 686h137l133 -555l128 555h146l128 -555z" />
    <glyph glyph-name="X" unicode="X" horiz-adv-x="631" 
d="M629 0h-155l-158 267l-159 -267h-154l217 350l-212 336h155l152 -252l148 252h154l-206 -333z" />
    <glyph glyph-name="Y" unicode="Y" horiz-adv-x="621" 
d="M618 686l-239 -425v-261h-138v263l-239 423h147l162 -298l161 298h146z" />
    <glyph glyph-name="Z" unicode="Z" horiz-adv-x="614" 
d="M202 116h374v-116h-541v113l372 456h-362v117h529v-113z" />
    <glyph glyph-name="bracketleft" unicode="[" horiz-adv-x="365" 
d="M72 -141v892h268v-112h-140v-667h140v-113h-268z" />
    <glyph glyph-name="backslash" unicode="\" horiz-adv-x="462" 
d="M442 -20h-136l-288 726h134z" />
    <glyph glyph-name="bracketright" unicode="]" horiz-adv-x="365" 
d="M292 -141h-267v113h139v667h-139v112h267v-892z" />
    <glyph glyph-name="asciicircum" unicode="^" horiz-adv-x="398" 
d="M34 507l98 224h135l97 -224h-94l-71 139l-70 -139h-95z" />
    <glyph glyph-name="underscore" unicode="_" horiz-adv-x="445" 
d="M0 -146v105h445v-105h-445z" />
    <glyph glyph-name="grave" unicode="`" horiz-adv-x="298" 
d="M131 557l-96 174h160l45 -174h-109z" />
    <glyph glyph-name="a" unicode="a" horiz-adv-x="554" 
d="M532 113l8 -108q-32 -10 -70 -10q-86 0 -111 79h-1q-42 -79 -161 -79q-80 0 -123 36t-43 98q0 83 71.5 119t185.5 36h63v22q0 39 -24 62t-69 23q-39 0 -62.5 -18t-27.5 -50h-124q6 82 65 127t156 45q106 0 162.5 -52.5t56.5 -146.5v-158q0 -30 23 -30q11 0 25 5zM235 95
q51 0 83.5 25.5t32.5 57.5v31h-71q-116 0 -116 -64q0 -50 71 -50z" />
    <glyph glyph-name="b" unicode="b" horiz-adv-x="599" 
d="M350 495q95 0 154 -64t59 -178q0 -115 -59.5 -186.5t-158.5 -71.5q-103 0 -148 77l-3 -72h-133v710h137v-289q50 74 152 74zM314 110q49 0 79.5 37.5t30.5 99.5q0 61 -29.5 97t-79.5 36q-53 0 -85 -37t-32 -82v-31q0 -47 32 -83.5t84 -36.5z" />
    <glyph glyph-name="c" unicode="c" horiz-adv-x="535" 
d="M276 -5q-109 0 -175 69t-66 180t68 181t175 70q104 0 161 -54.5t67 -142.5h-132q-14 84 -92 84q-49 0 -79 -36t-30 -102q0 -65 29 -100.5t79 -35.5q79 0 93 82h132q-10 -86 -68 -140.5t-162 -54.5z" />
    <glyph glyph-name="d" unicode="d" horiz-adv-x="598" 
d="M400 710h137v-710h-133l-3 71q-50 -76 -152 -76q-95 0 -154.5 65.5t-59.5 178.5q0 114 60 185t161 71q99 0 144 -72v287zM283 110q53 0 85 37t32 82v31q0 47 -32 83.5t-84 36.5q-49 0 -79.5 -37.5t-30.5 -99.5q0 -61 29.5 -97t79.5 -36z" />
    <glyph glyph-name="e" unicode="e" horiz-adv-x="547" 
d="M512 241v-26h-345q7 -55 38 -84t80 -29q80 0 98 60h127q-13 -71 -71 -119t-161 -48q-111 0 -177 69t-66 180t69 181t176 70q110 0 171 -69.5t61 -184.5zM281 393q-43 0 -73 -25t-39 -74h215q-13 99 -103 99z" />
    <glyph glyph-name="f" unicode="f" horiz-adv-x="391" 
d="M325 608q-45 0 -67.5 -22t-22.5 -61v-35h142v-109h-142v-381h-137v381h-70v109h70v40q0 86 56 139.5t150 53.5q45 0 81 -9l-5 -115q-22 9 -55 9z" />
    <glyph glyph-name="g" unicode="g" horiz-adv-x="596" 
d="M403 490h132v-490q0 -92 -67 -152t-184 -60q-102 0 -163 40.5t-69 121.5h129q11 -58 103 -58q55 0 84.5 29t29.5 74v76q-45 -75 -147 -75q-97 0 -156.5 69.5t-59.5 178.5q0 116 63.5 183.5t157.5 67.5q101 0 143 -68zM283 111q51 0 83 36.5t32 83.5v29q0 46 -31.5 83
t-83.5 37q-48 0 -78.5 -37.5t-30.5 -98.5q0 -60 30.5 -96.5t78.5 -36.5z" />
    <glyph glyph-name="h" unicode="h" horiz-adv-x="577" 
d="M349 495q81 0 126.5 -51t45.5 -129v-315h-137v280q0 44 -22.5 70t-63.5 26q-45 0 -72 -28t-27 -74v-274h-138v710h136v-292q50 77 152 77z" />
    <glyph glyph-name="i" unicode="i" horiz-adv-x="260" 
d="M219 648q0 -37 -25.5 -61t-63.5 -24q-37 0 -62.5 24t-25.5 61t25.5 61.5t62.5 24.5q38 0 63.5 -24.5t25.5 -61.5zM61 0v490h138v-490h-138z" />
    <glyph glyph-name="j" unicode="j" horiz-adv-x="268" 
d="M230 648q0 -37 -26 -61t-63 -24q-38 0 -63 24t-25 61t25 61.5t63 24.5q37 0 63 -25t26 -61zM13 -207q-49 0 -81 10l9 114q23 -10 47 -10q39 0 60 21.5t21 61.5v500h137v-505q0 -87 -52.5 -139.5t-140.5 -52.5z" />
    <glyph glyph-name="k" unicode="k" horiz-adv-x="545" 
d="M398 0l-131 193l-69 -76v-117h-137v710h137v-422l173 203h163l-179 -200l197 -291h-154z" />
    <glyph glyph-name="l" unicode="l" horiz-adv-x="279" 
d="M243 113l8 -108q-32 -10 -72 -10q-121 0 -121 135v580h137v-572q0 -30 24 -30q10 0 24 5z" />
    <glyph glyph-name="m" unicode="m" horiz-adv-x="877" 
d="M654 495q80 0 123.5 -51t43.5 -135v-309h-138v279q0 46 -21.5 71.5t-59.5 25.5q-41 0 -67 -28t-26 -74v-274h-137v279q0 46 -21.5 71.5t-59.5 25.5q-41 0 -67 -28t-26 -74v-274h-137v490h132l4 -71q47 76 144 76q57 0 96.5 -27.5t57.5 -74.5q20 47 60.5 74.5t98.5 27.5z
" />
    <glyph glyph-name="n" unicode="n" horiz-adv-x="577" 
d="M350 495q81 0 126 -51.5t45 -136.5v-307h-137v276q0 47 -22 73.5t-65 26.5q-45 0 -72 -28t-27 -74v-274h-137v490h132l4 -72q49 77 153 77z" />
    <glyph glyph-name="o" unicode="o" horiz-adv-x="573" 
d="M286 495q114 0 183 -68.5t69 -179.5t-69.5 -181.5t-182.5 -70.5q-112 0 -181.5 68.5t-69.5 178.5q0 112 69.5 182.5t181.5 70.5zM286 382q-51 0 -82 -38t-31 -100q0 -61 31 -98.5t82 -37.5q52 0 82.5 37.5t30.5 98.5q0 63 -30.5 100.5t-82.5 37.5z" />
    <glyph glyph-name="p" unicode="p" horiz-adv-x="599" 
d="M350 495q95 0 154 -64t59 -178q0 -115 -59.5 -186.5t-158.5 -71.5q-102 0 -147 75v-272h-137v693h133l3 -72q48 76 153 76zM314 110q49 0 79.5 37.5t30.5 99.5q0 61 -29.5 97t-79.5 36q-53 0 -85 -37t-32 -82v-31q0 -47 32 -83.5t84 -36.5z" />
    <glyph glyph-name="q" unicode="q" horiz-adv-x="598" 
d="M404 491h133v-693h-137v270q-50 -73 -151 -73q-95 0 -154.5 65.5t-59.5 178.5q0 114 60 185t161 71q102 0 145 -75zM283 110q53 0 85 37t32 82v31q0 47 -32 83.5t-84 36.5q-49 0 -79.5 -37.5t-30.5 -99.5q0 -61 29.5 -97t79.5 -36z" />
    <glyph glyph-name="r" unicode="r" horiz-adv-x="370" 
d="M322 495q23 0 31 -4l-1 -134q-13 5 -34 5q-48 0 -81 -29t-39 -80v-253h-137v490h132l3 -80q39 85 126 85z" />
    <glyph glyph-name="s" unicode="s" horiz-adv-x="491" 
d="M455 139q1 -68 -56.5 -106t-156.5 -38q-207 0 -209 158l117 -1q5 -62 90 -62q84 0 82 45q0 21 -20.5 34t-51.5 18.5t-67.5 15.5t-67.5 23.5t-51.5 45.5t-20.5 78q0 67 56 106t153 39q93 0 144 -41t52 -114h-119q-5 60 -78 60q-75 0 -75 -46q0 -24 28.5 -36.5t69.5 -20
t82.5 -20t70 -47t28.5 -91.5z" />
    <glyph glyph-name="t" unicode="t" horiz-adv-x="397" 
d="M373 120l4 -112q-33 -13 -85 -13q-96 0 -149 51t-53 136v199h-72v109h80v139h129v-139h146v-109h-146v-193q0 -79 87 -79q29 0 59 11z" />
    <glyph glyph-name="u" unicode="u" horiz-adv-x="566" 
d="M368 490h137v-490h-132l-4 72q-47 -77 -144 -77q-81 0 -125 50.5t-44 129.5v315h138v-283q0 -43 21.5 -68t62.5 -25q39 0 64.5 28.5t25.5 73.5v274z" />
    <glyph glyph-name="v" unicode="v" horiz-adv-x="527" 
d="M380 490h139l-179 -490h-153l-179 490h147l98 -303q5 -14 14 -57h3q6 38 12 57z" />
    <glyph glyph-name="w" unicode="w" horiz-adv-x="774" 
d="M619 490h143l-139 -490h-157l-68 258q-10 48 -10 53h-3q-3 -29 -9 -53l-68 -258h-157l-139 490h143l67 -296q12 -60 12 -64h3q2 11 14 64l74 296h123l75 -296q12 -53 14 -64h3q2 16 12 64z" />
    <glyph glyph-name="x" unicode="x" horiz-adv-x="506" 
d="M503 0h-150l-100 166l-100 -166h-148l169 250l-165 240h149l97 -154l93 154h147l-161 -237z" />
    <glyph glyph-name="y" unicode="y" horiz-adv-x="522" 
d="M376 490h139l-179 -490l-11 -29q-35 -97 -81 -137.5t-127 -40.5q-50 0 -80 10l8 114q23 -10 47 -10q77 0 97 67l5 16l-186 500h148l96 -306q5 -17 13 -56h3q6 35 12 56z" />
    <glyph glyph-name="z" unicode="z" horiz-adv-x="482" 
d="M203 109h244v-109h-413v100l243 281h-235v109h399v-99z" />
    <glyph glyph-name="braceleft" unicode="{" horiz-adv-x="353" 
d="M21 363h10q26 0 45 17.5t19 52.5v141q0 83 51.5 130.5t145.5 47.5h33v-115h-28q-35 0 -53.5 -20t-18.5 -56v-158q0 -43 -15.5 -67t-34.5 -30q17 -5 33.5 -31.5t16.5 -66.5v-158q0 -36 18.5 -56t53.5 -20h28v-115h-33q-94 0 -145.5 47.5t-51.5 131.5v141q0 35 -19 52
t-45 17h-10v115z" />
    <glyph glyph-name="bar" unicode="|" horiz-adv-x="270" 
d="M72 -177v887h126v-887h-126z" />
    <glyph glyph-name="braceright" unicode="}" horiz-adv-x="353" 
d="M332 363v-115h-10q-26 0 -44.5 -17t-18.5 -52v-141q0 -84 -51.5 -131.5t-145.5 -47.5h-33v115h27q35 0 54 20t19 56v158q0 40 16 66.5t33 31.5q-19 6 -34 30t-15 67v158q0 36 -19 56t-54 20h-27v115h33q94 0 145.5 -47.5t51.5 -130.5v-141q0 -35 19 -52.5t44 -17.5h10z
" />
    <glyph glyph-name="asciitilde" unicode="~" horiz-adv-x="539" 
d="M202 317q-24 0 -39.5 -12t-15.5 -33h-90q0 69 33 104.5t93 35.5q40 0 91.5 -23t70.5 -23q24 0 39.5 11.5t15.5 33.5h90q0 -68 -34 -104t-91 -36q-39 0 -91.5 23t-71.5 23z" />
    <glyph glyph-name="exclamdown" unicode="&#xa1;" horiz-adv-x="266" 
d="M131 335q-38 0 -62 23t-24 60t24 60t62 23q39 0 62.5 -23t23.5 -60t-23.5 -60t-62.5 -23zM207 -202h-146l13 454h120z" />
    <glyph glyph-name="cent" unicode="&#xa2;" horiz-adv-x="539" 
d="M284 198q78 0 92 82h131q-8 -73 -50 -124t-119 -66v-100h-117v101q-83 19 -134 85t-51 159q0 94 50.5 159.5t134.5 84.5v102h117v-101q76 -15 119 -66.5t50 -124.5h-131q-15 84 -92 84q-49 0 -79 -36.5t-30 -101.5t30 -101t79 -36z" />
    <glyph glyph-name="sterling" unicode="&#xa3;" horiz-adv-x="604" 
d="M336 574q-90 0 -91 -105q0 -40 8 -106h219v-89h-208q3 -27 3 -52q0 -55 -26 -102h319v-120h-518v116q49 1 68 22.5t19 75.5q0 18 -4 60h-81v89h70q-7 59 -7 106q1 104 63 165t168 61q104 0 166 -60.5t61 -161.5h-135q0 101 -94 101z" />
    <glyph glyph-name="currency" unicode="&#xa4;" horiz-adv-x="594" 
d="M511 319q0 -58 -27 -110l66 -66l-82 -82l-65 65q-49 -26 -106 -26t-107 26l-65 -65l-82 82l66 66q-27 52 -27 110q0 61 27 109l-67 67l83 82l65 -65q50 26 107 26q60 0 106 -26l65 65l82 -83l-66 -65q27 -48 27 -110zM297 219q44 0 70.5 28.5t26.5 71.5q0 42 -26.5 71
t-70.5 29q-45 0 -71.5 -29t-26.5 -71q0 -43 26.5 -71.5t71.5 -28.5z" />
    <glyph glyph-name="yen" unicode="&#xa5;" horiz-adv-x="657" 
d="M397 261v-45h144v-87h-144v-129h-138v129h-144v87h144v47l-1 2h-143v87h94l-189 334h147l162 -298l161 298h146l-188 -334h92v-87h-141z" />
    <glyph glyph-name="brokenbar" unicode="&#xa6;" horiz-adv-x="275" 
d="M75 343v367h125v-367h-125zM75 -177v366h125v-366h-125z" />
    <glyph glyph-name="section" unicode="&#xa7;" horiz-adv-x="551" 
d="M432 127q55 -43 55 -129q0 -79 -61 -125.5t-165 -46.5q-105 0 -165 48.5t-60 135.5h119q-1 -39 26.5 -62t76.5 -23q46 0 71 18t24 48q0 29 -22.5 47.5t-56.5 25.5t-73 19t-73 27t-56.5 52t-22.5 91q0 91 76 141q-53 44 -53 128q0 78 59.5 124.5t157.5 46.5
q97 0 155 -48.5t57 -132.5h-120q-1 40 -25 61t-64 21t-63.5 -18.5t-23.5 -48.5q0 -24 17 -40t43.5 -24t59.5 -14.5t65.5 -18t59 -29.5t43.5 -52t17 -83q0 -92 -78 -139zM182 258q0 -31 24.5 -46t74.5 -28q47 3 71.5 24t24.5 52q0 34 -27 49.5t-82 28.5q-40 -3 -63 -26.5
t-23 -53.5z" />
    <glyph glyph-name="dieresis" unicode="&#xa8;" horiz-adv-x="388" 
d="M103 715q34 0 54 -19.5t20 -51.5q0 -31 -20.5 -50.5t-53.5 -19.5t-53 19.5t-20 50.5q0 32 20 51.5t53 19.5zM305 715q34 0 54 -19.5t20 -51.5q0 -31 -20.5 -50.5t-53.5 -19.5q-32 0 -52.5 19.5t-20.5 50.5t20.5 51t52.5 20z" />
    <glyph glyph-name="copyright" unicode="&#xa9;" horiz-adv-x="771" 
d="M385 -6q-154 0 -250.5 98.5t-95.5 250.5q0 151 96.5 250t249.5 99t250 -99t97 -250q0 -152 -97 -250.5t-250 -98.5zM385 65q118 0 194.5 79t77.5 199q0 119 -77 198.5t-195 79.5q-119 0 -195.5 -79.5t-75.5 -198.5q0 -120 76.5 -199.5t194.5 -78.5zM395 232q62 0 74 67
h117q-8 -74 -57.5 -121.5t-135.5 -46.5q-93 -1 -152 58.5t-59 153.5t59 153t151 59q88 0 137.5 -47.5t56.5 -121.5h-117q-13 67 -74 68q-40 -1 -63.5 -29.5t-23.5 -81.5t24 -82t63 -29z" />
    <glyph glyph-name="ordfeminine" unicode="&#xaa;" horiz-adv-x="452" 
d="M222 694q85 0 130.5 -42t45.5 -115v-228h-111l-3 51q-33 -55 -118 -55q-61 0 -95 28t-34 76q0 123 216 123h28v13q0 27 -16.5 43t-47.5 16q-24 0 -40.5 -12.5t-19.5 -33.5h-108q5 65 51.5 100.5t121.5 35.5zM202 393q35 0 57 16t22 38v23h-34q-94 0 -94 -44q0 -33 49 -33
z" />
    <glyph glyph-name="guillemotleft" unicode="&#xab;" horiz-adv-x="529" 
d="M27 236v11l122 159h129l-125 -164l126 -166h-130zM233 236v11l122 159h130l-126 -164l127 -166h-131z" />
    <glyph glyph-name="registered" unicode="&#xae;" horiz-adv-x="555" 
d="M277 693q105 1 171.5 -67t66.5 -172t-66.5 -171.5t-171.5 -67.5q-106 0 -172 67.5t-66 171.5q0 103 66.5 170.5t171.5 68.5zM277 274q77 0 126.5 51t49.5 129q0 77 -49.5 129t-126.5 52t-126.5 -51.5t-49.5 -129.5q1 -78 50 -129.5t126 -50.5zM395 493q0 -52 -39 -74
q2 -4 17 -40t27 -50h-80q-6 8 -17.5 36.5t-15.5 36.5h-38v-73h-79v254h119q46 0 76 -21.5t30 -68.5zM249 519v-57h40q27 0 27 28q0 29 -27 29h-40z" />
    <glyph glyph-name="macron" unicode="&#xaf;" horiz-adv-x="412" 
d="M51 597v95h309v-95h-309z" />
    <glyph glyph-name="degree" unicode="&#xb0;" horiz-adv-x="339" 
d="M307 579q0 -61 -39 -99t-99 -38t-99 38t-39 99t39 98.5t99 37.5t99 -37.5t39 -98.5zM230 579q0 27 -17.5 44t-43.5 17t-43.5 -17t-17.5 -44q0 -28 17.5 -44.5t43.5 -16.5t43.5 16.5t17.5 44.5z" />
    <glyph glyph-name="plusminus" unicode="&#xb1;" horiz-adv-x="524" 
d="M325 473h146v-113h-146v-154h-126v154h-146v113h146v154h126v-154zM54 46v113h417v-113h-417z" />
    <glyph glyph-name="acute" unicode="&#xb4;" horiz-adv-x="298" 
d="M158 557h-109l45 174h160z" />
    <glyph glyph-name="paragraph" unicode="&#xb6;" horiz-adv-x="654" 
d="M448 -152v727h-60v-727h-120v421h-24q-99 0 -159.5 56.5t-60.5 148.5q0 95 60.5 153.5t159.5 58.5h324v-838h-120z" />
    <glyph glyph-name="periodcentered" unicode="&#xb7;" horiz-adv-x="255" 
d="M127 455q39 0 62.5 -23t23.5 -60t-23.5 -60t-62.5 -23t-62.5 23t-23.5 60t23.5 60t62.5 23z" />
    <glyph glyph-name="cedilla" unicode="&#xb8;" horiz-adv-x="284" 
d="M77 -128q22 -11 53 -11q45 0 45 25q0 30 -81 30l23 103h67l-11 -52q36 -6 58 -26.5t22 -55.5q0 -45 -34.5 -71.5t-89.5 -26.5q-39 0 -69 13z" />
    <glyph glyph-name="ordmasculine" unicode="&#xba;" horiz-adv-x="459" 
d="M230 694q89 0 143.5 -54t54.5 -141q0 -85 -54.5 -139.5t-143.5 -54.5t-144 54.5t-55 139.5q0 87 55 141t144 54zM230 594q-35 0 -55.5 -26t-20.5 -69q0 -42 21 -68t55 -26t54.5 26t20.5 68q0 44 -20.5 69.5t-54.5 25.5z" />
    <glyph glyph-name="guillemotright" unicode="&#xbb;" horiz-adv-x="529" 
d="M296 236l-122 -160h-131l127 166l-126 164h130l122 -159v-11zM503 236l-122 -160h-131l127 166l-126 164h130l122 -159v-11z" />
    <glyph glyph-name="onequarter" unicode="&#xbc;" horiz-adv-x="834" 
d="M505 694h111l-304 -694h-112zM40 387h74v174h-75v75q49 0 73.5 12.5t39.5 44.5h69v-306h63v-90h-244v90zM806 164v-90h-48v-74h-107v74h-188v90l152 231h143v-231h48zM568 165v-1h87v132h-1z" />
    <glyph glyph-name="onehalf" unicode="&#xbd;" horiz-adv-x="819" 
d="M501 694h111l-303 -694h-113zM38 387h74v174h-75v75q49 0 73.5 12.5t39.5 44.5h69v-306h63v-90h-244v90zM660 90h129v-90h-296l-1 71l141 130q41 39 41 69q0 38 -36 38q-19 0 -30 -14t-11 -37h-107q-1 65 40.5 104.5t108.5 39.5q65 0 104.5 -36.5t39.5 -94.5
q0 -65 -71 -132z" />
    <glyph glyph-name="threequarters" unicode="&#xbe;" horiz-adv-x="880" 
d="M560 694h111l-304 -694h-113zM347 410q0 -55 -43.5 -89.5t-117.5 -34.5q-70 0 -114 36.5t-44 96.5h108q1 -40 52 -40q22 0 35 9.5t13 26.5q-1 36 -48 36h-37v76h28q49 0 49 35t-42 35q-43 0 -43 -47h-108q-1 65 40.5 103t109.5 38q66 0 109 -35.5t43 -89.5q0 -46 -34 -74
q44 -29 44 -82zM852 164v-90h-47v-74h-107v74h-189v90l152 231h144v-231h47zM615 165v-1h86v132h-1z" />
    <glyph glyph-name="questiondown" unicode="&#xbf;" horiz-adv-x="476" 
d="M265 333q-38 1 -62 24.5t-24 59.5t24 59.5t62 23.5q39 0 62.5 -23.5t23.5 -59.5q0 -37 -24 -60.5t-62 -23.5zM320 -4l133 1q0 -96 -58 -152.5t-158 -58.5q-97 -1 -154 51t-58 137q0 38 18 70.5t43.5 54t51 41t43.5 42t18 45.5v24h128v-33q0 -34 -17 -64t-41.5 -51.5
t-49.5 -41t-42 -42t-17 -46.5q0 -32 19.5 -49t55.5 -17q39 0 62 22.5t23 66.5z" />
    <glyph glyph-name="Agrave" unicode="&#xc0;" horiz-adv-x="661" 
d="M390 730h-126l-101 137h179zM518 0l-49 149h-277l-49 -149h-138l245 686h161l245 -686h-138zM229 258h203l-101 306z" />
    <glyph glyph-name="Aacute" unicode="&#xc1;" horiz-adv-x="661" 
d="M494 867l-100 -137h-127l46 137h181zM518 0l-49 149h-277l-49 -149h-138l245 686h161l245 -686h-138zM229 258h203l-101 306z" />
    <glyph glyph-name="Acircumflex" unicode="&#xc2;" horiz-adv-x="661" 
d="M331 795l-65 -65h-99l93 137h143l92 -137h-99zM518 0l-49 149h-277l-49 -149h-138l245 686h161l245 -686h-138zM229 258h203l-101 306z" />
    <glyph glyph-name="Atilde" unicode="&#xc3;" horiz-adv-x="661" 
d="M275 781q-38 0 -38 -39h-91q0 137 115 137q38 0 76.5 -20.5t52.5 -20.5q16 0 25.5 10.5t9.5 29.5h90q0 -68 -28.5 -102.5t-79.5 -34.5q-39 0 -79 20t-53 20zM518 0l-49 149h-277l-49 -149h-138l245 686h161l245 -686h-138zM229 258h203l-101 306z" />
    <glyph glyph-name="Adieresis" unicode="&#xc4;" horiz-adv-x="661" 
d="M231 737q-33 0 -53 19.5t-20 51.5t20 51.5t53 19.5t53 -19.5t20 -51.5t-20 -51.5t-53 -19.5zM433 737q-33 0 -53 19.5t-20 51.5t20 51.5t53 19.5t53 -19.5t20 -51.5t-20 -51.5t-53 -19.5zM518 0l-49 149h-277l-49 -149h-138l245 686h161l245 -686h-138zM229 258h203
l-101 306z" />
    <glyph glyph-name="Aring" unicode="&#xc5;" horiz-adv-x="661" 
d="M331 715q-43 0 -73.5 27t-30.5 71t30.5 71.5t73.5 27.5t73 -27.5t30 -71.5t-30 -71t-73 -27zM331 846q-16 0 -25.5 -9t-9.5 -24t9.5 -24.5t25.5 -9.5q15 0 24.5 9.5t9.5 24.5t-9.5 24t-24.5 9zM518 0l-49 149h-277l-49 -149h-138l245 686h161l245 -686h-138zM229 258h203
l-101 306z" />
    <glyph glyph-name="AE" unicode="&#xc6;" horiz-adv-x="1006" 
d="M615 121h346v-121h-484v149h-252l-90 -149h-148l409 686h560v-121h-341v-157h303v-116h-303v-171zM290 258h187v309h-1z" />
    <glyph glyph-name="Ccedilla" unicode="&#xc7;" horiz-adv-x="704" 
d="M366 114q79 0 120 38.5t50 101.5h136q-12 -113 -84 -183.5t-205 -76.5l-6 -26q36 -6 58 -26.5t22 -55.5q0 -45 -34.5 -71.5t-89.5 -26.5q-39 0 -69 13l17 72q22 -11 53 -11q45 0 45 25q0 30 -81 30l18 80q-125 16 -200.5 109t-75.5 238q0 156 90.5 252.5t231.5 96.5
q142 0 220 -71.5t90 -189.5h-136q-10 63 -52 102t-119 39q-81 0 -133.5 -63t-51.5 -167q0 -106 52.5 -167.5t133.5 -61.5z" />
    <glyph glyph-name="Egrave" unicode="&#xc8;" horiz-adv-x="606" 
d="M375 730h-126l-101 137h179zM216 115h346v-115h-484v686h478v-116h-340v-164h302v-112h-302v-179z" />
    <glyph glyph-name="Eacute" unicode="&#xc9;" horiz-adv-x="606" 
d="M479 867l-100 -137h-127l46 137h181zM216 115h346v-115h-484v686h478v-116h-340v-164h302v-112h-302v-179z" />
    <glyph glyph-name="Ecircumflex" unicode="&#xca;" horiz-adv-x="606" 
d="M317 795l-65 -65h-99l93 137h143l92 -137h-99zM216 115h346v-115h-484v686h478v-116h-340v-164h302v-112h-302v-179z" />
    <glyph glyph-name="Edieresis" unicode="&#xcb;" horiz-adv-x="606" 
d="M217 737q-33 0 -53 19.5t-20 51.5t20 51.5t53 19.5t53 -19.5t20 -51.5t-20 -51.5t-53 -19.5zM419 737q-33 0 -53 19.5t-20 51.5t20 51.5t53 19.5t53 -19.5t20 -51.5t-20 -51.5t-53 -19.5zM216 115h346v-115h-484v686h478v-116h-340v-164h302v-112h-302v-179z" />
    <glyph glyph-name="Igrave" unicode="&#xcc;" horiz-adv-x="293" 
d="M80 730l-101 137h179l48 -137h-126zM78 0v686h138v-686h-138z" />
    <glyph glyph-name="Iacute" unicode="&#xcd;" horiz-adv-x="293" 
d="M210 730h-127l46 137h181zM78 0v686h138v-686h-138z" />
    <glyph glyph-name="Icircumflex" unicode="&#xce;" horiz-adv-x="293" 
d="M219 867l92 -137h-99l-65 65l-65 -65h-99l93 137h143zM78 0v686h138v-686h-138z" />
    <glyph glyph-name="Idieresis" unicode="&#xcf;" horiz-adv-x="293" 
d="M47 879q33 0 53 -19.5t20 -51.5t-20 -51.5t-53 -19.5t-53 19.5t-20 51.5t20 51.5t53 19.5zM249 879q33 0 53 -19.5t20 -51.5t-20 -51.5t-53 -19.5t-53 19.5t-20 51.5t20 51.5t53 19.5zM78 0v686h138v-686h-138z" />
    <glyph glyph-name="Eth" unicode="&#xd0;" horiz-adv-x="733" 
d="M358 686q151 0 243 -91.5t92 -251.5t-92 -251.5t-243 -91.5h-266v298h-79v89h79v299h266zM358 114q89 0 142.5 59.5t53.5 169.5t-54 169.5t-142 59.5h-128v-185h150v-89h-150v-184h128z" />
    <glyph glyph-name="Ntilde" unicode="&#xd1;" horiz-adv-x="734" 
d="M311 781q-38 0 -38 -39h-91q0 137 115 137q38 0 76.5 -20.5t52.5 -20.5q16 0 25.5 10.5t9.5 29.5h90q0 -68 -28.5 -102.5t-79.5 -34.5q-39 0 -79 20t-53 20zM521 686h135v-686h-130l-313 478v-478h-135v686h129l314 -480v480z" />
    <glyph glyph-name="Ograve" unicode="&#xd2;" horiz-adv-x="763" 
d="M315 730l-101 137h179l48 -137h-126zM382 -6q-150 0 -246.5 95t-96.5 253q0 159 96.5 255t246.5 96t246 -94.5t96 -253.5t-96 -255t-246 -96zM382 113q87 0 144.5 62t57.5 168t-57.5 168t-144.5 62t-145 -62t-58 -168t58 -168t145 -62z" />
    <glyph glyph-name="Oacute" unicode="&#xd3;" horiz-adv-x="763" 
d="M445 730h-127l46 137h181zM382 -6q-150 0 -246.5 95t-96.5 253q0 159 96.5 255t246.5 96t246 -94.5t96 -253.5t-96 -255t-246 -96zM382 113q87 0 144.5 62t57.5 168t-57.5 168t-144.5 62t-145 -62t-58 -168t58 -168t145 -62z" />
    <glyph glyph-name="Ocircumflex" unicode="&#xd4;" horiz-adv-x="763" 
d="M454 867l92 -137h-99l-65 65l-65 -65h-99l93 137h143zM382 -6q-150 0 -246.5 95t-96.5 253q0 159 96.5 255t246.5 96t246 -94.5t96 -253.5t-96 -255t-246 -96zM382 113q87 0 144.5 62t57.5 168t-57.5 168t-144.5 62t-145 -62t-58 -168t58 -168t145 -62z" />
    <glyph glyph-name="Otilde" unicode="&#xd5;" horiz-adv-x="763" 
d="M326 781q-38 0 -38 -39h-91q0 137 115 137q38 0 76.5 -20.5t52.5 -20.5q16 0 25.5 10.5t9.5 29.5h90q0 -68 -28.5 -102.5t-79.5 -34.5q-40 0 -80 20t-52 20zM382 -6q-150 0 -246.5 95t-96.5 253q0 159 96.5 255t246.5 96t246 -94.5t96 -253.5t-96 -255t-246 -96zM382 113
q87 0 144.5 62t57.5 168t-57.5 168t-144.5 62t-145 -62t-58 -168t58 -168t145 -62z" />
    <glyph glyph-name="Odieresis" unicode="&#xd6;" horiz-adv-x="763" 
d="M282 879q33 0 53 -19.5t20 -51.5t-20 -51.5t-53 -19.5t-53 19.5t-20 51.5t20 51.5t53 19.5zM484 879q33 0 53 -19.5t20 -51.5t-20 -51.5t-53 -19.5t-53 19.5t-20 51.5t20 51.5t53 19.5zM382 -6q-150 0 -246.5 95t-96.5 253q0 159 96.5 255t246.5 96t246 -94.5t96 -253.5
t-96 -255t-246 -96zM382 113q87 0 144.5 62t57.5 168t-57.5 168t-144.5 62t-145 -62t-58 -168t58 -168t145 -62z" />
    <glyph glyph-name="multiply" unicode="&#xd7;" horiz-adv-x="487" 
d="M445 468l-121 -121l121 -122l-80 -80l-121 122l-122 -122l-80 80l122 122l-122 121l80 80l122 -121l121 121z" />
    <glyph glyph-name="Oslash" unicode="&#xd8;" horiz-adv-x="763" 
d="M613 612q111 -97 111 -267q0 -159 -96 -255t-246 -96q-73 0 -139 25l-41 -65h-115l71 114q-119 96 -119 274q0 159 96.5 255t246.5 96q81 0 148 -29l33 52h115zM179 343q0 -98 51 -160l233 373q-39 17 -81 17q-87 0 -145 -62t-58 -168zM382 113q87 0 144.5 62t57.5 168
q0 88 -44 152l-231 -369q33 -13 73 -13z" />
    <glyph glyph-name="Ugrave" unicode="&#xd9;" horiz-adv-x="713" 
d="M290 730l-101 137h179l48 -137h-126zM505 686h138v-413q0 -130 -77 -204.5t-209 -74.5q-136 0 -211.5 74t-75.5 205v413h138v-413q0 -78 38.5 -119t110.5 -41t110 41t38 119v413z" />
    <glyph glyph-name="Uacute" unicode="&#xda;" horiz-adv-x="713" 
d="M420 730h-127l46 137h181zM505 686h138v-413q0 -130 -77 -204.5t-209 -74.5q-136 0 -211.5 74t-75.5 205v413h138v-413q0 -78 38.5 -119t110.5 -41t110 41t38 119v413z" />
    <glyph glyph-name="Ucircumflex" unicode="&#xdb;" horiz-adv-x="713" 
d="M429 867l92 -137h-99l-65 65l-65 -65h-99l93 137h143zM505 686h138v-413q0 -130 -77 -204.5t-209 -74.5q-136 0 -211.5 74t-75.5 205v413h138v-413q0 -78 38.5 -119t110.5 -41t110 41t38 119v413z" />
    <glyph glyph-name="Udieresis" unicode="&#xdc;" horiz-adv-x="713" 
d="M257 879q33 0 53 -19.5t20 -51.5t-20 -51.5t-53 -19.5t-53 19.5t-20 51.5t20 51.5t53 19.5zM459 879q33 0 53 -19.5t20 -51.5t-20 -51.5t-53 -19.5t-53 19.5t-20 51.5t20 51.5t53 19.5zM505 686h138v-413q0 -130 -77 -204.5t-209 -74.5q-136 0 -211.5 74t-75.5 205v413
h138v-413q0 -78 38.5 -119t110.5 -41t110 41t38 119v413z" />
    <glyph glyph-name="Yacute" unicode="&#xdd;" horiz-adv-x="621" 
d="M474 867l-100 -137h-127l46 137h181zM618 686l-239 -425v-261h-138v263l-239 423h147l162 -298l161 298h146z" />
    <glyph glyph-name="Thorn" unicode="&#xde;" horiz-adv-x="641" 
d="M359 566q115 0 181 -57t66 -161t-65.5 -160.5t-181.5 -56.5h-143v-131h-138v686h138v-120h143zM359 245q51 0 79 28.5t28 74.5t-28 75t-79 29h-143v-207h143z" />
    <glyph glyph-name="germandbls" unicode="&#xdf;" horiz-adv-x="576" 
d="M432 376q110 -46 110 -167q0 -96 -65.5 -152.5t-180.5 -56.5h-42v108h42q52 0 80 25.5t28 75.5q0 49 -28.5 77t-79.5 28h-26v103h3q47 0 69.5 27.5t22.5 72.5q0 42 -20 67t-62 25q-43 0 -64 -25.5t-21 -68.5v-515h-137v521q0 90 59.5 146t163.5 56q107 0 163 -56t56 -142
q0 -96 -71 -149z" />
    <glyph glyph-name="agrave" unicode="&#xe0;" horiz-adv-x="554" 
d="M333 557h-109l-96 174h160zM532 113l8 -108q-32 -10 -70 -10q-86 0 -111 79h-1q-42 -79 -161 -79q-80 0 -123 36t-43 98q0 83 71.5 119t185.5 36h63v22q0 39 -24 62t-69 23q-39 0 -62.5 -18t-27.5 -50h-124q6 82 65 127t156 45q106 0 162.5 -52.5t56.5 -146.5v-158
q0 -30 23 -30q11 0 25 5zM235 95q51 0 83.5 25.5t32.5 57.5v31h-71q-116 0 -116 -64q0 -50 71 -50z" />
    <glyph glyph-name="aacute" unicode="&#xe1;" horiz-adv-x="554" 
d="M416 731l-96 -174h-109l45 174h160zM532 113l8 -108q-32 -10 -70 -10q-86 0 -111 79h-1q-42 -79 -161 -79q-80 0 -123 36t-43 98q0 83 71.5 119t185.5 36h63v22q0 39 -24 62t-69 23q-39 0 -62.5 -18t-27.5 -50h-124q6 82 65 127t156 45q106 0 162.5 -52.5t56.5 -146.5
v-158q0 -30 23 -30q11 0 25 5zM235 95q51 0 83.5 25.5t32.5 57.5v31h-71q-116 0 -116 -64q0 -50 71 -50z" />
    <glyph glyph-name="acircumflex" unicode="&#xe2;" horiz-adv-x="554" 
d="M274 647l-70 -89h-95l97 174h135l97 -174h-94zM532 113l8 -108q-32 -10 -70 -10q-86 0 -111 79h-1q-42 -79 -161 -79q-80 0 -123 36t-43 98q0 83 71.5 119t185.5 36h63v22q0 39 -24 62t-69 23q-39 0 -62.5 -18t-27.5 -50h-124q6 82 65 127t156 45q106 0 162.5 -52.5
t56.5 -146.5v-158q0 -30 23 -30q11 0 25 5zM235 95q51 0 83.5 25.5t32.5 57.5v31h-71q-116 0 -116 -64q0 -50 71 -50z" />
    <glyph glyph-name="atilde" unicode="&#xe3;" horiz-adv-x="554" 
d="M206 618q-38 0 -39 -43h-90q0 140 112 140q41 0 79.5 -22t55.5 -22q38 0 38 43h90q0 -69 -29 -104.5t-82 -35.5q-39 0 -78.5 22t-56.5 22zM532 113l8 -108q-32 -10 -70 -10q-86 0 -111 79h-1q-42 -79 -161 -79q-80 0 -123 36t-43 98q0 83 71.5 119t185.5 36h63v22
q0 39 -24 62t-69 23q-39 0 -62.5 -18t-27.5 -50h-124q6 82 65 127t156 45q106 0 162.5 -52.5t56.5 -146.5v-158q0 -30 23 -30q11 0 25 5zM235 95q51 0 83.5 25.5t32.5 57.5v31h-71q-116 0 -116 -64q0 -50 71 -50z" />
    <glyph glyph-name="adieresis" unicode="&#xe4;" horiz-adv-x="554" 
d="M176 574q-33 0 -53 19.5t-20 50.5q0 32 20 51.5t53 19.5q34 0 54 -19.5t20 -51.5q0 -31 -20.5 -50.5t-53.5 -19.5zM378 574q-32 0 -52.5 19.5t-20.5 50.5t20.5 51t52.5 20q34 0 54 -19.5t20 -51.5q0 -31 -20.5 -50.5t-53.5 -19.5zM532 113l8 -108q-32 -10 -70 -10
q-86 0 -111 79h-1q-42 -79 -161 -79q-80 0 -123 36t-43 98q0 83 71.5 119t185.5 36h63v22q0 39 -24 62t-69 23q-39 0 -62.5 -18t-27.5 -50h-124q6 82 65 127t156 45q106 0 162.5 -52.5t56.5 -146.5v-158q0 -30 23 -30q11 0 25 5zM235 95q51 0 83.5 25.5t32.5 57.5v31h-71
q-116 0 -116 -64q0 -50 71 -50z" />
    <glyph glyph-name="aring" unicode="&#xe5;" horiz-adv-x="554" 
d="M274 545q-43 0 -73.5 27t-30.5 71t30.5 71.5t73.5 27.5t73 -27.5t30 -71.5t-30 -71t-73 -27zM274 676q-16 0 -25.5 -9t-9.5 -24t9.5 -24.5t25.5 -9.5t25.5 9.5t9.5 24.5q0 14 -9.5 23.5t-25.5 9.5zM532 113l8 -108q-32 -10 -70 -10q-86 0 -111 79h-1q-42 -79 -161 -79
q-80 0 -123 36t-43 98q0 83 71.5 119t185.5 36h63v22q0 39 -24 62t-69 23q-39 0 -62.5 -18t-27.5 -50h-124q6 82 65 127t156 45q106 0 162.5 -52.5t56.5 -146.5v-158q0 -30 23 -30q11 0 25 5zM235 95q51 0 83.5 25.5t32.5 57.5v31h-71q-116 0 -116 -64q0 -50 71 -50z" />
    <glyph glyph-name="ae" unicode="&#xe6;" horiz-adv-x="857" 
d="M822 241v-26h-343q8 -55 39 -84t78 -29q79 0 97 60h128q-13 -72 -69 -119.5t-158 -47.5q-123 0 -193 88q-72 -88 -204 -88q-79 0 -122.5 36t-43.5 98q0 155 277 155h41v22q0 39 -23.5 62t-68.5 23q-35 0 -58.5 -18t-28.5 -50h-125q7 82 65 127t152 45q112 0 168 -58
q67 58 162 58q108 0 169 -69.5t61 -184.5zM592 393q-41 0 -71.5 -25t-39.5 -74h213q-13 99 -102 99zM235 97q50 0 85 24.5t37 54.5q-5 16 -6 33h-49q-138 0 -138 -64q0 -48 71 -48z" />
    <glyph glyph-name="ccedilla" unicode="&#xe7;" horiz-adv-x="535" 
d="M281 108q79 0 93 82h132q-10 -82 -63 -135.5t-148 -58.5l-6 -29q36 -6 58 -26.5t22 -55.5q0 -45 -34.5 -71.5t-89.5 -26.5q-39 0 -69 13l17 72q22 -11 53 -11q45 0 45 25q0 30 -81 30l18 83q-89 15 -141 81t-52 164q0 111 68 181t175 70q104 0 161 -54.5t67 -142.5h-132
q-14 84 -92 84q-49 0 -79 -36t-30 -102q0 -65 29 -100.5t79 -35.5z" />
    <glyph glyph-name="egrave" unicode="&#xe8;" horiz-adv-x="547" 
d="M338 557h-109l-96 174h160zM512 241v-26h-345q7 -55 38 -84t80 -29q80 0 98 60h127q-13 -71 -71 -119t-161 -48q-111 0 -177 69t-66 180t69 181t176 70q110 0 171 -69.5t61 -184.5zM281 393q-43 0 -73 -25t-39 -74h215q-13 99 -103 99z" />
    <glyph glyph-name="eacute" unicode="&#xe9;" horiz-adv-x="547" 
d="M421 731l-96 -174h-109l45 174h160zM512 241v-26h-345q7 -55 38 -84t80 -29q80 0 98 60h127q-13 -71 -71 -119t-161 -48q-111 0 -177 69t-66 180t69 181t176 70q110 0 171 -69.5t61 -184.5zM281 393q-43 0 -73 -25t-39 -74h215q-13 99 -103 99z" />
    <glyph glyph-name="ecircumflex" unicode="&#xea;" horiz-adv-x="547" 
d="M279 647l-70 -89h-95l97 174h135l97 -174h-94zM512 241v-26h-345q7 -55 38 -84t80 -29q80 0 98 60h127q-13 -71 -71 -119t-161 -48q-111 0 -177 69t-66 180t69 181t176 70q110 0 171 -69.5t61 -184.5zM281 393q-43 0 -73 -25t-39 -74h215q-13 99 -103 99z" />
    <glyph glyph-name="edieresis" unicode="&#xeb;" horiz-adv-x="547" 
d="M181 574q-33 0 -53 19.5t-20 50.5q0 32 20 51.5t53 19.5q34 0 54 -19.5t20 -51.5q0 -31 -20.5 -50.5t-53.5 -19.5zM383 574q-32 0 -52.5 19.5t-20.5 50.5t20.5 51t52.5 20q34 0 54 -19.5t20 -51.5q0 -31 -20.5 -50.5t-53.5 -19.5zM512 241v-26h-345q7 -55 38 -84t80 -29
q80 0 98 60h127q-13 -71 -71 -119t-161 -48q-111 0 -177 69t-66 180t69 181t176 70q110 0 171 -69.5t61 -184.5zM281 393q-43 0 -73 -25t-39 -74h215q-13 99 -103 99z" />
    <glyph glyph-name="igrave" unicode="&#xec;" horiz-adv-x="260" 
d="M65 556l-96 174h160l45 -174h-109zM61 0v490h138v-490h-138z" />
    <glyph glyph-name="iacute" unicode="&#xed;" horiz-adv-x="260" 
d="M166 556h-109l45 174h160zM61 0v490h138v-490h-138z" />
    <glyph glyph-name="icircumflex" unicode="&#xee;" horiz-adv-x="260" 
d="M-34 557l97 174h135l97 -174h-94l-70 89l-70 -89h-95zM61 0v490h138v-490h-138z" />
    <glyph glyph-name="idieresis" unicode="&#xef;" horiz-adv-x="260" 
d="M33 714q34 0 54 -19.5t20 -51.5q0 -31 -20.5 -50.5t-53.5 -19.5t-53 19.5t-20 50.5q0 32 20 51.5t53 19.5zM235 714q34 0 54 -19.5t20 -51.5q0 -31 -20.5 -50.5t-53.5 -19.5q-32 0 -52.5 19.5t-20.5 50.5t20.5 51t52.5 20zM61 0v490h138v-490h-138z" />
    <glyph glyph-name="eth" unicode="&#xf0;" horiz-adv-x="577" 
d="M387 628q150 -122 150 -352q0 -131 -66.5 -206t-189.5 -75q-105 0 -176 67t-71 164q0 108 69.5 175t167.5 67q87 0 131 -50q-26 85 -99 140l-84 -72l-51 63l60 51q-45 16 -90 19l35 97q77 -9 143 -42l63 54l52 -62zM283 108q52 0 83 34.5t33 88.5q0 56 -34 91t-79 35
q-50 0 -81.5 -36t-31.5 -92q0 -52 33 -86.5t77 -34.5z" />
    <glyph glyph-name="ntilde" unicode="&#xf1;" horiz-adv-x="577" 
d="M227 618q-38 0 -39 -43h-90q0 140 112 140q41 0 79.5 -22t55.5 -22q38 0 38 43h90q0 -69 -29 -104.5t-82 -35.5q-39 0 -78.5 22t-56.5 22zM350 495q81 0 126 -51.5t45 -136.5v-307h-137v276q0 47 -22 73.5t-65 26.5q-45 0 -72 -28t-27 -74v-274h-137v490h132l4 -72
q49 77 153 77z" />
    <glyph glyph-name="ograve" unicode="&#xf2;" horiz-adv-x="573" 
d="M237 556l-96 174h160l45 -174h-109zM286 495q114 0 183 -68.5t69 -179.5t-69.5 -181.5t-182.5 -70.5q-112 0 -181.5 68.5t-69.5 178.5q0 112 69.5 182.5t181.5 70.5zM286 382q-51 0 -82 -38t-31 -100q0 -61 31 -98.5t82 -37.5q52 0 82.5 37.5t30.5 98.5q0 63 -30.5 100.5
t-82.5 37.5z" />
    <glyph glyph-name="oacute" unicode="&#xf3;" horiz-adv-x="573" 
d="M333 556h-109l45 174h160zM286 495q114 0 183 -68.5t69 -179.5t-69.5 -181.5t-182.5 -70.5q-112 0 -181.5 68.5t-69.5 178.5q0 112 69.5 182.5t181.5 70.5zM286 382q-51 0 -82 -38t-31 -100q0 -61 31 -98.5t82 -37.5q52 0 82.5 37.5t30.5 98.5q0 63 -30.5 100.5
t-82.5 37.5z" />
    <glyph glyph-name="ocircumflex" unicode="&#xf4;" horiz-adv-x="573" 
d="M122 557l97 174h135l97 -174h-94l-70 89l-70 -89h-95zM286 495q114 0 183 -68.5t69 -179.5t-69.5 -181.5t-182.5 -70.5q-112 0 -181.5 68.5t-69.5 178.5q0 112 69.5 182.5t181.5 70.5zM286 382q-51 0 -82 -38t-31 -100q0 -61 31 -98.5t82 -37.5q52 0 82.5 37.5t30.5 98.5
q0 63 -30.5 100.5t-82.5 37.5z" />
    <glyph glyph-name="otilde" unicode="&#xf5;" horiz-adv-x="573" 
d="M219 617q-38 0 -39 -43h-90q0 140 112 140q41 0 79.5 -22t55.5 -22q38 0 38 43h90q0 -69 -29 -104.5t-82 -35.5q-39 0 -78.5 22t-56.5 22zM286 495q114 0 183 -68.5t69 -179.5t-69.5 -181.5t-182.5 -70.5q-112 0 -181.5 68.5t-69.5 178.5q0 112 69.5 182.5t181.5 70.5z
M286 382q-51 0 -82 -38t-31 -100q0 -61 31 -98.5t82 -37.5q52 0 82.5 37.5t30.5 98.5q0 63 -30.5 100.5t-82.5 37.5z" />
    <glyph glyph-name="odieresis" unicode="&#xf6;" horiz-adv-x="573" 
d="M189 714q34 0 54 -19.5t20 -51.5q0 -31 -20.5 -50.5t-53.5 -19.5t-53 19.5t-20 50.5q0 32 20 51.5t53 19.5zM391 714q34 0 54 -19.5t20 -51.5q0 -31 -20.5 -50.5t-53.5 -19.5q-32 0 -52.5 19.5t-20.5 50.5t20.5 51t52.5 20zM286 495q114 0 183 -68.5t69 -179.5
t-69.5 -181.5t-182.5 -70.5q-112 0 -181.5 68.5t-69.5 178.5q0 112 69.5 182.5t181.5 70.5zM286 382q-51 0 -82 -38t-31 -100q0 -61 31 -98.5t82 -37.5q52 0 82.5 37.5t30.5 98.5q0 63 -30.5 100.5t-82.5 37.5z" />
    <glyph glyph-name="divide" unicode="&#xf7;" horiz-adv-x="495" 
d="M247 589q31 0 50 -18.5t19 -47.5q0 -30 -19 -48.5t-50 -18.5t-50 18.5t-19 48.5q0 29 19 47.5t50 18.5zM39 290v113h417v-113h-417zM248 237q31 0 50 -18.5t19 -47.5q0 -30 -19 -48.5t-50 -18.5t-50 18.5t-19 48.5q0 29 19 47.5t50 18.5z" />
    <glyph glyph-name="oslash" unicode="&#xf8;" horiz-adv-x="573" 
d="M449 444q89 -70 89 -197q0 -111 -69.5 -181.5t-182.5 -70.5q-59 0 -104 19l-27 -44h-81l48 77q-87 70 -87 195q0 112 69.5 182.5t181.5 70.5q60 0 105 -19l24 39h78zM173 244q0 -49 20 -83l134 214q-21 7 -41 7q-51 0 -82 -38t-31 -100zM286 108q52 0 82.5 37.5
t30.5 98.5q0 52 -21 86l-133 -215q23 -7 41 -7z" />
    <glyph glyph-name="ugrave" unicode="&#xf9;" horiz-adv-x="566" 
d="M340 557h-109l-96 174h160zM368 490h137v-490h-132l-4 72q-47 -77 -144 -77q-81 0 -125 50.5t-44 129.5v315h138v-283q0 -43 21.5 -68t62.5 -25q39 0 64.5 28.5t25.5 73.5v274z" />
    <glyph glyph-name="uacute" unicode="&#xfa;" horiz-adv-x="566" 
d="M423 731l-96 -174h-109l45 174h160zM368 490h137v-490h-132l-4 72q-47 -77 -144 -77q-81 0 -125 50.5t-44 129.5v315h138v-283q0 -43 21.5 -68t62.5 -25q39 0 64.5 28.5t25.5 73.5v274z" />
    <glyph glyph-name="ucircumflex" unicode="&#xfb;" horiz-adv-x="566" 
d="M281 647l-70 -89h-95l97 174h135l97 -174h-94zM368 490h137v-490h-132l-4 72q-47 -77 -144 -77q-81 0 -125 50.5t-44 129.5v315h138v-283q0 -43 21.5 -68t62.5 -25q39 0 64.5 28.5t25.5 73.5v274z" />
    <glyph glyph-name="udieresis" unicode="&#xfc;" horiz-adv-x="566" 
d="M183 574q-33 0 -53 19.5t-20 50.5q0 32 20 51.5t53 19.5q34 0 54 -19.5t20 -51.5q0 -31 -20.5 -50.5t-53.5 -19.5zM385 574q-32 0 -52.5 19.5t-20.5 50.5t20.5 51t52.5 20q34 0 54 -19.5t20 -51.5q0 -31 -20.5 -50.5t-53.5 -19.5zM368 490h137v-490h-132l-4 72
q-47 -77 -144 -77q-81 0 -125 50.5t-44 129.5v315h138v-283q0 -43 21.5 -68t62.5 -25q39 0 64.5 28.5t25.5 73.5v274z" />
    <glyph glyph-name="yacute" unicode="&#xfd;" horiz-adv-x="522" 
d="M402 731l-96 -174h-109l45 174h160zM376 490h139l-179 -490l-11 -29q-35 -97 -81 -137.5t-127 -40.5q-50 0 -80 10l8 114q23 -10 47 -10q77 0 97 67l5 16l-186 500h148l96 -306q5 -17 13 -56h3q6 35 12 56z" />
    <glyph glyph-name="thorn" unicode="&#xfe;" horiz-adv-x="599" 
d="M350 495q95 0 154 -64t59 -178q0 -115 -59.5 -186.5t-158.5 -71.5q-102 0 -147 75v-272h-137v912h136v-291q50 76 153 76zM314 110q49 0 79.5 37.5t30.5 99.5q0 61 -29.5 97t-79.5 36q-53 0 -85 -37t-32 -82v-31q0 -47 32 -83.5t84 -36.5z" />
    <glyph glyph-name="ydieresis" unicode="&#xff;" horiz-adv-x="522" 
d="M162 574q-33 0 -53 19.5t-20 50.5q0 32 20 51.5t53 19.5q34 0 54 -19.5t20 -51.5q0 -31 -20.5 -50.5t-53.5 -19.5zM364 574q-32 0 -52.5 19.5t-20.5 50.5t20.5 51t52.5 20q34 0 54 -19.5t20 -51.5q0 -31 -20.5 -50.5t-53.5 -19.5zM376 490h139l-179 -490l-11 -29
q-35 -97 -81 -137.5t-127 -40.5q-50 0 -80 10l8 114q23 -10 47 -10q77 0 97 67l5 16l-186 500h148l96 -306q5 -17 13 -56h3q6 35 12 56z" />
    <glyph glyph-name="Amacron" unicode="&#x100;" horiz-adv-x="661" 
d="M487 847v-95h-310v95h310zM518 0l-49 149h-277l-49 -149h-138l245 686h161l245 -686h-138zM229 258h203l-101 306z" />
    <glyph glyph-name="amacron" unicode="&#x101;" horiz-adv-x="554" 
d="M429 692v-95h-309v95h309zM532 113l8 -108q-32 -10 -70 -10q-86 0 -111 79h-1q-42 -79 -161 -79q-80 0 -123 36t-43 98q0 83 71.5 119t185.5 36h63v22q0 39 -24 62t-69 23q-39 0 -62.5 -18t-27.5 -50h-124q6 82 65 127t156 45q106 0 162.5 -52.5t56.5 -146.5v-158
q0 -30 23 -30q11 0 25 5zM235 95q51 0 83.5 25.5t32.5 57.5v31h-71q-116 0 -116 -64q0 -50 71 -50z" />
    <glyph glyph-name="Abreve" unicode="&#x102;" horiz-adv-x="661" 
d="M331 728q-69 0 -110.5 40.5t-41.5 99.5h99q0 -25 13.5 -39.5t38.5 -14.5t38 14.5t13 39.5h101q0 -59 -41.5 -99.5t-109.5 -40.5zM518 0l-49 149h-277l-49 -149h-138l245 686h161l245 -686h-138zM229 258h203l-101 306z" />
    <glyph glyph-name="abreve" unicode="&#x103;" horiz-adv-x="554" 
d="M273 554q-72 0 -114.5 46.5t-42.5 127.5h101q0 -80 55 -80q27 0 40.5 18.5t13.5 61.5h102q0 -81 -41.5 -127.5t-113.5 -46.5zM532 113l8 -108q-32 -10 -70 -10q-86 0 -111 79h-1q-42 -79 -161 -79q-80 0 -123 36t-43 98q0 83 71.5 119t185.5 36h63v22q0 39 -24 62t-69 23
q-39 0 -62.5 -18t-27.5 -50h-124q6 82 65 127t156 45q106 0 162.5 -52.5t56.5 -146.5v-158q0 -30 23 -30q11 0 25 5zM235 95q51 0 83.5 25.5t32.5 57.5v31h-71q-116 0 -116 -64q0 -50 71 -50z" />
    <glyph glyph-name="Aogonek" unicode="&#x104;" horiz-adv-x="661" 
d="M678 -118l34 -60q-35 -37 -100 -37q-52 0 -81.5 27.5t-29.5 74.5q0 65 56 113h-39l-49 149h-277l-49 -149h-138l245 686h161l244 -684l2 -2q-3 -1 -8 -4t-17.5 -12.5t-22 -20t-17.5 -26.5t-8 -33q0 -42 41 -42q33 0 53 20zM229 258h203l-101 306z" />
    <glyph glyph-name="aogonek" unicode="&#x105;" horiz-adv-x="554" 
d="M562 -113l34 -60q-35 -37 -100 -37q-52 0 -81.5 27.5t-29.5 74.5q0 62 49 107q-56 16 -75 75h-1q-42 -79 -161 -79q-80 0 -123 36t-43 98q0 83 71.5 119t185.5 36h63v22q0 39 -24 62t-69 23q-39 0 -62.5 -18t-27.5 -50h-124q6 82 65 127t156 45q106 0 162.5 -52.5
t56.5 -146.5v-158q0 -30 23 -30q11 0 25 5l8 -107l1 -1q-3 -1 -8 -4t-17.5 -12.5t-22 -20t-17.5 -26.5t-8 -33q0 -42 41 -42q33 0 53 20zM235 95q51 0 83.5 25.5t32.5 57.5v31h-71q-116 0 -116 -64q0 -50 71 -50z" />
    <glyph glyph-name="Cacute" unicode="&#x106;" horiz-adv-x="704" 
d="M425 725h-127l46 137h181zM366 114q79 0 120 38.5t50 101.5h136q-13 -117 -90 -188.5t-220 -71.5q-142 0 -232 96t-90 254q0 156 90.5 252.5t231.5 96.5q142 0 220 -71.5t90 -189.5h-136q-10 63 -52 102t-119 39q-81 0 -133.5 -63t-51.5 -167q0 -106 52.5 -167.5
t133.5 -61.5z" />
    <glyph glyph-name="cacute" unicode="&#x107;" horiz-adv-x="535" 
d="M327 557h-109l45 174h160zM276 -5q-109 0 -175 69t-66 180t68 181t175 70q104 0 161 -54.5t67 -142.5h-132q-14 84 -92 84q-49 0 -79 -36t-30 -102q0 -65 29 -100.5t79 -35.5q79 0 93 82h132q-10 -86 -68 -140.5t-162 -54.5z" />
    <glyph glyph-name="Ccircumflex" unicode="&#x108;" horiz-adv-x="704" 
d="M434 862l92 -137h-99l-65 65l-65 -65h-99l93 137h143zM366 114q79 0 120 38.5t50 101.5h136q-13 -117 -90 -188.5t-220 -71.5q-142 0 -232 96t-90 254q0 156 90.5 252.5t231.5 96.5q142 0 220 -71.5t90 -189.5h-136q-10 63 -52 102t-119 39q-81 0 -133.5 -63t-51.5 -167
q0 -106 52.5 -167.5t133.5 -61.5z" />
    <glyph glyph-name="ccircumflex" unicode="&#x109;" horiz-adv-x="535" 
d="M116 558l97 174h135l97 -174h-94l-70 89l-70 -89h-95zM276 -5q-109 0 -175 69t-66 180t68 181t175 70q104 0 161 -54.5t67 -142.5h-132q-14 84 -92 84q-49 0 -79 -36t-30 -102q0 -65 29 -100.5t79 -35.5q79 0 93 82h132q-10 -86 -68 -140.5t-162 -54.5z" />
    <glyph glyph-name="Cdotaccent" unicode="&#x10a;" horiz-adv-x="704" 
d="M361 889q39 0 62.5 -23t23.5 -60t-23.5 -60t-62.5 -23q-38 0 -62 23t-24 60t24 60t62 23zM366 114q79 0 120 38.5t50 101.5h136q-13 -117 -90 -188.5t-220 -71.5q-142 0 -232 96t-90 254q0 156 90.5 252.5t231.5 96.5q142 0 220 -71.5t90 -189.5h-136q-10 63 -52 102
t-119 39q-81 0 -133.5 -63t-51.5 -167q0 -106 52.5 -167.5t133.5 -61.5z" />
    <glyph glyph-name="cdotaccent" unicode="&#x10b;" horiz-adv-x="535" 
d="M281 732q39 0 62.5 -23t23.5 -60t-23.5 -60t-62.5 -23q-38 0 -62 23t-24 60t24 60t62 23zM276 -5q-109 0 -175 69t-66 180t68 181t175 70q104 0 161 -54.5t67 -142.5h-132q-14 84 -92 84q-49 0 -79 -36t-30 -102q0 -65 29 -100.5t79 -35.5q79 0 93 82h132
q-10 -86 -68 -140.5t-162 -54.5z" />
    <glyph glyph-name="Ccaron" unicode="&#x10c;" horiz-adv-x="704" 
d="M435 725h-143l-93 137h99l65 -64l65 64h99zM366 114q79 0 120 38.5t50 101.5h136q-13 -117 -90 -188.5t-220 -71.5q-142 0 -232 96t-90 254q0 156 90.5 252.5t231.5 96.5q142 0 220 -71.5t90 -189.5h-136q-10 63 -52 102t-119 39q-81 0 -133.5 -63t-51.5 -167
q0 -106 52.5 -167.5t133.5 -61.5z" />
    <glyph glyph-name="ccaron" unicode="&#x10d;" horiz-adv-x="535" 
d="M116 732h95l70 -89l70 89h95l-97 -174h-135zM276 -5q-109 0 -175 69t-66 180t68 181t175 70q104 0 161 -54.5t67 -142.5h-132q-14 84 -92 84q-49 0 -79 -36t-30 -102q0 -65 29 -100.5t79 -35.5q79 0 93 82h132q-10 -86 -68 -140.5t-162 -54.5z" />
    <glyph glyph-name="Dcaron" unicode="&#x10e;" horiz-adv-x="719" 
d="M410 730h-143l-93 137h99l65 -64l65 64h99zM344 686q151 0 243 -91.5t92 -251.5t-92 -251.5t-243 -91.5h-266v686h266zM344 114q89 0 142.5 59.5t53.5 169.5t-54 169.5t-142 59.5h-128v-458h128z" />
    <glyph glyph-name="dcaron" unicode="&#x10f;" horiz-adv-x="638" 
d="M649 742q70 0 70 -95q0 -77 -39.5 -123t-89.5 -45v56q23 0 41 19t18 50q-32 0 -51 19t-20 50q0 31 20 50t51 19zM400 429v281h137v-710h-133l-3 72q-45 -77 -149 -77q-98 0 -157.5 69.5t-59.5 179.5q0 116 63.5 183.5t158.5 67.5q99 0 143 -66zM284 110q52 0 84 36.5
t32 83.5v30q0 46 -31.5 83t-84.5 37q-49 0 -79.5 -37.5t-30.5 -98.5q0 -60 30.5 -97t79.5 -37z" />
    <glyph glyph-name="Dcroat" unicode="&#x110;" horiz-adv-x="737" 
d="M362 686q151 0 243 -91.5t92 -251.5t-92 -251.5t-243 -91.5h-266v298h-84v89h84v299h266zM362 114q89 0 142.5 59.5t53.5 169.5t-54 169.5t-142 59.5h-128v-185h157v-89h-157v-184h128z" />
    <glyph glyph-name="dcroat" unicode="&#x111;" horiz-adv-x="598" 
d="M597 638v-79h-60v-559h-133l-3 71q-50 -76 -152 -76q-95 0 -154.5 65.5t-59.5 178.5q0 114 60 185t161 71q99 0 144 -72v136h-135v79h135v72h137v-72h60zM283 110q53 0 85 37t32 82v31q0 47 -32 83.5t-84 36.5q-49 0 -79.5 -37.5t-30.5 -99.5q0 -61 29.5 -97t79.5 -36z
" />
    <glyph glyph-name="Emacron" unicode="&#x112;" horiz-adv-x="606" 
d="M473 847v-95h-310v95h310zM216 115h346v-115h-484v686h478v-116h-340v-164h302v-112h-302v-179z" />
    <glyph glyph-name="emacron" unicode="&#x113;" horiz-adv-x="547" 
d="M434 692v-95h-309v95h309zM512 241v-26h-345q7 -55 38 -84t80 -29q80 0 98 60h127q-13 -71 -71 -119t-161 -48q-111 0 -177 69t-66 180t69 181t176 70q110 0 171 -69.5t61 -184.5zM281 393q-43 0 -73 -25t-39 -74h215q-13 99 -103 99z" />
    <glyph glyph-name="Ebreve" unicode="&#x114;" horiz-adv-x="606" 
d="M317 728q-69 0 -110.5 40.5t-41.5 99.5h99q0 -25 13.5 -39.5t38.5 -14.5t38 14.5t13 39.5h101q0 -59 -41.5 -99.5t-109.5 -40.5zM216 115h346v-115h-484v686h478v-116h-340v-164h302v-112h-302v-179z" />
    <glyph glyph-name="ebreve" unicode="&#x115;" horiz-adv-x="547" 
d="M278 554q-72 0 -114.5 46.5t-42.5 127.5h101q0 -80 55 -80q27 0 40.5 18.5t13.5 61.5h102q0 -81 -41.5 -127.5t-113.5 -46.5zM512 241v-26h-345q7 -55 38 -84t80 -29q80 0 98 60h127q-13 -71 -71 -119t-161 -48q-111 0 -177 69t-66 180t69 181t176 70q110 0 171 -69.5
t61 -184.5zM281 393q-43 0 -73 -25t-39 -74h215q-13 99 -103 99z" />
    <glyph glyph-name="Edotaccent" unicode="&#x116;" horiz-adv-x="606" 
d="M315 728q-38 0 -62 23t-24 60t24 60t62 23q39 0 62.5 -23t23.5 -60t-23.5 -60t-62.5 -23zM216 115h346v-115h-484v686h478v-116h-340v-164h302v-112h-302v-179z" />
    <glyph glyph-name="edotaccent" unicode="&#x117;" horiz-adv-x="547" 
d="M279 566q-38 0 -62 23t-24 60t24 60t62 23q39 0 62.5 -23t23.5 -60t-23.5 -60t-62.5 -23zM512 241v-26h-345q7 -55 38 -84t80 -29q80 0 98 60h127q-13 -71 -71 -119t-161 -48q-111 0 -177 69t-66 180t69 181t176 70q110 0 171 -69.5t61 -184.5zM281 393q-43 0 -73 -25
t-39 -74h215q-13 99 -103 99z" />
    <glyph glyph-name="Eogonek" unicode="&#x118;" horiz-adv-x="606" 
d="M583 -118l34 -60q-35 -37 -100 -37q-52 0 -81.5 27.5t-29.5 74.5q0 65 56 113h-384v686h478v-116h-340v-164h302v-112h-302v-179h346v-115q-3 -1 -8 -4t-17.5 -12.5t-22 -20t-17.5 -26.5t-8 -33q0 -42 41 -42q33 0 53 20z" />
    <glyph glyph-name="eogonek" unicode="&#x119;" horiz-adv-x="547" 
d="M512 241v-26h-345q7 -55 38 -84t80 -29q80 0 98 60h127q-17 -91 -96 -136l1 -1q-3 -1 -8 -4t-17.5 -12.5t-22 -20t-17.5 -26.5t-8 -33q0 -42 41 -42q33 0 53 20l34 -60q-35 -37 -100 -37q-52 0 -81.5 27.5t-29.5 74.5q0 44 28 83h-9q-111 0 -177 69t-66 180t69 181
t176 70q110 0 171 -69.5t61 -184.5zM281 393q-43 0 -73 -25t-39 -74h215q-13 99 -103 99z" />
    <glyph glyph-name="Ecaron" unicode="&#x11a;" horiz-adv-x="606" 
d="M389 730h-143l-93 137h99l65 -64l65 64h99zM216 115h346v-115h-484v686h478v-116h-340v-164h302v-112h-302v-179z" />
    <glyph glyph-name="ecaron" unicode="&#x11b;" horiz-adv-x="547" 
d="M346 558h-135l-98 174h95l70 -89l70 89h95zM512 241v-26h-345q7 -55 38 -84t80 -29q80 0 98 60h127q-13 -71 -71 -119t-161 -48q-111 0 -177 69t-66 180t69 181t176 70q110 0 171 -69.5t61 -184.5zM281 393q-43 0 -73 -25t-39 -74h215q-13 99 -103 99z" />
    <glyph glyph-name="Gcircumflex" unicode="&#x11c;" horiz-adv-x="734" 
d="M370 795l-65 -65h-99l93 137h143l92 -137h-99zM380 360h301v-360h-99v102q-70 -108 -221 -108q-146 0 -233.5 95.5t-87.5 255.5q0 156 91.5 252t244.5 96q134 0 211 -68t88 -179h-136q-10 55 -50 91t-113 36q-90 0 -143.5 -61.5t-53.5 -167.5q0 -108 51 -169t139 -61
q76 0 124 40.5t59 99.5h-172v106z" />
    <glyph glyph-name="gcircumflex" unicode="&#x11d;" horiz-adv-x="596" 
d="M309 646l-70 -89h-95l97 174h135l97 -174h-94zM403 490h132v-490q0 -92 -67 -152t-184 -60q-102 0 -163 40.5t-69 121.5h129q11 -58 103 -58q55 0 84.5 29t29.5 74v76q-45 -75 -147 -75q-97 0 -156.5 69.5t-59.5 178.5q0 116 63.5 183.5t157.5 67.5q101 0 143 -68z
M283 111q51 0 83 36.5t32 83.5v29q0 46 -31.5 83t-83.5 37q-48 0 -78.5 -37.5t-30.5 -98.5q0 -60 30.5 -96.5t78.5 -36.5z" />
    <glyph glyph-name="Gbreve" unicode="&#x11e;" horiz-adv-x="734" 
d="M371 728q-69 0 -110.5 40.5t-41.5 99.5h99q0 -25 13.5 -39.5t38.5 -14.5t38 14.5t13 39.5h101q0 -59 -41.5 -99.5t-109.5 -40.5zM380 360h301v-360h-99v102q-70 -108 -221 -108q-146 0 -233.5 95.5t-87.5 255.5q0 156 91.5 252t244.5 96q134 0 211 -68t88 -179h-136
q-10 55 -50 91t-113 36q-90 0 -143.5 -61.5t-53.5 -167.5q0 -108 51 -169t139 -61q76 0 124 40.5t59 99.5h-172v106z" />
    <glyph glyph-name="gbreve" unicode="&#x11f;" horiz-adv-x="596" 
d="M308 553q-72 0 -114.5 46.5t-42.5 127.5h101q0 -80 55 -80q27 0 40.5 18.5t13.5 61.5h102q0 -81 -41.5 -127.5t-113.5 -46.5zM403 490h132v-490q0 -92 -67 -152t-184 -60q-102 0 -163 40.5t-69 121.5h129q11 -58 103 -58q55 0 84.5 29t29.5 74v76q-45 -75 -147 -75
q-97 0 -156.5 69.5t-59.5 178.5q0 116 63.5 183.5t157.5 67.5q101 0 143 -68zM283 111q51 0 83 36.5t32 83.5v29q0 46 -31.5 83t-83.5 37q-48 0 -78.5 -37.5t-30.5 -98.5q0 -60 30.5 -96.5t78.5 -36.5z" />
    <glyph glyph-name="Gdotaccent" unicode="&#x120;" horiz-adv-x="734" 
d="M369 728q-38 0 -62 23t-24 60t24 60t62 23q39 0 62.5 -23t23.5 -60t-23.5 -60t-62.5 -23zM380 360h301v-360h-99v102q-70 -108 -221 -108q-146 0 -233.5 95.5t-87.5 255.5q0 156 91.5 252t244.5 96q134 0 211 -68t88 -179h-136q-10 55 -50 91t-113 36q-90 0 -143.5 -61.5
t-53.5 -167.5q0 -108 51 -169t139 -61q76 0 124 40.5t59 99.5h-172v106z" />
    <glyph glyph-name="gdotaccent" unicode="&#x121;" horiz-adv-x="596" 
d="M309 565q-38 0 -62 23t-24 60t24 60t62 23q39 0 62.5 -23t23.5 -60t-23.5 -60t-62.5 -23zM403 490h132v-490q0 -92 -67 -152t-184 -60q-102 0 -163 40.5t-69 121.5h129q11 -58 103 -58q55 0 84.5 29t29.5 74v76q-45 -75 -147 -75q-97 0 -156.5 69.5t-59.5 178.5
q0 116 63.5 183.5t157.5 67.5q101 0 143 -68zM283 111q51 0 83 36.5t32 83.5v29q0 46 -31.5 83t-83.5 37q-48 0 -78.5 -37.5t-30.5 -98.5q0 -60 30.5 -96.5t78.5 -36.5z" />
    <glyph glyph-name="Gcommaaccent" unicode="&#x122;" horiz-adv-x="734" 
d="M380 360h301v-360h-99v102q-70 -108 -221 -108q-146 0 -233.5 95.5t-87.5 255.5q0 156 91.5 252t244.5 96q134 0 211 -68t88 -179h-136q-10 55 -50 91t-113 36q-90 0 -143.5 -61.5t-53.5 -167.5q0 -108 51 -169t139 -61q76 0 124 40.5t59 99.5h-172v106zM362 -42
q71 0 71 -94q0 -76 -40 -122.5t-89 -44.5v56q22 0 40.5 19t18.5 49q-32 0 -51.5 19t-19.5 49q0 31 20 50t50 19z" />
    <glyph glyph-name="gcommaaccent" unicode="&#x123;" horiz-adv-x="596" 
d="M309 541q-71 0 -71 94q0 76 40 122.5t89 44.5v-56q-22 0 -40.5 -19t-18.5 -49q32 0 51.5 -19t19.5 -49q0 -31 -20 -50t-50 -19zM403 490h132v-490q0 -92 -67 -152t-184 -60q-102 0 -163 40.5t-69 121.5h129q11 -58 103 -58q55 0 84.5 29t29.5 74v76q-45 -75 -147 -75
q-97 0 -156.5 69.5t-59.5 178.5q0 116 63.5 183.5t157.5 67.5q101 0 143 -68zM283 111q51 0 83 36.5t32 83.5v29q0 46 -31.5 83t-83.5 37q-48 0 -78.5 -37.5t-30.5 -98.5q0 -60 30.5 -96.5t78.5 -36.5z" />
    <glyph glyph-name="Hcircumflex" unicode="&#x124;" horiz-adv-x="735" 
d="M370 795l-65 -65h-99l93 137h143l92 -137h-99zM518 686h138v-686h-138v289h-302v-289h-138v686h138v-276h302v276z" />
    <glyph glyph-name="hcircumflex" unicode="&#x125;" horiz-adv-x="577" 
d="M128 810l-65 -65h-99l93 137h143l92 -137h-99zM349 495q81 0 126.5 -51t45.5 -129v-315h-137v280q0 44 -22.5 70t-63.5 26q-45 0 -72 -28t-27 -74v-274h-138v710h136v-292q50 77 152 77z" />
    <glyph glyph-name="Hbar" unicode="&#x126;" horiz-adv-x="736" 
d="M706 609v-89h-49v-520h-138v289h-302v-289h-138v520h-45v89h45v77h138v-77h302v77h138v-77h49zM519 410v110h-302v-110h302z" />
    <glyph glyph-name="hbar" unicode="&#x127;" horiz-adv-x="577" 
d="M349 495q81 0 126.5 -51t45.5 -129v-315h-137v280q0 44 -22.5 70t-63.5 26q-45 0 -72 -28t-27 -74v-274h-138v559h-75v79h75v72h136v-72h121v-79h-121v-141q50 77 152 77z" />
    <glyph glyph-name="Itilde" unicode="&#x128;" horiz-adv-x="293" 
d="M91 781q-38 0 -38 -39h-91q0 137 115 137q38 0 76.5 -20.5t52.5 -20.5q16 0 25.5 10.5t9.5 29.5h90q0 -68 -28.5 -102.5t-79.5 -34.5q-39 0 -79 20t-53 20zM78 0v686h138v-686h-138z" />
    <glyph glyph-name="itilde" unicode="&#x129;" horiz-adv-x="260" 
d="M63 617q-38 0 -39 -43h-90q0 140 112 140q41 0 79.5 -22t55.5 -22q38 0 38 43h90q0 -69 -29 -104.5t-82 -35.5q-39 0 -78.5 22t-56.5 22zM61 0v490h138v-490h-138z" />
    <glyph glyph-name="Imacron" unicode="&#x12a;" horiz-adv-x="293" 
d="M-6 752v95h310v-95h-310zM78 0v686h138v-686h-138z" />
    <glyph glyph-name="imacron" unicode="&#x12b;" horiz-adv-x="260" 
d="M-23 596v95h309v-95h-309zM61 0v490h138v-490h-138z" />
    <glyph glyph-name="Ibreve" unicode="&#x12c;" horiz-adv-x="293" 
d="M299 868q0 -59 -41.5 -99.5t-109.5 -40.5q-69 0 -110.5 40.5t-41.5 99.5h99q0 -25 13.5 -39.5t38.5 -14.5t38 14.5t13 39.5h101zM78 0v686h138v-686h-138z" />
    <glyph glyph-name="ibreve" unicode="&#x12d;" horiz-adv-x="260" 
d="M285 727q0 -81 -41.5 -127.5t-113.5 -46.5t-114.5 46.5t-42.5 127.5h101q0 -80 55 -80q27 0 40.5 18.5t13.5 61.5h102zM61 0v490h138v-490h-138z" />
    <glyph glyph-name="Iogonek" unicode="&#x12e;" horiz-adv-x="293" 
d="M237 -118l34 -60q-35 -37 -100 -37q-52 0 -81.5 27.5t-29.5 74.5q0 65 56 113h-38v686h138v-686q-3 -1 -8 -4t-17.5 -12.5t-22 -20t-17.5 -26.5t-8 -33q0 -42 41 -42q33 0 53 20z" />
    <glyph glyph-name="iogonek" unicode="&#x12f;" horiz-adv-x="260" 
d="M130 563q-37 0 -62.5 24t-25.5 61t25.5 61.5t62.5 24.5q38 0 63.5 -24.5t25.5 -61.5t-25.5 -61t-63.5 -24zM220 -118l34 -60q-35 -37 -100 -37q-52 0 -81.5 27.5t-29.5 74.5q0 65 56 113h-38v490h138v-490q-3 -1 -8 -4t-17.5 -12.5t-22 -20t-17.5 -26.5t-8 -33
q0 -42 41 -42q33 0 53 20z" />
    <glyph glyph-name="Idotaccent" unicode="&#x130;" horiz-adv-x="293" 
d="M146 894q39 0 62.5 -23t23.5 -60t-23.5 -60t-62.5 -23q-38 0 -62 23t-24 60t24 60t62 23zM78 0v686h138v-686h-138z" />
    <glyph glyph-name="dotlessi" unicode="&#x131;" horiz-adv-x="260" 
d="M61 0v490h138v-490h-138z" />
    <glyph glyph-name="IJ" unicode="&#x132;" horiz-adv-x="833" 
d="M78 0v686h138v-686h-138zM442 226q1 -111 91 -111t90 111v460h138v-452q0 -110 -59 -174t-171 -64q-109 0 -167 60t-57 170h135z" />
    <glyph glyph-name="ij" unicode="&#x133;" horiz-adv-x="533" 
d="M219 648q0 -37 -25.5 -61t-63.5 -24q-37 0 -62.5 24t-25.5 61t25.5 61.5t62.5 24.5q38 0 63.5 -24.5t25.5 -61.5zM496 648q0 -37 -26 -61t-63 -24q-38 0 -63 24t-25 61t25 61.5t63 24.5q37 0 63 -25t26 -61zM61 0v490h138v-490h-138zM279 -207q-49 0 -81 10l9 114
q23 -10 47 -10q39 0 60 21.5t21 61.5v500h137v-505q0 -87 -52.5 -139.5t-140.5 -52.5z" />
    <glyph glyph-name="Jcircumflex" unicode="&#x134;" horiz-adv-x="539" 
d="M468 863l92 -137h-99l-65 65l-65 -65h-99l93 137h143zM148 226q1 -111 91 -111t90 111v460h138v-452q0 -110 -59 -174t-171 -64q-109 0 -167 60t-57 170h135z" />
    <glyph glyph-name="jcircumflex" unicode="&#x135;" horiz-adv-x="268" 
d="M-30 558l97 174h135l97 -174h-94l-70 89l-70 -89h-95zM13 -207q-49 0 -81 10l9 114q23 -10 47 -10q39 0 60 21.5t21 61.5v500h137v-505q0 -87 -52.5 -139.5t-140.5 -52.5z" />
    <glyph glyph-name="Kcommaaccent" unicode="&#x136;" horiz-adv-x="668" 
d="M408 393l271 -393h-161l-203 295l-99 -113v-182h-138v686h138v-342l281 342h164zM356 -42q71 0 71 -94q0 -76 -40 -122.5t-89 -44.5v56q22 0 40.5 19t18.5 49q-32 0 -51.5 19t-19.5 49q0 31 20 50t50 19z" />
    <glyph glyph-name="kcommaaccent" unicode="&#x137;" horiz-adv-x="545" 
d="M355 291l197 -291h-154l-131 193l-69 -76v-117h-137v710h137v-422l173 203h163zM282 -42q71 0 71 -94q0 -76 -40 -122.5t-89 -44.5v56q22 0 40.5 19t18.5 49q-32 0 -51.5 19t-19.5 49q0 31 20 50t50 19z" />
    <glyph glyph-name="kgreenlandic" unicode="&#x138;" horiz-adv-x="545" 
d="M398 0l-131 193l-69 -76v-117h-137v490h137v-202l173 203h163l-179 -200l197 -291h-154z" />
    <glyph glyph-name="Lacute" unicode="&#x139;" horiz-adv-x="562" 
d="M306 867l-100 -137h-127l46 137h181zM216 121h336v-121h-474v686h138v-565z" />
    <glyph glyph-name="lacute" unicode="&#x13a;" horiz-adv-x="279" 
d="M285 882l-100 -137h-127l46 137h181zM219 108q10 0 24 5l8 -108q-32 -10 -72 -10q-121 0 -121 135v580h137v-572q0 -30 24 -30z" />
    <glyph glyph-name="Lcommaaccent" unicode="&#x13b;" horiz-adv-x="562" 
d="M216 121h336v-121h-474v686h138v-565zM323 -42q71 0 71 -94q0 -76 -40 -122.5t-89 -44.5v56q22 0 40.5 19t18.5 49q-32 0 -51.5 19t-19.5 49q0 31 20 50t50 19z" />
    <glyph glyph-name="lcommaaccent" unicode="&#x13c;" horiz-adv-x="279" 
d="M179 -5q-121 0 -121 135v580h137v-572q0 -30 24 -30q10 0 24 5l8 -108q-32 -10 -72 -10zM153 -42q71 0 71 -94q0 -76 -40 -122.5t-89 -44.5v56q22 0 40.5 19t18.5 49q-32 0 -51.5 19t-19.5 49q0 31 20 50t50 19z" />
    <glyph glyph-name="Lcaron" unicode="&#x13d;" horiz-adv-x="565" 
d="M427 568q-32 0 -51 19.5t-19 49.5q0 31 20 50t50 19q70 0 71 -95q-1 -75 -40.5 -121.5t-88.5 -45.5v56q22 0 40 19.5t18 48.5zM216 121h336v-121h-474v686h138v-565z" />
    <glyph glyph-name="lcaron" unicode="&#x13e;" horiz-adv-x="296" 
d="M301 747q70 0 71 -95q-1 -75 -40.5 -121.5t-88.5 -45.5v56q22 0 40 19.5t18 48.5q-32 0 -51 19.5t-19 49.5q0 31 20 50t50 19zM219 108q10 0 24 5l8 -108q-32 -10 -72 -10q-121 0 -121 135v580h137v-572q0 -30 24 -30z" />
    <glyph glyph-name="Ldot" unicode="&#x13f;" horiz-adv-x="566" 
d="M216 121h336v-121h-474v686h138v-565zM424 288q-39 0 -62.5 23t-23.5 60t23.5 60t62.5 23t62.5 -23t23.5 -60t-23.5 -60t-62.5 -23z" />
    <glyph glyph-name="ldot" unicode="&#x140;" horiz-adv-x="400" 
d="M219 108q10 0 24 5l8 -108q-32 -10 -72 -10q-121 0 -121 135v580h137v-572q0 -30 24 -30zM331 430q39 0 62.5 -23t23.5 -60t-23.5 -60t-62.5 -23t-62.5 23t-23.5 60t23.5 60t62.5 23z" />
    <glyph glyph-name="Lslash" unicode="&#x141;" horiz-adv-x="604" 
d="M259 121h336v-121h-474v217l-60 -35l-48 85l108 64v355h138v-274l106 62l48 -84l-154 -91v-178z" />
    <glyph glyph-name="lslash" unicode="&#x142;" horiz-adv-x="348" 
d="M267 108q10 0 24 5l8 -108q-32 -10 -72 -10q-121 0 -121 135v149l-62 -36l-38 70l100 58v339h137v-259l63 37l38 -69l-101 -59v-222q0 -30 24 -30z" />
    <glyph glyph-name="Nacute" unicode="&#x143;" horiz-adv-x="734" 
d="M530 868l-100 -137h-127l46 137h181zM521 686h135v-686h-130l-313 478v-478h-135v686h129l314 -480v480z" />
    <glyph glyph-name="nacute" unicode="&#x144;" horiz-adv-x="577" 
d="M437 731l-96 -174h-109l45 174h160zM350 495q81 0 126 -51.5t45 -136.5v-307h-137v276q0 47 -22 73.5t-65 26.5q-45 0 -72 -28t-27 -74v-274h-137v490h132l4 -72q49 77 153 77z" />
    <glyph glyph-name="Ncommaaccent" unicode="&#x145;" horiz-adv-x="734" 
d="M521 686h135v-686h-130l-313 478v-478h-135v686h129l314 -480v480zM366 -42q71 0 71 -94q0 -76 -40 -122.5t-89 -44.5v56q22 0 40.5 19t18.5 49q-32 0 -51.5 19t-19.5 49q0 31 20 50t50 19z" />
    <glyph glyph-name="ncommaaccent" unicode="&#x146;" horiz-adv-x="577" 
d="M350 495q81 0 126 -51.5t45 -136.5v-307h-137v276q0 47 -22 73.5t-65 26.5q-45 0 -72 -28t-27 -74v-274h-137v490h132l4 -72q49 77 153 77zM291 -42q71 0 71 -94q0 -76 -40 -122.5t-89 -44.5v56q22 0 40.5 19t18.5 49q-32 0 -51.5 19t-19.5 49q0 31 20 50t50 19z" />
    <glyph glyph-name="Ncaron" unicode="&#x147;" horiz-adv-x="734" 
d="M440 731h-143l-93 137h99l65 -64l65 64h99zM521 686h135v-686h-130l-313 478v-478h-135v686h129l314 -480v480z" />
    <glyph glyph-name="ncaron" unicode="&#x148;" horiz-adv-x="577" 
d="M362 558h-135l-98 174h95l70 -89l70 89h95zM350 495q81 0 126 -51.5t45 -136.5v-307h-137v276q0 47 -22 73.5t-65 26.5q-45 0 -72 -28t-27 -74v-274h-137v490h132l4 -72q49 77 153 77z" />
    <glyph glyph-name="napostrophe" unicode="&#x149;" horiz-adv-x="665" 
d="M88 736q70 0 71 -95q-1 -75 -40.5 -121.5t-88.5 -45.5v56q22 0 40 19.5t18 48.5q-32 0 -51 19.5t-19 49.5q0 31 20 50t50 19zM437 495q81 0 126 -51.5t45 -136.5v-307h-137v276q0 47 -22 73.5t-65 26.5q-45 0 -72 -28t-27 -74v-274h-137v490h132l4 -72q49 77 153 77z" />
    <glyph glyph-name="Eng" unicode="&#x14a;" horiz-adv-x="734" 
d="M521 686h135v-701q0 -87 -53 -139.5t-141 -52.5q-48 0 -80 10l8 114q23 -10 47 -10q38 0 59.5 21t21.5 58v26l-305 466v-478h-135v686h129l314 -480v480z" />
    <glyph glyph-name="eng" unicode="&#x14b;" horiz-adv-x="577" 
d="M350 495q81 0 126 -51.5t45 -136.5v-322q0 -87 -52.5 -139.5t-140.5 -52.5q-49 0 -81 10l8 114q25 -10 47 -10q39 0 60.5 21.5t21.5 61.5v286q0 47 -22 73.5t-65 26.5q-45 0 -72 -28t-27 -74v-274h-137v490h132l4 -72q49 77 153 77z" />
    <glyph glyph-name="Omacron" unicode="&#x14c;" horiz-adv-x="763" 
d="M228 752v95h310v-95h-310zM382 -6q-150 0 -246.5 95t-96.5 253q0 159 96.5 255t246.5 96t246 -94.5t96 -253.5t-96 -255t-246 -96zM382 113q87 0 144.5 62t57.5 168t-57.5 168t-144.5 62t-145 -62t-58 -168t58 -168t145 -62z" />
    <glyph glyph-name="omacron" unicode="&#x14d;" horiz-adv-x="573" 
d="M133 596v95h309v-95h-309zM286 495q114 0 183 -68.5t69 -179.5t-69.5 -181.5t-182.5 -70.5q-112 0 -181.5 68.5t-69.5 178.5q0 112 69.5 182.5t181.5 70.5zM286 382q-51 0 -82 -38t-31 -100q0 -61 31 -98.5t82 -37.5q52 0 82.5 37.5t30.5 98.5q0 63 -30.5 100.5
t-82.5 37.5z" />
    <glyph glyph-name="Obreve" unicode="&#x14e;" horiz-adv-x="763" 
d="M534 868q0 -59 -41.5 -99.5t-109.5 -40.5q-69 0 -110.5 40.5t-41.5 99.5h99q0 -25 13.5 -39.5t38.5 -14.5t38 14.5t13 39.5h101zM382 -6q-150 0 -246.5 95t-96.5 253q0 159 96.5 255t246.5 96t246 -94.5t96 -253.5t-96 -255t-246 -96zM382 113q87 0 144.5 62t57.5 168
t-57.5 168t-144.5 62t-145 -62t-58 -168t58 -168t145 -62z" />
    <glyph glyph-name="obreve" unicode="&#x14f;" horiz-adv-x="573" 
d="M441 727q0 -81 -41.5 -127.5t-113.5 -46.5t-114.5 46.5t-42.5 127.5h101q0 -80 55 -80q27 0 40.5 18.5t13.5 61.5h102zM286 495q114 0 183 -68.5t69 -179.5t-69.5 -181.5t-182.5 -70.5q-112 0 -181.5 68.5t-69.5 178.5q0 112 69.5 182.5t181.5 70.5zM286 382
q-51 0 -82 -38t-31 -100q0 -61 31 -98.5t82 -37.5q52 0 82.5 37.5t30.5 98.5q0 63 -30.5 100.5t-82.5 37.5z" />
    <glyph glyph-name="Ohungarumlaut" unicode="&#x150;" horiz-adv-x="763" 
d="M311 730h-104l56 138h155zM501 730h-104l55 138h156zM382 -6q-150 0 -246.5 95t-96.5 253q0 159 96.5 255t246.5 96t246 -94.5t96 -253.5t-96 -255t-246 -96zM382 113q87 0 144.5 62t57.5 168t-57.5 168t-144.5 62t-145 -62t-58 -168t58 -168t145 -62z" />
    <glyph glyph-name="ohungarumlaut" unicode="&#x151;" horiz-adv-x="573" 
d="M217 556h-113l46 174h167zM425 556h-112l45 174h167zM286 495q114 0 183 -68.5t69 -179.5t-69.5 -181.5t-182.5 -70.5q-112 0 -181.5 68.5t-69.5 178.5q0 112 69.5 182.5t181.5 70.5zM286 382q-51 0 -82 -38t-31 -100q0 -61 31 -98.5t82 -37.5q52 0 82.5 37.5t30.5 98.5
q0 63 -30.5 100.5t-82.5 37.5z" />
    <glyph glyph-name="OE" unicode="&#x152;" horiz-adv-x="1114" 
d="M724 115h346v-115h-484v55q-85 -61 -204 -61q-150 0 -246.5 95t-96.5 253q0 159 96.5 255t246.5 96q118 0 204 -60v53h478v-116h-340v-164h302v-112h-302v-179zM382 113q87 0 144.5 62t57.5 168t-57.5 168t-144.5 62t-145 -62t-58 -168t58 -168t145 -62z" />
    <glyph glyph-name="oe" unicode="&#x153;" horiz-adv-x="916" 
d="M882 241v-26h-345q7 -55 38 -84t80 -29q80 0 98 60h127q-13 -71 -71 -119t-161 -48q-113 0 -179 71q-69 -71 -183 -71q-112 0 -181.5 68.5t-69.5 178.5q0 112 69.5 182.5t181.5 70.5q116 0 186 -72q70 72 178 72q110 0 171 -69.5t61 -184.5zM651 393q-43 0 -73 -25
t-39 -74h215q-13 99 -103 99zM286 108q52 0 82.5 37.5t30.5 98.5q0 63 -30.5 100.5t-82.5 37.5q-51 0 -82 -38t-31 -100q0 -61 31 -98.5t82 -37.5z" />
    <glyph glyph-name="Racute" unicode="&#x154;" horiz-adv-x="668" 
d="M474 868l-100 -137h-127l46 137h181zM639 112l8 -107q-34 -10 -71 -10q-69 0 -106 27t-67 84l-76 146h-111v-252h-138v686h272q117 0 183 -57t66 -161q0 -70 -33.5 -119.5t-92.5 -74.5l63 -124q22 -43 64 -43q22 0 39 5zM216 572v-213h134q54 1 82 29.5t28 77.5
t-28.5 77.5t-81.5 28.5h-134z" />
    <glyph glyph-name="racute" unicode="&#x155;" horiz-adv-x="370" 
d="M356 731l-96 -174h-109l45 174h160zM196 410q39 85 126 85q23 0 31 -4l-1 -134q-13 5 -34 5q-48 0 -81 -29t-39 -80v-253h-137v490h132z" />
    <glyph glyph-name="Rcommaaccent" unicode="&#x156;" horiz-adv-x="668" 
d="M639 112l8 -107q-34 -10 -71 -10q-69 0 -106 27t-67 84l-76 146h-111v-252h-138v686h272q117 0 183 -57t66 -161q0 -70 -33.5 -119.5t-92.5 -74.5l63 -124q22 -43 64 -43q22 0 39 5zM216 572v-213h134q54 1 82 29.5t28 77.5t-28.5 77.5t-81.5 28.5h-134zM347 -42
q71 0 71 -94q0 -76 -40 -122.5t-89 -44.5v56q22 0 40.5 19t18.5 49q-32 0 -51.5 19t-19.5 49q0 31 20 50t50 19z" />
    <glyph glyph-name="rcommaaccent" unicode="&#x157;" horiz-adv-x="370" 
d="M322 495q23 0 31 -4l-1 -134q-13 5 -34 5q-48 0 -81 -29t-39 -80v-253h-137v490h132l3 -80q39 85 126 85zM133 -42q71 0 71 -94q0 -76 -40 -122.5t-89 -44.5v56q22 0 40.5 19t18.5 49q-32 0 -51.5 19t-19.5 49q0 31 20 50t50 19z" />
    <glyph glyph-name="Rcaron" unicode="&#x158;" horiz-adv-x="668" 
d="M384 731h-143l-93 137h99l65 -64l65 64h99zM639 112l8 -107q-34 -10 -71 -10q-69 0 -106 27t-67 84l-76 146h-111v-252h-138v686h272q117 0 183 -57t66 -161q0 -70 -33.5 -119.5t-92.5 -74.5l63 -124q22 -43 64 -43q22 0 39 5zM216 572v-213h134q54 1 82 29.5t28 77.5
t-28.5 77.5t-81.5 28.5h-134z" />
    <glyph glyph-name="rcaron" unicode="&#x159;" horiz-adv-x="370" 
d="M281 558h-135l-98 174h95l70 -89l70 89h95zM196 410q39 85 126 85q23 0 31 -4l-1 -134q-13 5 -34 5q-48 0 -81 -29t-39 -80v-253h-137v490h132z" />
    <glyph glyph-name="Sacute" unicode="&#x15a;" horiz-adv-x="616" 
d="M471 867l-100 -137h-127l46 137h181zM187 499q0 -35 29 -55.5t72 -28.5t94 -21.5t94 -31.5t72 -62.5t29 -110.5q0 -89 -75 -142t-198 -53q-128 0 -198.5 54.5t-70.5 156.5h138q0 -96 138 -96q62 0 95.5 20.5t33.5 59.5q0 32 -21.5 52t-56 30t-76 18.5t-83.5 21
t-76.5 32.5t-56 59t-21.5 94q0 88 72 142.5t189 54.5q120 0 189 -55.5t69 -153.5h-138q-1 94 -122 94t-121 -79z" />
    <glyph glyph-name="sacute" unicode="&#x15b;" horiz-adv-x="491" 
d="M392 731l-96 -174h-109l45 174h160zM455 139q1 -68 -56.5 -106t-156.5 -38q-207 0 -209 158l117 -1q5 -62 90 -62q84 0 82 45q0 21 -20.5 34t-51.5 18.5t-67.5 15.5t-67.5 23.5t-51.5 45.5t-20.5 78q0 67 56 106t153 39q93 0 144 -41t52 -114h-119q-5 60 -78 60
q-75 0 -75 -46q0 -24 28.5 -36.5t69.5 -20t82.5 -20t70 -47t28.5 -91.5z" />
    <glyph glyph-name="Scircumflex" unicode="&#x15c;" horiz-adv-x="616" 
d="M309 795l-65 -65h-99l93 137h143l92 -137h-99zM187 499q0 -35 29 -55.5t72 -28.5t94 -21.5t94 -31.5t72 -62.5t29 -110.5q0 -89 -75 -142t-198 -53q-128 0 -198.5 54.5t-70.5 156.5h138q0 -96 138 -96q62 0 95.5 20.5t33.5 59.5q0 32 -21.5 52t-56 30t-76 18.5t-83.5 21
t-76.5 32.5t-56 59t-21.5 94q0 88 72 142.5t189 54.5q120 0 189 -55.5t69 -153.5h-138q-1 94 -122 94t-121 -79z" />
    <glyph glyph-name="scircumflex" unicode="&#x15d;" horiz-adv-x="491" 
d="M250 646l-70 -89h-95l97 174h135l97 -174h-94zM455 139q1 -68 -56.5 -106t-156.5 -38q-207 0 -209 158l117 -1q5 -62 90 -62q84 0 82 45q0 21 -20.5 34t-51.5 18.5t-67.5 15.5t-67.5 23.5t-51.5 45.5t-20.5 78q0 67 56 106t153 39q93 0 144 -41t52 -114h-119
q-5 60 -78 60q-75 0 -75 -46q0 -24 28.5 -36.5t69.5 -20t82.5 -20t70 -47t28.5 -91.5z" />
    <glyph glyph-name="Scedilla" unicode="&#x15e;" horiz-adv-x="616" 
d="M577 189q0 -85 -67 -137t-180 -57l-6 -28q36 -6 58 -26.5t22 -55.5q0 -45 -34.5 -71.5t-89.5 -26.5q-39 0 -69 13l17 72q22 -11 53 -11q45 0 45 25q0 30 -81 30l18 80q-109 8 -168.5 62t-59.5 147h138q0 -96 138 -96q62 0 95.5 20.5t33.5 59.5q0 32 -21.5 52t-56 30
t-76 18.5t-83.5 21t-76.5 32.5t-56 59t-21.5 94q0 88 72 142.5t189 54.5q120 0 189 -55.5t69 -153.5h-138q-1 94 -122 94t-121 -79q0 -35 29 -55.5t72 -28.5t94 -21.5t94 -31.5t72 -62.5t29 -110.5z" />
    <glyph glyph-name="scedilla" unicode="&#x15f;" horiz-adv-x="491" 
d="M455 139q1 -61 -46 -98t-130 -44l-6 -30q36 -6 58 -26.5t22 -55.5q0 -45 -34.5 -71.5t-89.5 -26.5q-39 0 -69 13l17 72q22 -11 53 -11q45 0 45 25q0 30 -81 30l18 80q-177 12 -179 157l117 -1q5 -62 90 -62q84 0 82 45q0 21 -20.5 34t-51.5 18.5t-67.5 15.5t-67.5 23.5
t-51.5 45.5t-20.5 78q0 67 56 106t153 39q93 0 144 -41t52 -114h-119q-5 60 -78 60q-75 0 -75 -46q0 -24 28.5 -36.5t69.5 -20t82.5 -20t70 -47t28.5 -91.5z" />
    <glyph glyph-name="Scaron" unicode="&#x160;" horiz-adv-x="616" 
d="M381 730h-143l-93 137h99l65 -64l65 64h99zM187 499q0 -35 29 -55.5t72 -28.5t94 -21.5t94 -31.5t72 -62.5t29 -110.5q0 -89 -75 -142t-198 -53q-128 0 -198.5 54.5t-70.5 156.5h138q0 -96 138 -96q62 0 95.5 20.5t33.5 59.5q0 32 -21.5 52t-56 30t-76 18.5t-83.5 21
t-76.5 32.5t-56 59t-21.5 94q0 88 72 142.5t189 54.5q120 0 189 -55.5t69 -153.5h-138q-1 94 -122 94t-121 -79z" />
    <glyph glyph-name="scaron" unicode="&#x161;" horiz-adv-x="491" 
d="M318 557h-135l-98 174h95l70 -89l70 89h95zM455 139q1 -68 -56.5 -106t-156.5 -38q-207 0 -209 158l117 -1q5 -62 90 -62q84 0 82 45q0 21 -20.5 34t-51.5 18.5t-67.5 15.5t-67.5 23.5t-51.5 45.5t-20.5 78q0 67 56 106t153 39q93 0 144 -41t52 -114h-119q-5 60 -78 60
q-75 0 -75 -46q0 -24 28.5 -36.5t69.5 -20t82.5 -20t70 -47t28.5 -91.5z" />
    <glyph glyph-name="uni0162" unicode="&#x162;" horiz-adv-x="593" 
d="M365 0h-39l-7 -33q36 -6 58 -26.5t22 -55.5q0 -45 -34.5 -71.5t-89.5 -26.5q-39 0 -69 13l17 72q22 -11 53 -11q45 0 45 25q0 30 -81 30l19 84h-32v569h-217v117h572v-117h-217v-569z" />
    <glyph glyph-name="uni0163" unicode="&#x163;" horiz-adv-x="397" 
d="M260 -33q36 -6 58 -26.5t22 -55.5q0 -45 -34.5 -71.5t-89.5 -26.5q-39 0 -69 13l17 72q22 -11 53 -11q45 0 45 25q0 30 -81 30l21 94q-54 20 -83 65t-29 107v199h-72v109h80v139h129v-139h146v-109h-146v-193q0 -79 87 -79q29 0 59 11l4 -112q-33 -13 -85 -13
q-18 0 -26 1z" />
    <glyph glyph-name="Tcaron" unicode="&#x164;" horiz-adv-x="593" 
d="M371 730h-143l-93 137h99l65 -64l65 64h99zM227 0v569h-217v117h572v-117h-217v-569h-138z" />
    <glyph glyph-name="tcaron" unicode="&#x165;" horiz-adv-x="397" 
d="M333 625q-33 0 -52 19.5t-19 49.5q0 31 20 50t50 19q71 -2 71 -96q0 -66 -40 -107t-89 -40v56q22 0 40.5 14t18.5 35zM314 109q29 0 59 11l4 -112q-33 -13 -85 -13q-96 0 -149 51t-53 136v199h-72v109h80v139h129v-139h146v-109h-146v-193q0 -79 87 -79z" />
    <glyph glyph-name="Tbar" unicode="&#x166;" horiz-adv-x="605" 
d="M588 569h-217v-180h130v-89h-130v-300h-138v300h-129v89h129v180h-217v117h572v-117z" />
    <glyph glyph-name="tbar" unicode="&#x167;" horiz-adv-x="399" 
d="M374 120l4 -112q-33 -13 -85 -13q-96 0 -149 51t-53 136v45h-62v79h62v75h-72v109h80v139h129v-139h146v-109h-146v-75h133v-79h-133v-39q0 -79 87 -79q29 0 59 11z" />
    <glyph glyph-name="Utilde" unicode="&#x168;" horiz-adv-x="713" 
d="M301 781q-38 0 -38 -39h-91q0 137 115 137q38 0 76.5 -20.5t52.5 -20.5q16 0 25.5 10.5t9.5 29.5h90q0 -68 -28.5 -102.5t-79.5 -34.5q-39 0 -79 20t-53 20zM505 686h138v-413q0 -130 -77 -204.5t-209 -74.5q-136 0 -211.5 74t-75.5 205v413h138v-413q0 -78 38.5 -119
t110.5 -41t110 41t38 119v413z" />
    <glyph glyph-name="utilde" unicode="&#x169;" horiz-adv-x="566" 
d="M213 618q-38 0 -39 -43h-90q0 140 112 140q41 0 79.5 -22t55.5 -22q38 0 38 43h90q0 -69 -29 -104.5t-82 -35.5q-39 0 -78.5 22t-56.5 22zM368 490h137v-490h-132l-4 72q-47 -77 -144 -77q-81 0 -125 50.5t-44 129.5v315h138v-283q0 -43 21.5 -68t62.5 -25
q39 0 64.5 28.5t25.5 73.5v274z" />
    <glyph glyph-name="Umacron" unicode="&#x16a;" horiz-adv-x="713" 
d="M203 752v95h310v-95h-310zM505 686h138v-413q0 -130 -77 -204.5t-209 -74.5q-136 0 -211.5 74t-75.5 205v413h138v-413q0 -78 38.5 -119t110.5 -41t110 41t38 119v413z" />
    <glyph glyph-name="umacron" unicode="&#x16b;" horiz-adv-x="566" 
d="M437 692v-95h-309v95h309zM368 490h137v-490h-132l-4 72q-47 -77 -144 -77q-81 0 -125 50.5t-44 129.5v315h138v-283q0 -43 21.5 -68t62.5 -25q39 0 64.5 28.5t25.5 73.5v274z" />
    <glyph glyph-name="Ubreve" unicode="&#x16c;" horiz-adv-x="713" 
d="M509 868q0 -59 -41.5 -99.5t-109.5 -40.5q-69 0 -110.5 40.5t-41.5 99.5h99q0 -25 13.5 -39.5t38.5 -14.5t38 14.5t13 39.5h101zM505 686h138v-413q0 -130 -77 -204.5t-209 -74.5q-136 0 -211.5 74t-75.5 205v413h138v-413q0 -78 38.5 -119t110.5 -41t110 41t38 119v413z
" />
    <glyph glyph-name="ubreve" unicode="&#x16d;" horiz-adv-x="566" 
d="M281 554q-72 0 -114.5 46.5t-42.5 127.5h101q0 -80 55 -80q27 0 40.5 18.5t13.5 61.5h102q0 -81 -41.5 -127.5t-113.5 -46.5zM368 490h137v-490h-132l-4 72q-47 -77 -144 -77q-81 0 -125 50.5t-44 129.5v315h138v-283q0 -43 21.5 -68t62.5 -25q39 0 64.5 28.5t25.5 73.5
v274z" />
    <glyph glyph-name="Uring" unicode="&#x16e;" horiz-adv-x="713" 
d="M357 715q-43 0 -73.5 27t-30.5 71t30.5 71.5t73.5 27.5t73 -27.5t30 -71.5t-30 -71t-73 -27zM357 779q15 0 24.5 9.5t9.5 24.5t-9.5 24t-24.5 9q-16 0 -25.5 -9t-9.5 -24t9.5 -24.5t25.5 -9.5zM505 686h138v-413q0 -130 -77 -204.5t-209 -74.5q-136 0 -211.5 74
t-75.5 205v413h138v-413q0 -78 38.5 -119t110.5 -41t110 41t38 119v413z" />
    <glyph glyph-name="uring" unicode="&#x16f;" horiz-adv-x="566" 
d="M281 545q-43 0 -73.5 27t-30.5 71t30.5 71.5t73.5 27.5t73 -27.5t30 -71.5t-30 -71t-73 -27zM281 676q-16 0 -25.5 -9t-9.5 -24t9.5 -24.5t25.5 -9.5q15 0 25 9.5t10 24.5q0 14 -9.5 23.5t-25.5 9.5zM368 490h137v-490h-132l-4 72q-47 -77 -144 -77q-81 0 -125 50.5
t-44 129.5v315h138v-283q0 -43 21.5 -68t62.5 -25q39 0 64.5 28.5t25.5 73.5v274z" />
    <glyph glyph-name="Uhungarumlaut" unicode="&#x170;" horiz-adv-x="713" 
d="M286 730h-104l56 138h155zM476 730h-104l55 138h156zM505 686h138v-413q0 -130 -77 -204.5t-209 -74.5q-136 0 -211.5 74t-75.5 205v413h138v-413q0 -78 38.5 -119t110.5 -41t110 41t38 119v413z" />
    <glyph glyph-name="uhungarumlaut" unicode="&#x171;" horiz-adv-x="566" 
d="M312 731l-100 -174h-113l46 174h167zM420 557h-112l45 174h167zM368 216v274h137v-490h-132l-4 72q-47 -77 -144 -77q-81 0 -125 50.5t-44 129.5v315h138v-283q0 -43 21.5 -68t62.5 -25q39 0 64.5 28.5t25.5 73.5z" />
    <glyph glyph-name="Uogonek" unicode="&#x172;" horiz-adv-x="713" 
d="M505 686h138v-413q0 -100 -46 -167.5t-129 -94.5l1 -1q-3 -1 -8 -4t-17.5 -12.5t-22 -20t-17.5 -26.5t-8 -33q0 -42 41 -42q33 0 53 20l34 -60q-35 -37 -100 -37q-52 0 -81.5 27.5t-29.5 74.5q0 52 39 97q-134 1 -208 75t-74 204v413h138v-413q0 -78 38.5 -119t110.5 -41
t110 41t38 119v413z" />
    <glyph glyph-name="uogonek" unicode="&#x173;" horiz-adv-x="566" 
d="M526 -118l34 -60q-35 -37 -100 -37q-52 0 -81.5 27.5t-29.5 74.5q0 65 56 113h-32l-4 72q-47 -77 -144 -77q-81 0 -125 50.5t-44 129.5v315h138v-283q0 -43 21.5 -68t62.5 -25q39 0 64.5 28.5t25.5 73.5v274h137v-490q-3 -1 -8 -4t-17.5 -12.5t-22 -20t-17.5 -26.5
t-8 -33q0 -42 41 -42q33 0 53 20z" />
    <glyph glyph-name="Wcircumflex" unicode="&#x174;" horiz-adv-x="962" 
d="M482 795l-65 -65h-99l93 137h143l92 -137h-99zM815 686h136l-189 -686h-156l-125 524l-126 -524h-156l-189 686h137l133 -555l128 555h146l128 -555z" />
    <glyph glyph-name="wcircumflex" unicode="&#x175;" horiz-adv-x="774" 
d="M387 647l-70 -89h-95l97 174h135l97 -174h-94zM619 490h143l-139 -490h-157l-68 258q-10 48 -10 53h-3q-3 -29 -9 -53l-68 -258h-157l-139 490h143l67 -296q12 -60 12 -64h3q2 11 14 64l74 296h123l75 -296q12 -53 14 -64h3q2 16 12 64z" />
    <glyph glyph-name="Ycircumflex" unicode="&#x176;" horiz-adv-x="621" 
d="M311 795l-65 -65h-99l93 137h143l92 -137h-99zM618 686l-239 -425v-261h-138v263l-239 423h147l162 -298l161 298h146z" />
    <glyph glyph-name="ycircumflex" unicode="&#x177;" horiz-adv-x="522" 
d="M260 647l-70 -89h-95l97 174h135l97 -174h-94zM376 490h139l-179 -490l-11 -29q-35 -97 -81 -137.5t-127 -40.5q-50 0 -80 10l8 114q23 -10 47 -10q77 0 97 67l5 16l-186 500h148l96 -306q5 -17 13 -56h3q6 35 12 56z" />
    <glyph glyph-name="Ydieresis" unicode="&#x178;" horiz-adv-x="621" 
d="M211 737q-33 0 -53 19.5t-20 51.5t20 51.5t53 19.5t53 -19.5t20 -51.5t-20 -51.5t-53 -19.5zM413 737q-33 0 -53 19.5t-20 51.5t20 51.5t53 19.5t53 -19.5t20 -51.5t-20 -51.5t-53 -19.5zM618 686l-239 -425v-261h-138v263l-239 423h147l162 -298l161 298h146z" />
    <glyph glyph-name="Zacute" unicode="&#x179;" horiz-adv-x="614" 
d="M462 867l-100 -137h-127l46 137h181zM202 116h374v-116h-541v113l372 456h-362v117h529v-113z" />
    <glyph glyph-name="zacute" unicode="&#x17a;" horiz-adv-x="482" 
d="M389 731l-96 -174h-109l45 174h160zM203 109h244v-109h-413v100l243 281h-235v109h399v-99z" />
    <glyph glyph-name="Zdotaccent" unicode="&#x17b;" horiz-adv-x="614" 
d="M298 728q-38 0 -62 23t-24 60t24 60t62 23q39 0 62.5 -23t23.5 -60t-23.5 -60t-62.5 -23zM202 116h374v-116h-541v113l372 456h-362v117h529v-113z" />
    <glyph glyph-name="zdotaccent" unicode="&#x17c;" horiz-adv-x="482" 
d="M247 566q-38 0 -62 23t-24 60t24 60t62 23q39 0 62.5 -23t23.5 -60t-23.5 -60t-62.5 -23zM203 109h244v-109h-413v100l243 281h-235v109h399v-99z" />
    <glyph glyph-name="Zcaron" unicode="&#x17d;" horiz-adv-x="614" 
d="M372 730h-143l-93 137h99l65 -64l65 64h99zM202 116h374v-116h-541v113l372 456h-362v117h529v-113z" />
    <glyph glyph-name="zcaron" unicode="&#x17e;" horiz-adv-x="482" 
d="M314 558h-135l-98 174h95l70 -89l70 89h95zM203 109h244v-109h-413v100l243 281h-235v109h399v-99z" />
    <glyph glyph-name="uni018F" unicode="&#x18f;" horiz-adv-x="719" 
d="M354 693q152 0 238 -92.5t86 -253.5q0 -160 -90 -256.5t-236 -96.5q-153 0 -234 93.5t-81 258.5v25h500q-6 101 -55 151.5t-127 50.5q-67 0 -109.5 -31.5t-56.5 -78.5h-139q18 98 96.5 164t207.5 66zM354 114q65 0 112 38.5t64 114.5h-353q14 -77 60 -115t117 -38z" />
    <glyph glyph-name="uni019D" unicode="&#x19d;" horiz-adv-x="734" 
d="M521 686h135v-686h-130l-313 478v-493q0 -87 -51.5 -139.5t-139.5 -52.5q-50 0 -80 10l8 114q23 -10 47 -10q38 0 59.5 21t21.5 58v700h129l314 -480v480z" />
    <glyph glyph-name="Gcaron" unicode="&#x1e6;" horiz-adv-x="734" 
d="M443 730h-143l-93 137h99l65 -64l65 64h99zM380 360h301v-360h-99v102q-70 -108 -221 -108q-146 0 -233.5 95.5t-87.5 255.5q0 156 91.5 252t244.5 96q134 0 211 -68t88 -179h-136q-10 55 -50 91t-113 36q-90 0 -143.5 -61.5t-53.5 -167.5q0 -108 51 -169t139 -61
q76 0 124 40.5t59 99.5h-172v106z" />
    <glyph glyph-name="gcaron" unicode="&#x1e7;" horiz-adv-x="596" 
d="M376 557h-135l-98 174h95l70 -89l70 89h95zM403 490h132v-490q0 -92 -67 -152t-184 -60q-102 0 -163 40.5t-69 121.5h129q11 -58 103 -58q55 0 84.5 29t29.5 74v76q-45 -75 -147 -75q-97 0 -156.5 69.5t-59.5 178.5q0 116 63.5 183.5t157.5 67.5q101 0 143 -68zM283 111
q51 0 83 36.5t32 83.5v29q0 46 -31.5 83t-83.5 37q-48 0 -78.5 -37.5t-30.5 -98.5q0 -60 30.5 -96.5t78.5 -36.5z" />
    <glyph glyph-name="uni01EA" unicode="&#x1ea;" horiz-adv-x="763" 
d="M724 345q0 -129 -64.5 -217.5t-172.5 -119.5q-3 -1 -8 -4t-17.5 -12.5t-22 -20t-17.5 -26.5t-8 -33q0 -42 41 -42q33 0 53 20l34 -60q-35 -37 -100 -37q-52 0 -81.5 27.5t-29.5 74.5q0 54 41 99q-146 3 -239.5 97.5t-93.5 250.5q0 159 96.5 255t246.5 96t246 -94.5
t96 -253.5zM382 113q87 0 144.5 62t57.5 168t-57.5 168t-144.5 62t-145 -62t-58 -168t58 -168t145 -62z" />
    <glyph glyph-name="uni01EB" unicode="&#x1eb;" horiz-adv-x="573" 
d="M385 12q-8 -4 -16.5 -10.5t-22.5 -18.5t-23 -29.5t-9 -36.5q0 -42 41 -42q33 0 53 20l34 -60q-35 -37 -100 -37q-52 0 -81.5 27.5t-29.5 74.5q0 53 38 95q-106 6 -170 73.5t-64 173.5q0 112 69.5 182.5t181.5 70.5q114 0 183 -68.5t69 -179.5q0 -84 -41 -146.5
t-112 -88.5zM173 244q0 -61 31 -98.5t82 -37.5q52 0 82.5 37.5t30.5 98.5q0 63 -30.5 100.5t-82.5 37.5q-51 0 -82 -38t-31 -100z" />
    <glyph glyph-name="Aringacute" unicode="&#x1fa;" horiz-adv-x="661" 
d="M518 0l-49 149h-277l-49 -149h-138l242 677q-20 25 -20 60q0 44 30.5 71.5t73.5 27.5q44 0 74 -28l30 60h100l-101 -137q-1 -29 -20 -54l242 -677h-138zM331 770q-16 0 -25.5 -9t-9.5 -24t9.5 -24.5t25.5 -9.5q15 0 24.5 9.5t9.5 24.5t-9.5 24t-24.5 9zM229 258h203
l-101 306z" />
    <glyph glyph-name="aringacute" unicode="&#x1fb;" horiz-adv-x="554" 
d="M274 545q-43 0 -73.5 27t-30.5 71t30.5 71.5t73.5 27.5q40 0 70 -25l40 89h102l-109 -171q-4 -41 -33.5 -65.5t-69.5 -24.5zM274 676q-16 0 -25.5 -9t-9.5 -24t9.5 -24.5t25.5 -9.5q26 0 33 23h-1l3 6v5q0 14 -9.5 23.5t-25.5 9.5zM532 113l8 -108q-32 -10 -70 -10
q-86 0 -111 79h-1q-42 -79 -161 -79q-80 0 -123 36t-43 98q0 83 71.5 119t185.5 36h63v22q0 39 -24 62t-69 23q-39 0 -62.5 -18t-27.5 -50h-124q6 82 65 127t156 45q106 0 162.5 -52.5t56.5 -146.5v-158q0 -30 23 -30q11 0 25 5zM235 95q51 0 83.5 25.5t32.5 57.5v31h-71
q-116 0 -116 -64q0 -50 71 -50z" />
    <glyph glyph-name="AEacute" unicode="&#x1fc;" horiz-adv-x="1006" 
d="M671 867l-100 -137h-127l46 137h181zM615 121h346v-121h-484v149h-252l-90 -149h-148l409 686h560v-121h-341v-157h303v-116h-303v-171zM290 258h187v309h-1z" />
    <glyph glyph-name="aeacute" unicode="&#x1fd;" horiz-adv-x="857" 
d="M580 731l-96 -174h-109l45 174h160zM822 241v-26h-343q8 -55 39 -84t78 -29q79 0 97 60h128q-13 -72 -69 -119.5t-158 -47.5q-123 0 -193 88q-72 -88 -204 -88q-79 0 -122.5 36t-43.5 98q0 155 277 155h41v22q0 39 -23.5 62t-68.5 23q-35 0 -58.5 -18t-28.5 -50h-125
q7 82 65 127t152 45q112 0 168 -58q67 58 162 58q108 0 169 -69.5t61 -184.5zM592 393q-41 0 -71.5 -25t-39.5 -74h213q-13 99 -102 99zM235 97q50 0 85 24.5t37 54.5q-5 16 -6 33h-49q-138 0 -138 -64q0 -48 71 -48z" />
    <glyph glyph-name="Oslashacute" unicode="&#x1fe;" horiz-adv-x="763" 
d="M524 857l-100 -137h-127l46 137h181zM613 612q111 -97 111 -267q0 -159 -96 -255t-246 -96q-73 0 -139 25l-41 -65h-115l71 114q-119 96 -119 274q0 159 96.5 255t246.5 96q81 0 148 -29l33 52h115zM179 343q0 -98 51 -160l233 373q-39 17 -81 17q-87 0 -145 -62
t-58 -168zM382 113q87 0 144.5 62t57.5 168q0 88 -44 152l-231 -369q33 -13 73 -13z" />
    <glyph glyph-name="oslashacute" unicode="&#x1ff;" horiz-adv-x="573" 
d="M431 731l-96 -174h-109l45 174h160zM449 444q89 -70 89 -197q0 -111 -69.5 -181.5t-182.5 -70.5q-59 0 -104 19l-27 -44h-81l48 77q-87 70 -87 195q0 112 69.5 182.5t181.5 70.5q60 0 105 -19l24 39h78zM173 244q0 -49 20 -83l134 214q-21 7 -41 7q-51 0 -82 -38
t-31 -100zM286 108q52 0 82.5 37.5t30.5 98.5q0 52 -21 86l-133 -215q23 -7 41 -7z" />
    <glyph glyph-name="Scommaaccent" unicode="&#x218;" horiz-adv-x="616" 
d="M187 499q0 -35 29 -55.5t72 -28.5t94 -21.5t94 -31.5t72 -62.5t29 -110.5q0 -89 -75 -142t-198 -53q-128 0 -198.5 54.5t-70.5 156.5h138q0 -96 138 -96q62 0 95.5 20.5t33.5 59.5q0 32 -21.5 52t-56 30t-76 18.5t-83.5 21t-76.5 32.5t-56 59t-21.5 94q0 88 72 142.5
t189 54.5q120 0 189 -55.5t69 -153.5h-138q-1 94 -122 94t-121 -79zM318 -42q71 0 71 -94q0 -76 -40 -122.5t-89 -44.5v56q22 0 40.5 19t18.5 49q-32 0 -51.5 19t-19.5 49q0 31 20 50t50 19z" />
    <glyph glyph-name="scommaaccent" unicode="&#x219;" horiz-adv-x="491" 
d="M455 139q1 -68 -56.5 -106t-156.5 -38q-207 0 -209 158l117 -1q5 -62 90 -62q84 0 82 45q0 21 -20.5 34t-51.5 18.5t-67.5 15.5t-67.5 23.5t-51.5 45.5t-20.5 78q0 67 56 106t153 39q93 0 144 -41t52 -114h-119q-5 60 -78 60q-75 0 -75 -46q0 -24 28.5 -36.5t69.5 -20
t82.5 -20t70 -47t28.5 -91.5zM258 -42q71 0 71 -94q0 -76 -40 -122.5t-89 -44.5v56q22 0 40.5 19t18.5 49q-32 0 -51.5 19t-19.5 49q0 31 20 50t50 19z" />
    <glyph glyph-name="uni021A" unicode="&#x21a;" horiz-adv-x="593" 
d="M227 0v569h-217v117h572v-117h-217v-569h-138zM233 -247q22 0 40.5 19t18.5 49q-32 0 -51.5 19t-19.5 49q0 31 20 50t50 19q71 0 71 -94q0 -76 -40 -122.5t-89 -44.5v56z" />
    <glyph glyph-name="uni021B" unicode="&#x21b;" horiz-adv-x="397" 
d="M377 8q-33 -13 -85 -13q-96 0 -149 51t-53 136v199h-72v109h80v139h129v-139h146v-109h-146v-193q0 -79 87 -79q29 0 59 11zM245 -42q71 0 71 -94q0 -76 -40 -122.5t-89 -44.5v56q22 0 40.5 19t18.5 49q-32 0 -51.5 19t-19.5 49q0 31 20 50t50 19z" />
    <glyph glyph-name="uni0232" unicode="&#x232;" horiz-adv-x="621" 
d="M468 847v-95h-310v95h310zM618 686l-239 -425v-261h-138v263l-239 423h147l162 -298l161 298h146z" />
    <glyph glyph-name="uni0233" unicode="&#x233;" horiz-adv-x="522" 
d="M416 692v-95h-309v95h309zM376 490h139l-179 -490l-11 -29q-35 -97 -81 -137.5t-127 -40.5q-50 0 -80 10l8 114q23 -10 47 -10q77 0 97 67l5 16l-186 500h148l96 -306q5 -17 13 -56h3q6 35 12 56z" />
    <glyph glyph-name="uni0237" unicode="&#x237;" horiz-adv-x="268" 
d="M13 -207q-49 0 -81 10l9 114q23 -10 47 -10q39 0 60 21.5t21 61.5v500h137v-505q0 -87 -52.5 -139.5t-140.5 -52.5z" />
    <glyph glyph-name="uni0259" unicode="&#x259;" horiz-adv-x="547" 
d="M271 495q110 0 175.5 -69.5t65.5 -179.5q0 -111 -69 -181t-176 -70q-111 0 -171.5 67.5t-60.5 185.5v26h344q-13 114 -112 114q-76 0 -102 -60h-128q13 70 73 118.5t161 48.5zM268 97q91 0 109 98h-215q14 -98 106 -98z" />
    <glyph glyph-name="uni0272" unicode="&#x272;" horiz-adv-x="577" 
d="M350 495q81 0 126 -51.5t45 -136.5v-307h-137v276q0 47 -22 73.5t-65 26.5q-45 0 -72 -28t-27 -74v-289q0 -86 -50.5 -139t-129.5 -53q-49 0 -81 10l8 114q25 -10 47 -10q30 0 49.5 22t19.5 61v500h132l4 -72q49 77 153 77z" />
    <glyph glyph-name="circumflex" unicode="&#x2c6;" horiz-adv-x="380" 
d="M26 557l97 174h135l97 -174h-94l-70 89l-70 -89h-95z" />
    <glyph glyph-name="caron" unicode="&#x2c7;" horiz-adv-x="359" 
d="M19 731h95l70 -89l70 89h95l-97 -174h-135z" />
    <glyph glyph-name="breve" unicode="&#x2d8;" horiz-adv-x="351" 
d="M332 728q0 -81 -41.5 -127.5t-113.5 -46.5t-114.5 46.5t-42.5 127.5h101q0 -80 55 -80q27 0 40.5 18.5t13.5 61.5h102z" />
    <glyph glyph-name="dotaccent" unicode="&#x2d9;" horiz-adv-x="231" 
d="M118 732q39 0 62.5 -23t23.5 -60t-23.5 -60t-62.5 -23q-38 0 -62 23t-24 60t24 60t62 23z" />
    <glyph glyph-name="ring" unicode="&#x2da;" horiz-adv-x="281" 
d="M139 545q-43 0 -73.5 27t-30.5 71t30.5 71.5t73.5 27.5t73 -27.5t30 -71.5t-30 -71t-73 -27zM139 609q15 0 25 9.5t10 24.5q0 14 -9.5 23.5t-25.5 9.5t-25.5 -9t-9.5 -24t9.5 -24.5t25.5 -9.5z" />
    <glyph glyph-name="ogonek" unicode="&#x2db;" horiz-adv-x="280" 
d="M244 -178q-35 -37 -100 -37q-52 0 -81.5 27.5t-29.5 74.5q0 30 12.5 56.5t29.5 43.5t34.5 29t30.5 18l12 5l37 -39q-3 -1 -8 -4t-17.5 -12.5t-22 -20t-17.5 -26.5t-8 -33q0 -42 41 -42q33 0 53 20z" />
    <glyph glyph-name="tilde" unicode="&#x2dc;" horiz-adv-x="437" 
d="M159 618q-38 0 -39 -43h-90q0 140 112 140q41 0 79.5 -22t55.5 -22q38 0 38 43h90q0 -69 -29 -104.5t-82 -35.5q-39 0 -78.5 22t-56.5 22z" />
    <glyph glyph-name="hungarumlaut" unicode="&#x2dd;" horiz-adv-x="507" 
d="M153 557h-113l46 174h167zM361 557h-112l45 174h167z" />
    <glyph glyph-name="gravecomb" unicode="&#x300;" 
d="M-152 557l-96 174h160l45 -174h-109z" />
    <glyph glyph-name="acutecomb" unicode="&#x301;" 
d="M-139 557h-109l45 174h160z" />
    <glyph glyph-name="uni0302" unicode="&#x302;" 
d="M-356 557l97 174h135l97 -174h-94l-70 89l-70 -89h-95z" />
    <glyph glyph-name="tildecomb" unicode="&#x303;" 
d="M-278 618q-38 0 -39 -43h-90q0 140 112 140q41 0 79.5 -22t55.5 -22q38 0 38 43h90q0 -69 -29 -104.5t-82 -35.5q-39 0 -78.5 22t-56.5 22z" />
    <glyph glyph-name="uni0304" unicode="&#x304;" 
d="M-360 597v95h309v-95h-309z" />
    <glyph glyph-name="uni0306" unicode="&#x306;" 
d="M-20 728q0 -81 -41.5 -127.5t-113.5 -46.5t-114.5 46.5t-42.5 127.5h101q0 -80 55 -80q27 0 40.5 18.5t13.5 61.5h102z" />
    <glyph glyph-name="uni0307" unicode="&#x307;" 
d="M-119 732q39 0 62.5 -23t23.5 -60t-23.5 -60t-62.5 -23q-38 0 -62 23t-24 60t24 60t62 23z" />
    <glyph glyph-name="uni0308" unicode="&#x308;" 
d="M-306 715q34 0 54 -19.5t20 -51.5q0 -31 -20.5 -50.5t-53.5 -19.5t-53 19.5t-20 50.5q0 32 20 51.5t53 19.5zM-104 715q34 0 54 -19.5t20 -51.5q0 -31 -20.5 -50.5t-53.5 -19.5q-32 0 -52.5 19.5t-20.5 50.5t20.5 51t52.5 20z" />
    <glyph glyph-name="uni030A" unicode="&#x30a;" 
d="M-139 545q-43 0 -73.5 27t-30.5 71t30.5 71.5t73.5 27.5t73 -27.5t30 -71.5t-30 -71t-73 -27zM-139 609q15 0 25 9.5t10 24.5q0 14 -9.5 23.5t-25.5 9.5t-25.5 -9t-9.5 -24t9.5 -24.5t25.5 -9.5z" />
    <glyph glyph-name="uni030B" unicode="&#x30b;" 
d="M-343 557h-113l46 174h167zM-135 557h-112l45 174h167z" />
    <glyph glyph-name="uni030C" unicode="&#x30c;" 
d="M-349 731h95l70 -89l70 89h95l-97 -174h-135z" />
    <glyph glyph-name="dotbelowcomb" unicode="&#x323;" 
d="M-119 -50q39 0 62.5 -23t23.5 -60q0 -36 -23.5 -59.5t-62.5 -23.5q-38 0 -62 23.5t-24 59.5q0 37 24 60t62 23z" />
    <glyph glyph-name="uni0326" unicode="&#x326;" 
d="M-171 -247q22 0 40.5 19t18.5 49q-32 0 -51.5 19t-19.5 49q0 31 20 50t50 19q71 0 71 -94q0 -76 -40 -122.5t-89 -44.5v56z" />
    <glyph glyph-name="uni0327" unicode="&#x327;" 
d="M-208 -128q22 -11 53 -11q45 0 45 25q0 30 -81 30l23 103h67l-11 -52q36 -6 58 -26.5t22 -55.5q0 -45 -34.5 -71.5t-89.5 -26.5q-39 0 -69 13z" />
    <glyph glyph-name="uni0328" unicode="&#x328;" 
d="M-36 -178q-35 -37 -100 -37q-52 0 -81.5 27.5t-29.5 74.5q0 30 12.5 56.5t29.5 43.5t34.5 29t30.5 18l12 5l37 -39q-3 -1 -8 -4t-17.5 -12.5t-22 -20t-17.5 -26.5t-8 -33q0 -42 41 -42q33 0 53 20z" />
    <glyph glyph-name="uni0335" unicode="&#x335;" 
d="M-368 242h332v-79h-332v79z" />
    <glyph glyph-name="uni0336" unicode="&#x336;" 
d="M-417 252h397v-89h-397v89z" />
    <glyph glyph-name="uni0337" unicode="&#x337;" 
d="M-361 356l300 175l39 -69l-301 -176z" />
    <glyph glyph-name="uni0338" unicode="&#x338;" 
d="M-150 524h78l-338 -545h-81z" />
    <glyph glyph-name="Wgrave" unicode="&#x1e80;" horiz-adv-x="962" 
d="M541 730h-126l-101 137h179zM815 686h136l-189 -686h-156l-125 524l-126 -524h-156l-189 686h137l133 -555l128 555h146l128 -555z" />
    <glyph glyph-name="wgrave" unicode="&#x1e81;" horiz-adv-x="774" 
d="M446 557h-109l-96 174h160zM619 490h143l-139 -490h-157l-68 258q-10 48 -10 53h-3q-3 -29 -9 -53l-68 -258h-157l-139 490h143l67 -296q12 -60 12 -64h3q2 11 14 64l74 296h123l75 -296q12 -53 14 -64h3q2 16 12 64z" />
    <glyph glyph-name="Wacute" unicode="&#x1e82;" horiz-adv-x="962" 
d="M645 867l-100 -137h-127l46 137h181zM815 686h136l-189 -686h-156l-125 524l-126 -524h-156l-189 686h137l133 -555l128 555h146l128 -555z" />
    <glyph glyph-name="wacute" unicode="&#x1e83;" horiz-adv-x="774" 
d="M529 731l-96 -174h-109l45 174h160zM619 490h143l-139 -490h-157l-68 258q-10 48 -10 53h-3q-3 -29 -9 -53l-68 -258h-157l-139 490h143l67 -296q12 -60 12 -64h3q2 11 14 64l74 296h123l75 -296q12 -53 14 -64h3q2 16 12 64z" />
    <glyph glyph-name="Wdieresis" unicode="&#x1e84;" horiz-adv-x="962" 
d="M382 737q-33 0 -53 19.5t-20 51.5t20 51.5t53 19.5t53 -19.5t20 -51.5t-20 -51.5t-53 -19.5zM584 737q-33 0 -53 19.5t-20 51.5t20 51.5t53 19.5t53 -19.5t20 -51.5t-20 -51.5t-53 -19.5zM815 686h136l-189 -686h-156l-125 524l-126 -524h-156l-189 686h137l133 -555
l128 555h146l128 -555z" />
    <glyph glyph-name="wdieresis" unicode="&#x1e85;" horiz-adv-x="774" 
d="M289 574q-33 0 -53 19.5t-20 50.5q0 32 20 51.5t53 19.5q34 0 54 -19.5t20 -51.5q0 -31 -20.5 -50.5t-53.5 -19.5zM491 574q-32 0 -52.5 19.5t-20.5 50.5t20.5 51t52.5 20q34 0 54 -19.5t20 -51.5q0 -31 -20.5 -50.5t-53.5 -19.5zM619 490h143l-139 -490h-157l-68 258
q-10 48 -10 53h-3q-3 -29 -9 -53l-68 -258h-157l-139 490h143l67 -296q12 -60 12 -64h3q2 11 14 64l74 296h123l75 -296q12 -53 14 -64h3q2 16 12 64z" />
    <glyph glyph-name="uni1E9E" unicode="&#x1e9e;" horiz-adv-x="677" 
d="M484 388q73 -18 114 -66t41 -118q0 -92 -66 -148t-180 -56h-64v108h64q50 0 78 25t28 71q0 45 -28.5 72.5t-77.5 27.5h-44v95l94 172h-150q-82 0 -82 -83v-488h-138v492q0 84 54 139t146 55h331v-88z" />
    <glyph glyph-name="uni1EA0" unicode="&#x1ea0;" horiz-adv-x="661" 
d="M656 0h-138l-49 149h-277l-49 -149h-138l245 686h161zM229 258h203l-101 306zM332 -50q39 0 62.5 -23t23.5 -60q0 -36 -23.5 -59.5t-62.5 -23.5q-38 0 -62 23.5t-24 59.5q0 37 24 60t62 23z" />
    <glyph glyph-name="uni1EA1" unicode="&#x1ea1;" horiz-adv-x="554" 
d="M532 113l8 -108q-32 -10 -70 -10q-86 0 -111 79h-1q-42 -79 -161 -79q-80 0 -123 36t-43 98q0 83 71.5 119t185.5 36h63v22q0 39 -24 62t-69 23q-39 0 -62.5 -18t-27.5 -50h-124q6 82 65 127t156 45q106 0 162.5 -52.5t56.5 -146.5v-158q0 -30 23 -30q11 0 25 5zM235 95
q51 0 83.5 25.5t32.5 57.5v31h-71q-116 0 -116 -64q0 -50 71 -50zM270 -50q39 0 62.5 -23t23.5 -60q0 -36 -23.5 -59.5t-62.5 -23.5q-38 0 -62 23.5t-24 59.5q0 37 24 60t62 23z" />
    <glyph glyph-name="uni1EB8" unicode="&#x1eb8;" horiz-adv-x="606" 
d="M216 115h346v-115h-484v686h478v-116h-340v-164h302v-112h-302v-179zM328 -50q39 0 62.5 -23t23.5 -60q0 -36 -23.5 -59.5t-62.5 -23.5q-38 0 -62 23.5t-24 59.5q0 37 24 60t62 23z" />
    <glyph glyph-name="uni1EB9" unicode="&#x1eb9;" horiz-adv-x="547" 
d="M512 241v-26h-345q7 -55 38 -84t80 -29q80 0 98 60h127q-13 -71 -71 -119t-161 -48q-111 0 -177 69t-66 180t69 181t176 70q110 0 171 -69.5t61 -184.5zM281 393q-43 0 -73 -25t-39 -74h215q-13 99 -103 99zM282 -50q39 0 62.5 -23t23.5 -60q0 -36 -23.5 -59.5
t-62.5 -23.5q-38 0 -62 23.5t-24 59.5q0 37 24 60t62 23z" />
    <glyph glyph-name="uni1EBC" unicode="&#x1ebc;" horiz-adv-x="606" 
d="M261 781q-38 0 -38 -39h-91q0 137 115 137q38 0 76.5 -20.5t52.5 -20.5q16 0 25.5 10.5t9.5 29.5h90q0 -68 -28.5 -102.5t-79.5 -34.5q-39 0 -79 20t-53 20zM216 115h346v-115h-484v686h478v-116h-340v-164h302v-112h-302v-179z" />
    <glyph glyph-name="uni1EBD" unicode="&#x1ebd;" horiz-adv-x="547" 
d="M211 618q-38 0 -39 -43h-90q0 140 112 140q41 0 79.5 -22t55.5 -22q38 0 38 43h90q0 -69 -29 -104.5t-82 -35.5q-39 0 -78.5 22t-56.5 22zM512 241v-26h-345q7 -55 38 -84t80 -29q80 0 98 60h127q-13 -71 -71 -119t-161 -48q-111 0 -177 69t-66 180t69 181t176 70
q110 0 171 -69.5t61 -184.5zM281 393q-43 0 -73 -25t-39 -74h215q-13 99 -103 99z" />
    <glyph glyph-name="uni1ECA" unicode="&#x1eca;" horiz-adv-x="293" 
d="M78 0v686h138v-686h-138zM146 -50q39 0 62.5 -23t23.5 -60q0 -36 -23.5 -59.5t-62.5 -23.5q-38 0 -62 23.5t-24 59.5q0 37 24 60t62 23z" />
    <glyph glyph-name="uni1ECB" unicode="&#x1ecb;" horiz-adv-x="260" 
d="M131 731q39 0 62.5 -23t23.5 -60t-23.5 -60t-62.5 -23q-38 0 -62 23t-24 60t24 60t62 23zM61 0v490h138v-490h-138zM130 -50q39 0 62.5 -23t23.5 -60q0 -36 -23.5 -59.5t-62.5 -23.5q-38 0 -62 23.5t-24 59.5q0 37 24 60t62 23z" />
    <glyph glyph-name="uni1ECC" unicode="&#x1ecc;" horiz-adv-x="763" 
d="M382 -6q-150 0 -246.5 95t-96.5 253q0 159 96.5 255t246.5 96t246 -94.5t96 -253.5t-96 -255t-246 -96zM382 113q87 0 144.5 62t57.5 168t-57.5 168t-144.5 62t-145 -62t-58 -168t58 -168t145 -62zM381 -50q39 0 62.5 -23t23.5 -60q0 -36 -23.5 -59.5t-62.5 -23.5
q-38 0 -62 23.5t-24 59.5q0 37 24 60t62 23z" />
    <glyph glyph-name="uni1ECD" unicode="&#x1ecd;" horiz-adv-x="573" 
d="M286 495q114 0 183 -68.5t69 -179.5t-69.5 -181.5t-182.5 -70.5q-112 0 -181.5 68.5t-69.5 178.5q0 112 69.5 182.5t181.5 70.5zM286 382q-51 0 -82 -38t-31 -100q0 -61 31 -98.5t82 -37.5q52 0 82.5 37.5t30.5 98.5q0 63 -30.5 100.5t-82.5 37.5zM286 -50q39 0 62.5 -23
t23.5 -60q0 -36 -23.5 -59.5t-62.5 -23.5q-38 0 -62 23.5t-24 59.5q0 37 24 60t62 23z" />
    <glyph glyph-name="uni1EE4" unicode="&#x1ee4;" horiz-adv-x="713" 
d="M505 686h138v-413q0 -130 -77 -204.5t-209 -74.5q-136 0 -211.5 74t-75.5 205v413h138v-413q0 -78 38.5 -119t110.5 -41t110 41t38 119v413zM356 -50q39 0 62.5 -23t23.5 -60q0 -36 -23.5 -59.5t-62.5 -23.5q-38 0 -62 23.5t-24 59.5q0 37 24 60t62 23z" />
    <glyph glyph-name="uni1EE5" unicode="&#x1ee5;" horiz-adv-x="566" 
d="M368 490h137v-490h-132l-4 72q-47 -77 -144 -77q-81 0 -125 50.5t-44 129.5v315h138v-283q0 -43 21.5 -68t62.5 -25q39 0 64.5 28.5t25.5 73.5v274zM290 -50q39 0 62.5 -23t23.5 -60q0 -36 -23.5 -59.5t-62.5 -23.5q-38 0 -62 23.5t-24 59.5q0 37 24 60t62 23z" />
    <glyph glyph-name="Ygrave" unicode="&#x1ef2;" horiz-adv-x="621" 
d="M370 730h-126l-101 137h179zM618 686l-239 -425v-261h-138v263l-239 423h147l162 -298l161 298h146z" />
    <glyph glyph-name="ygrave" unicode="&#x1ef3;" horiz-adv-x="522" 
d="M319 557h-109l-96 174h160zM376 490h139l-179 -490l-11 -29q-35 -97 -81 -137.5t-127 -40.5q-50 0 -80 10l8 114q23 -10 47 -10q77 0 97 67l5 16l-186 500h148l96 -306q5 -17 13 -56h3q6 35 12 56z" />
    <glyph glyph-name="uni1EF8" unicode="&#x1ef8;" horiz-adv-x="621" 
d="M255 781q-38 0 -38 -39h-91q0 137 115 137q38 0 76.5 -20.5t52.5 -20.5q16 0 25.5 10.5t9.5 29.5h90q0 -68 -28.5 -102.5t-79.5 -34.5q-39 0 -79 20t-53 20zM618 686l-239 -425v-261h-138v263l-239 423h147l162 -298l161 298h146z" />
    <glyph glyph-name="uni1EF9" unicode="&#x1ef9;" horiz-adv-x="522" 
d="M192 618q-38 0 -39 -43h-90q0 140 112 140q41 0 79.5 -22t55.5 -22q38 0 38 43h90q0 -69 -29 -104.5t-82 -35.5q-39 0 -78.5 22t-56.5 22zM376 490h139l-179 -490l-11 -29q-35 -97 -81 -137.5t-127 -40.5q-50 0 -80 10l8 114q23 -10 47 -10q77 0 97 67l5 16l-186 500h148
l96 -306q5 -17 13 -56h3q6 35 12 56z" />
    <glyph glyph-name="endash" unicode="&#x2013;" horiz-adv-x="556" 
d="M56 236v105h445v-105h-445z" />
    <glyph glyph-name="emdash" unicode="&#x2014;" horiz-adv-x="817" 
d="M56 236v105h705v-105h-705z" />
    <glyph glyph-name="quoteleft" unicode="&#x2018;" horiz-adv-x="246" 
d="M195 687q-28 0 -53 -25t-25 -55q1 0 4.5 0.5t8.5 0.5q36 0 57.5 -23.5t21.5 -59.5q0 -39 -24 -61t-62 -22q-39 0 -64.5 26.5t-25.5 83.5q0 81 47.5 142t114.5 60v-67z" />
    <glyph glyph-name="quoteright" unicode="&#x2019;" horiz-adv-x="247" 
d="M55 509q28 0 53 25t25 55q-1 0 -4.5 -0.5t-8.5 -0.5q-36 0 -57.5 23.5t-21.5 59.5q0 39 24 61t62 22q39 0 64.5 -26.5t25.5 -83.5q0 -81 -47.5 -142t-114.5 -60v67z" />
    <glyph glyph-name="quotesinglbase" unicode="&#x201a;" horiz-adv-x="258" 
d="M54 -75q28 0 53 25t25 55q-1 0 -4.5 -0.5t-8.5 -0.5q-36 0 -57.5 23.5t-21.5 59.5q0 39 24 61t62 22q39 0 64.5 -26.5t25.5 -83.5q0 -81 -47.5 -142t-114.5 -60v67z" />
    <glyph glyph-name="quotedblleft" unicode="&#x201c;" horiz-adv-x="460" 
d="M195 687q-28 0 -53 -25t-25 -55q1 0 4.5 0.5t8.5 0.5q36 0 57.5 -23.5t21.5 -59.5q0 -39 -24 -61t-62 -22q-39 0 -64.5 26.5t-25.5 83.5q0 81 47.5 142t114.5 60v-67zM410 687q-28 0 -53 -25t-25 -55q1 0 4.5 0.5t8.5 0.5q36 0 57.5 -23.5t21.5 -59.5q0 -39 -24 -61
t-62 -22q-39 0 -64.5 26.5t-25.5 83.5q0 81 47.5 142t114.5 60v-67z" />
    <glyph glyph-name="quotedblright" unicode="&#x201d;" horiz-adv-x="461" 
d="M55 509q28 0 53 25t25 55q-1 0 -4.5 -0.5t-8.5 -0.5q-36 0 -57.5 23.5t-21.5 59.5q0 39 24 61t62 22q39 0 64.5 -26.5t25.5 -83.5q0 -81 -47.5 -142t-114.5 -60v67zM269 509q28 0 53 25t25 55q-1 0 -4.5 -0.5t-8.5 -0.5q-36 0 -57.5 23.5t-21.5 59.5q0 39 24 61t62 22
q39 0 64.5 -26.5t25.5 -83.5q0 -81 -47.5 -142t-114.5 -60v67z" />
    <glyph glyph-name="quotedblbase" unicode="&#x201e;" horiz-adv-x="471" 
d="M54 -90q28 0 53 25t25 55q-1 0 -4.5 -0.5t-8.5 -0.5q-36 0 -57.5 23.5t-21.5 59.5q0 39 24 61t62 22q39 0 64.5 -26.5t25.5 -83.5q0 -81 -47.5 -142t-114.5 -60v67zM268 -90q28 0 53 25t25 55q-1 0 -4.5 -0.5t-8.5 -0.5q-36 0 -57.5 23.5t-21.5 59.5q0 39 24 61t62 22
q39 0 64.5 -26.5t25.5 -83.5q0 -81 -47.5 -142t-114.5 -60v67z" />
    <glyph glyph-name="dagger" unicode="&#x2020;" horiz-adv-x="415" 
d="M367 596v-100h-106v-319h-107v319h-105v100h105v114h107v-114h106z" />
    <glyph glyph-name="daggerdbl" unicode="&#x2021;" horiz-adv-x="415" 
d="M367 496h-106v-106h106v-99h-106v-114h-107v114h-105v99h105v106h-105v100h105v114h107v-114h106v-100z" />
    <glyph glyph-name="bullet" unicode="&#x2022;" horiz-adv-x="382" 
d="M190 474q58 -1 93 -35t35 -89q0 -54 -35 -88.5t-92 -34.5t-92.5 34.5t-35.5 88.5q0 55 35 89.5t92 34.5z" />
    <glyph glyph-name="ellipsis" unicode="&#x2026;" horiz-adv-x="677" 
d="M124 160q39 0 62.5 -23t23.5 -60t-23.5 -60t-62.5 -23t-62.5 23t-23.5 60t23.5 60t62.5 23zM338 160q39 0 62.5 -23t23.5 -60t-23.5 -60t-62.5 -23t-62.5 23t-23.5 60t23.5 60t62.5 23zM552 160q39 0 62.5 -23t23.5 -60t-23.5 -60t-62.5 -23t-62.5 23t-23.5 60t23.5 60
t62.5 23z" />
    <glyph glyph-name="perthousand" unicode="&#x2030;" horiz-adv-x="1146" 
d="M553 694h104l-301 -694h-106zM380 496q0 -92 -46.5 -143t-129.5 -51t-130 51t-47 143t47 143.5t130 51.5t129.5 -51.5t46.5 -143.5zM204 399q65 0 65 97q0 98 -65 98t-65 -98q0 -97 65 -97zM943 385q83 0 129.5 -51.5t46.5 -144.5q0 -92 -46.5 -143t-129.5 -51
q-74 0 -121 42q-47 -42 -121 -42q-83 0 -129.5 51t-46.5 143q0 93 46.5 144.5t129.5 51.5q75 0 121 -43q46 43 121 43zM701 93q65 0 65 96q0 98 -65 98t-65 -98q0 -96 65 -96zM943 93q64 0 64 96q0 98 -64 98q-65 0 -65 -98q0 -96 65 -96z" />
    <glyph glyph-name="guilsinglleft" unicode="&#x2039;" horiz-adv-x="323" 
d="M27 236v11l122 159h129l-125 -164l126 -166h-130z" />
    <glyph glyph-name="guilsinglright" unicode="&#x203a;" horiz-adv-x="323" 
d="M296 236l-122 -160h-131l127 166l-126 164h130l122 -159v-11z" />
    <glyph glyph-name="fraction" unicode="&#x2044;" horiz-adv-x="194" 
d="M-110 0l303 694h104l-301 -694h-106z" />
    <glyph glyph-name="Euro" unicode="&#x20ac;" horiz-adv-x="725" 
d="M418 114q96 0 129 91h141q-24 -97 -93 -154t-181 -57q-108 0 -183.5 61t-102.5 170h-99l15 89h71q-1 9 -1 29q0 17 1 25h-86l15 89h83q26 112 102 174t185 62q111 0 181 -57.5t93 -154.5h-142q-35 92 -128 92q-108 0 -148 -116h174l-15 -89h-175v-25q0 -20 1 -29h189
l-15 -89h-157q40 -111 146 -111z" />
    <glyph glyph-name="trademark" unicode="&#x2122;" horiz-adv-x="723" 
d="M28 608v78h260v-78h-87v-211h-86v211h-87zM561 686h99v-289h-83l2 155l-61 -155h-62l-59 155l3 -155h-83v289h99l72 -179z" />
    <glyph glyph-name="oneeighth" unicode="&#x215b;" horiz-adv-x="845" 
d="M506 694h111l-304 -694h-112zM39 387h75v174h-76v75q49 0 73.5 12.5t39.5 44.5h69v-306h63v-90h-244v90zM765 212q52 -35 52 -91q0 -60 -43.5 -93t-115.5 -33q-73 0 -116 33t-43 93q0 57 51 90q-38 33 -38 77q0 56 42 87t104 31t103.5 -31t41.5 -87q0 -45 -38 -76z
M658 324q-20 0 -33.5 -10.5t-13.5 -28.5t13.5 -28.5t33.5 -10.5q21 0 34 10.5t13 28.5q0 17 -13.5 28t-33.5 11zM658 78q26 0 41 12t15 33q0 20 -15.5 32.5t-40.5 12.5t-40.5 -12.5t-15.5 -32.5q0 -22 15.5 -33.5t40.5 -11.5z" />
    <glyph glyph-name="threeeighths" unicode="&#x215c;" horiz-adv-x="897" 
d="M554 694h111l-304 -694h-112zM346 410q1 -55 -43 -89.5t-118 -34.5q-70 0 -114 36.5t-44 96.5h108q1 -40 52 -40q22 0 35 9.5t13 26.5q-1 36 -48 36h-37v76h28q49 0 49 35t-42 35q-41 0 -43 -47h-108q0 65 41 103t109 38q66 0 109 -35.5t43 -89.5q0 -46 -34 -74
q44 -29 44 -82zM817 211q51 -33 51 -90q0 -60 -43.5 -93t-115.5 -33t-115 33t-43 93q0 57 52 90q-39 31 -39 77q0 56 41.5 87t103.5 31t104 -30.5t42 -87.5q0 -44 -38 -77zM709 324q-19 0 -32.5 -10.5t-13.5 -28.5t13.5 -28.5t33.5 -10.5q21 0 34 10.5t12 28.5
q1 17 -12.5 28t-34.5 11zM709 78q26 0 41.5 12t15.5 33q0 20 -15.5 32.5t-40.5 12.5t-41 -12.5t-16 -32.5q1 -22 16 -33.5t40 -11.5z" />
    <glyph glyph-name="fiveeighths" unicode="&#x215d;" horiz-adv-x="901" 
d="M559 694h104l-301 -694h-106zM348 420q0 -61 -47 -98t-117 -37q-68 0 -112.5 34t-44.5 90h103q2 -36 53 -36q26 0 43 12.5t17 34.5q0 23 -15.5 36t-41.5 13q-30 0 -54 -18l-90 31l23 204h258v-86h-175l-5 -51q26 7 52 7q67 0 110 -35.5t43 -100.5zM820 211q51 -33 51 -90
q0 -60 -43.5 -93t-115.5 -33t-115 33t-43 93q0 57 51 90q-38 33 -38 77q0 56 41.5 87t103.5 31t104 -30.5t42 -87.5q0 -44 -38 -77zM712 324q-19 0 -32.5 -10.5t-13.5 -28.5t13.5 -28.5t33.5 -10.5q21 0 34 10.5t12 28.5q1 17 -12.5 28t-34.5 11zM712 78q26 0 41.5 12
t15.5 33q0 20 -15.5 32.5t-40.5 12.5t-41 -12.5t-16 -32.5q2 -45 56 -45z" />
    <glyph glyph-name="seveneighths" unicode="&#x215e;" horiz-adv-x="842" 
d="M488 694h104l-301 -694h-106zM73 298l145 301v1h-193v86h306v-81l-144 -307h-114zM759 211q51 -33 51 -90q0 -60 -43.5 -93t-115.5 -33q-73 0 -116 33t-43 93q0 56 52 91q-38 31 -38 76q0 56 41.5 87t103.5 31t104 -31t42 -87q0 -44 -38 -77zM651 324q-19 0 -33 -11
t-14 -28q0 -18 14 -28.5t34 -10.5t33 10.5t13 28.5q0 17 -13.5 28t-33.5 11zM651 78q26 0 41.5 12t14.5 33q1 20 -15 32.5t-40 12.5q-25 0 -41 -12.5t-16 -32.5q0 -22 15.5 -33.5t40.5 -11.5z" />
    <glyph glyph-name="minus" unicode="&#x2212;" horiz-adv-x="535" 
d="M59 290v113h417v-113h-417z" />
    <glyph glyph-name="approxequal" unicode="&#x2248;" horiz-adv-x="539" 
d="M63 375v108q45 32 116 32q35 0 98 -16t93 -16q66 0 110 34v-108q-46 -32 -111 -32q-35 1 -100 16.5t-93 15.5q-30 0 -63 -10t-50 -24zM63 174v107q45 32 116 32q35 0 98 -16t93 -16q66 0 110 34v-107q-46 -32 -111 -32q-35 0 -100.5 16t-92.5 16q-30 0 -63 -10t-50 -24z
" />
    <glyph glyph-name="notequal" unicode="&#x2260;" horiz-adv-x="535" 
d="M476 395h-137l-43 -97h180v-113h-231l-45 -101h-96l45 101h-90v113h141l43 97h-184v114h235l42 94h96l-42 -94h86v-114z" />
    <glyph glyph-name="uniF8FF" unicode="&#xf8ff;" horiz-adv-x="1444" 
d="M688 606q0 28 17.5 46.5t43.5 18.5t44 -18.5t18 -46.5q0 -26 -18 -44.5t-44 -18.5q-25 0 -43 18.5t-18 44.5zM218 281h-118q0 141 9 326h99q10 -205 10 -326zM691 281q0 95 3 153h-61l3 -68q4 -4 15 -4q13 0 18 5v-77q-14 -15 -67 -15q-82 0 -82 68q0 13 2 51t2 40h-22
v82l119 31l1 -18h177q10 -66 10 -248h-118zM326 276q-91 0 -91 118q0 141 133 141q124 0 124 -122v-132h-83l-8 63q-13 -68 -75 -68zM1085 281h-114q0 27 1 58.5t1 38.5q0 30 -14 30q-18 0 -18 -30q0 -7 1.5 -38.5t1.5 -58.5h-114q0 182 10 248h80q6 -46 6 -79q2 15 6.5 31
t24 35t49.5 19q42 0 58 -26.5t18 -84.5zM1345 407q0 -131 -122 -131q-121 0 -121 129q0 130 123 130q120 0 120 -128zM388 390q0 27 -24 27q-21 0 -21 -27q0 -31 21 -31q24 0 24 31zM1245 390q0 27 -22 27q-21 0 -21 -27q0 -31 21 -31q22 0 22 31zM426 248h104
q10 -55 10 -144q0 -84 -33.5 -120t-118.5 -36q-63 0 -87 18v86q25 -17 69 -17q21 0 34 6.5t16.5 12t3.5 10.5q-17 -11 -49 -11q-89 0 -89 86v14h-55l3 -68q6 -4 15 -4q13 0 18 5v-76q-19 -15 -68 -15q-44 0 -62 17.5t-18 56.5t3 84h-18v83l116 30l-1 -18h176v-124
q0 -17 3 -22.5t12 -5.5q16 0 16 28v124zM730 253q37 0 58.5 -30.5t21.5 -87.5q0 -140 -137 -140q1 -16 1 -41h-118q0 144 10 294h78q6 -39 6 -80q17 85 80 85zM1065 132q0 -22 -3 -36h-123q11 -19 49 -19q34 0 55 12v-78q-23 -16 -77 -16q-141 0 -141 127q0 61 32.5 96
t92.5 35q54 0 84.5 -31.5t30.5 -89.5zM973 113q3 28 -16 28q-23 0 -23 -28h39zM667 75q10 0 23.5 8.5t13.5 29.5q0 24 -20 24q-22 0 -22 -32q0 -15 5 -30zM1069 14q0 -24 24 -24q25 0 25 24q0 23 -25 23q-24 0 -24 -23zM1075 14q0 18 18 18q19 0 19 -18q0 -19 -19 -19
q-18 0 -18 19zM1104 2l-7 9q8 0 8 8q0 7 -11 7h-11v-24h5v9h5l4 -9h7zM1095 16h-7v6h7q4 0 4 -3t-4 -3z" />
    <glyph glyph-name="J.ss01" horiz-adv-x="460" 
d="M30 124q60 -5 106 -5q114 0 114 114v453h138v-450q0 -112 -64 -174t-185 -62q-49 0 -109 5v119z" />
    <glyph glyph-name="Jcircumflex.ss01" horiz-adv-x="460" 
d="M389 863l92 -137h-99l-65 65l-65 -65h-99l93 137h143zM30 124q60 -5 106 -5q114 0 114 114v453h138v-450q0 -112 -64 -174t-185 -62q-49 0 -109 5v119z" />
    <glyph glyph-name="K.ss01" horiz-adv-x="668" 
d="M669 112l8 -107q-34 -10 -71 -10q-63 0 -99.5 25.5t-72.5 84.5l-120 190l-98 -113v-182h-138v686h138v-342l281 342h164l-252 -292l155 -244q27 -43 66 -43q22 0 39 5z" />
    <glyph glyph-name="Kcommaaccent.ss01" horiz-adv-x="668" 
d="M669 112l8 -107q-34 -10 -71 -10q-63 0 -99.5 25.5t-72.5 84.5l-120 190l-98 -113v-182h-138v686h138v-342l281 342h164l-252 -292l155 -244q27 -43 66 -43q22 0 39 5zM357 -42q71 0 71 -94q0 -76 -40 -122.5t-89 -44.5v56q22 0 40.5 19t18.5 49q-32 0 -51.5 19t-19.5 49
q0 31 20 50t50 19z" />
    <glyph glyph-name="R.ss01" horiz-adv-x="647" 
d="M462 0l-125 252h-121v-252h-138v686h272q117 0 183 -56.5t66 -160.5q0 -138 -122 -192l139 -277h-154zM216 572v-213h134q54 1 82 29.5t28 77.5t-28.5 77.5t-81.5 28.5h-134z" />
    <glyph glyph-name="Racute.ss01" horiz-adv-x="647" 
d="M474 868l-100 -137h-127l46 137h181zM462 0l-125 252h-121v-252h-138v686h272q117 0 183 -56.5t66 -160.5q0 -138 -122 -192l139 -277h-154zM216 572v-213h134q54 1 82 29.5t28 77.5t-28.5 77.5t-81.5 28.5h-134z" />
    <glyph glyph-name="Rcaron.ss01" horiz-adv-x="647" 
d="M384 731h-143l-93 137h99l65 -64l65 64h99zM462 0l-125 252h-121v-252h-138v686h272q117 0 183 -56.5t66 -160.5q0 -138 -122 -192l139 -277h-154zM216 572v-213h134q54 1 82 29.5t28 77.5t-28.5 77.5t-81.5 28.5h-134z" />
    <glyph glyph-name="Rcommaaccent.ss01" horiz-adv-x="647" 
d="M477 277l139 -277h-154l-125 252h-121v-252h-138v686h272q117 0 183 -56.5t66 -160.5q0 -138 -122 -192zM216 572v-213h134q54 1 82 29.5t28 77.5t-28.5 77.5t-81.5 28.5h-134zM335 -42q71 0 71 -94q0 -76 -40 -122.5t-89 -44.5v56q22 0 40.5 19t18.5 49q-32 0 -51.5 19
t-19.5 49q0 31 20 50t50 19z" />
    <glyph glyph-name="i.loclTRK" horiz-adv-x="260" 
d="M131 731q39 0 62.5 -23t23.5 -60t-23.5 -60t-62.5 -23q-38 0 -62 23t-24 60t24 60t62 23zM61 0v490h138v-490h-138z" />
    <glyph glyph-name="a.ss01" horiz-adv-x="540" 
d="M263 495q108 0 164.5 -54.5t56.5 -150.5v-290h-127l-3 67q-44 -72 -160 -72q-78 0 -120.5 36t-42.5 99q0 57 37.5 92.5t91.5 48.5t126 13h65v17q0 42 -23.5 66t-68.5 24q-39 0 -63 -18t-28 -50h-124q7 81 65.5 126.5t153.5 45.5zM236 94q51 0 83 26t32 58v31h-71
q-116 0 -116 -64q0 -51 72 -51z" />
    <glyph glyph-name="aacute.ss01" horiz-adv-x="540" 
d="M406 731l-96 -174h-109l45 174h160zM263 495q108 0 164.5 -54.5t56.5 -150.5v-290h-127l-3 67q-44 -72 -160 -72q-78 0 -120.5 36t-42.5 99q0 57 37.5 92.5t91.5 48.5t126 13h65v17q0 42 -23.5 66t-68.5 24q-39 0 -63 -18t-28 -50h-124q7 81 65.5 126.5t153.5 45.5z
M236 94q51 0 83 26t32 58v31h-71q-116 0 -116 -64q0 -51 72 -51z" />
    <glyph glyph-name="abreve.ss01" horiz-adv-x="540" 
d="M264 554q-72 0 -114.5 46.5t-42.5 127.5h101q0 -80 55 -80q27 0 40.5 18.5t13.5 61.5h102q0 -81 -41.5 -127.5t-113.5 -46.5zM263 495q108 0 164.5 -54.5t56.5 -150.5v-290h-127l-3 67q-44 -72 -160 -72q-78 0 -120.5 36t-42.5 99q0 57 37.5 92.5t91.5 48.5t126 13h65v17
q0 42 -23.5 66t-68.5 24q-39 0 -63 -18t-28 -50h-124q7 81 65.5 126.5t153.5 45.5zM236 94q51 0 83 26t32 58v31h-71q-116 0 -116 -64q0 -51 72 -51z" />
    <glyph glyph-name="acircumflex.ss01" horiz-adv-x="540" 
d="M264 647l-70 -89h-95l97 174h135l97 -174h-94zM263 495q108 0 164.5 -54.5t56.5 -150.5v-290h-127l-3 67q-44 -72 -160 -72q-78 0 -120.5 36t-42.5 99q0 57 37.5 92.5t91.5 48.5t126 13h65v17q0 42 -23.5 66t-68.5 24q-39 0 -63 -18t-28 -50h-124q7 81 65.5 126.5
t153.5 45.5zM236 94q51 0 83 26t32 58v31h-71q-116 0 -116 -64q0 -51 72 -51z" />
    <glyph glyph-name="adieresis.ss01" horiz-adv-x="540" 
d="M166 574q-33 0 -53 19.5t-20 50.5q0 32 20 51.5t53 19.5q34 0 54 -19.5t20 -51.5q0 -31 -20.5 -50.5t-53.5 -19.5zM368 574q-32 0 -52.5 19.5t-20.5 50.5t20.5 51t52.5 20q34 0 54 -19.5t20 -51.5q0 -31 -20.5 -50.5t-53.5 -19.5zM263 495q108 0 164.5 -54.5t56.5 -150.5
v-290h-127l-3 67q-44 -72 -160 -72q-78 0 -120.5 36t-42.5 99q0 57 37.5 92.5t91.5 48.5t126 13h65v17q0 42 -23.5 66t-68.5 24q-39 0 -63 -18t-28 -50h-124q7 81 65.5 126.5t153.5 45.5zM236 94q51 0 83 26t32 58v31h-71q-116 0 -116 -64q0 -51 72 -51z" />
    <glyph glyph-name="uni1EA1.ss01" horiz-adv-x="540" 
d="M263 495q108 0 164.5 -54.5t56.5 -150.5v-290h-127l-3 67q-44 -72 -160 -72q-78 0 -120.5 36t-42.5 99q0 57 37.5 92.5t91.5 48.5t126 13h65v17q0 42 -23.5 66t-68.5 24q-39 0 -63 -18t-28 -50h-124q7 81 65.5 126.5t153.5 45.5zM236 94q51 0 83 26t32 58v31h-71
q-116 0 -116 -64q0 -51 72 -51zM270 -50q39 0 62.5 -23t23.5 -60q0 -36 -23.5 -59.5t-62.5 -23.5q-38 0 -62 23.5t-24 59.5q0 37 24 60t62 23z" />
    <glyph glyph-name="agrave.ss01" horiz-adv-x="540" 
d="M323 557h-109l-96 174h160zM263 495q108 0 164.5 -54.5t56.5 -150.5v-290h-127l-3 67q-44 -72 -160 -72q-78 0 -120.5 36t-42.5 99q0 57 37.5 92.5t91.5 48.5t126 13h65v17q0 42 -23.5 66t-68.5 24q-39 0 -63 -18t-28 -50h-124q7 81 65.5 126.5t153.5 45.5zM236 94
q51 0 83 26t32 58v31h-71q-116 0 -116 -64q0 -51 72 -51z" />
    <glyph glyph-name="amacron.ss01" horiz-adv-x="540" 
d="M420 692v-95h-309v95h309zM263 495q108 0 164.5 -54.5t56.5 -150.5v-290h-127l-3 67q-44 -72 -160 -72q-78 0 -120.5 36t-42.5 99q0 57 37.5 92.5t91.5 48.5t126 13h65v17q0 42 -23.5 66t-68.5 24q-39 0 -63 -18t-28 -50h-124q7 81 65.5 126.5t153.5 45.5zM236 94
q51 0 83 26t32 58v31h-71q-116 0 -116 -64q0 -51 72 -51z" />
    <glyph glyph-name="aogonek.ss01" horiz-adv-x="540" 
d="M505 -118l34 -60q-35 -37 -100 -37q-52 0 -81.5 27.5t-29.5 74.5q0 65 56 113h-27l-3 67q-44 -72 -160 -72q-78 0 -120.5 36t-42.5 99q0 57 37.5 92.5t91.5 48.5t126 13h65v17q0 42 -23.5 66t-68.5 24q-39 0 -63 -18t-28 -50h-124q7 81 65.5 126.5t153.5 45.5
q108 0 164.5 -54.5t56.5 -150.5v-290q-3 -1 -8 -4t-17.5 -12.5t-22 -20t-17.5 -26.5t-8 -33q0 -42 41 -42q33 0 53 20zM236 94q51 0 83 26t32 58v31h-71q-116 0 -116 -64q0 -51 72 -51z" />
    <glyph glyph-name="aring.ss01" horiz-adv-x="540" 
d="M264 545q-43 0 -73.5 27t-30.5 71t30.5 71.5t73.5 27.5t73 -27.5t30 -71.5t-30 -71t-73 -27zM264 676q-16 0 -25.5 -9t-9.5 -24t9.5 -24.5t25.5 -9.5t25.5 9.5t9.5 24.5q0 14 -9.5 23.5t-25.5 9.5zM263 495q108 0 164.5 -54.5t56.5 -150.5v-290h-127l-3 67
q-44 -72 -160 -72q-78 0 -120.5 36t-42.5 99q0 57 37.5 92.5t91.5 48.5t126 13h65v17q0 42 -23.5 66t-68.5 24q-39 0 -63 -18t-28 -50h-124q7 81 65.5 126.5t153.5 45.5zM236 94q51 0 83 26t32 58v31h-71q-116 0 -116 -64q0 -51 72 -51z" />
    <glyph glyph-name="aringacute.ss01" horiz-adv-x="540" 
d="M264 545q-43 0 -73.5 27t-30.5 71t30.5 71.5t73.5 27.5q40 0 70 -25l39 89h100l-106 -170q-3 -41 -32.5 -66t-70.5 -25zM264 676q-16 0 -25.5 -9t-9.5 -24t9.5 -24.5t25.5 -9.5q26 0 33 23l1 2q1 3 1 9q0 14 -9.5 23.5t-25.5 9.5zM263 495q108 0 164.5 -54.5t56.5 -150.5
v-290h-127l-3 67q-44 -72 -160 -72q-78 0 -120.5 36t-42.5 99q0 57 37.5 92.5t91.5 48.5t126 13h65v17q0 42 -23.5 66t-68.5 24q-39 0 -63 -18t-28 -50h-124q7 81 65.5 126.5t153.5 45.5zM236 94q51 0 83 26t32 58v31h-71q-116 0 -116 -64q0 -51 72 -51z" />
    <glyph glyph-name="atilde.ss01" horiz-adv-x="540" 
d="M196 618q-38 0 -39 -43h-90q0 140 112 140q41 0 79.5 -22t55.5 -22q38 0 38 43h90q0 -69 -29 -104.5t-82 -35.5q-39 0 -78.5 22t-56.5 22zM263 495q108 0 164.5 -54.5t56.5 -150.5v-290h-127l-3 67q-44 -72 -160 -72q-78 0 -120.5 36t-42.5 99q0 57 37.5 92.5t91.5 48.5
t126 13h65v17q0 42 -23.5 66t-68.5 24q-39 0 -63 -18t-28 -50h-124q7 81 65.5 126.5t153.5 45.5zM236 94q51 0 83 26t32 58v31h-71q-116 0 -116 -64q0 -51 72 -51z" />
    <glyph glyph-name="f.ss01" horiz-adv-x="396" 
d="M235 490h149v-109h-149v-381h-137v381h-70v109h70v60q0 80 49 126.5t129 46.5t128.5 -45t48.5 -115h-120q0 23 -13.5 36.5t-36.5 13.5t-35.5 -13.5t-12.5 -36.5v-73z" />
    <glyph glyph-name="g.ss01" horiz-adv-x="600" 
d="M403 490h132v-464q0 -112 -70 -175t-212 -63q-88 0 -168 32v107q84 -35 161 -35q84 0 118 31.5t34 97.5v51q-44 -72 -147 -76q-97 0 -156.5 69.5t-59.5 178.5q0 116 63.5 183.5t157.5 67.5q101 0 143 -68zM283 111q51 0 83 36.5t32 83.5v29q0 46 -31.5 83t-83.5 37
q-48 0 -78.5 -37.5t-30.5 -98.5q0 -60 30.5 -96.5t78.5 -36.5z" />
    <glyph glyph-name="gbreve.ss01" horiz-adv-x="600" 
d="M308 553q-72 0 -114.5 46.5t-42.5 127.5h101q0 -80 55 -80q27 0 40.5 18.5t13.5 61.5h102q0 -81 -41.5 -127.5t-113.5 -46.5zM403 490h132v-464q0 -112 -70 -175t-212 -63q-88 0 -168 32v107q84 -35 161 -35q84 0 118 31.5t34 97.5v51q-44 -72 -147 -76
q-97 0 -156.5 69.5t-59.5 178.5q0 116 63.5 183.5t157.5 67.5q101 0 143 -68zM283 111q51 0 83 36.5t32 83.5v29q0 46 -31.5 83t-83.5 37q-48 0 -78.5 -37.5t-30.5 -98.5q0 -60 30.5 -96.5t78.5 -36.5z" />
    <glyph glyph-name="gcaron.ss01" horiz-adv-x="600" 
d="M377 557h-135l-98 174h95l70 -89l70 89h95zM403 490h132v-464q0 -112 -70 -175t-212 -63q-88 0 -168 32v107q84 -35 161 -35q84 0 118 31.5t34 97.5v51q-44 -72 -147 -76q-97 0 -156.5 69.5t-59.5 178.5q0 116 63.5 183.5t157.5 67.5q101 0 143 -68zM283 111
q51 0 83 36.5t32 83.5v29q0 46 -31.5 83t-83.5 37q-48 0 -78.5 -37.5t-30.5 -98.5q0 -60 30.5 -96.5t78.5 -36.5z" />
    <glyph glyph-name="gcircumflex.ss01" horiz-adv-x="600" 
d="M309 646l-70 -89h-95l97 174h135l97 -174h-94zM403 490h132v-464q0 -112 -70 -175t-212 -63q-88 0 -168 32v107q84 -35 161 -35q84 0 118 31.5t34 97.5v51q-44 -72 -147 -76q-97 0 -156.5 69.5t-59.5 178.5q0 116 63.5 183.5t157.5 67.5q101 0 143 -68zM283 111
q51 0 83 36.5t32 83.5v29q0 46 -31.5 83t-83.5 37q-48 0 -78.5 -37.5t-30.5 -98.5q0 -60 30.5 -96.5t78.5 -36.5z" />
    <glyph glyph-name="gcommaaccent.ss01" horiz-adv-x="600" 
d="M309 541q-71 0 -71 94q0 76 40 122.5t89 44.5v-56q-22 0 -40.5 -19t-18.5 -49q32 0 51.5 -19t19.5 -49q0 -31 -20 -50t-50 -19zM403 490h132v-464q0 -112 -70 -175t-212 -63q-88 0 -168 32v107q84 -35 161 -35q84 0 118 31.5t34 97.5v51q-44 -72 -147 -76
q-97 0 -156.5 69.5t-59.5 178.5q0 116 63.5 183.5t157.5 67.5q101 0 143 -68zM283 111q51 0 83 36.5t32 83.5v29q0 46 -31.5 83t-83.5 37q-48 0 -78.5 -37.5t-30.5 -98.5q0 -60 30.5 -96.5t78.5 -36.5z" />
    <glyph glyph-name="gdotaccent.ss01" horiz-adv-x="600" 
d="M309 566q-38 0 -62 23t-24 60t24 60t62 23q39 0 62.5 -23t23.5 -60t-23.5 -60t-62.5 -23zM403 490h132v-464q0 -112 -70 -175t-212 -63q-88 0 -168 32v107q84 -35 161 -35q84 0 118 31.5t34 97.5v51q-44 -72 -147 -76q-97 0 -156.5 69.5t-59.5 178.5q0 116 63.5 183.5
t157.5 67.5q101 0 143 -68zM283 111q51 0 83 36.5t32 83.5v29q0 46 -31.5 83t-83.5 37q-48 0 -78.5 -37.5t-30.5 -98.5q0 -60 30.5 -96.5t78.5 -36.5z" />
    <glyph glyph-name="j.ss01" horiz-adv-x="268" 
d="M230 648q0 -37 -26 -61t-63 -24q-38 0 -63 24t-25 61t25 61.5t63 24.5q37 0 63 -25t26 -61zM20 -105q49 0 49 57v538h137v-539q0 -72 -51 -117.5t-134 -45.5q-79 0 -127.5 42.5t-48.5 114.5h127q0 -50 48 -50z" />
    <glyph glyph-name="uni0237.ss01" horiz-adv-x="268" 
d="M20 -105q49 0 49 57v538h137v-539q0 -72 -51 -117.5t-134 -45.5q-79 0 -127.5 42.5t-48.5 114.5h127q0 -50 48 -50z" />
    <glyph glyph-name="jcircumflex.ss01" horiz-adv-x="268" 
d="M-30 558l97 174h135l97 -174h-94l-70 89l-70 -89h-95zM21 -212q-79 0 -127.5 42.5t-48.5 114.5h127q0 -50 48 -50q49 0 49 57v538h137v-539q0 -72 -51 -117.5t-134 -45.5z" />
    <glyph glyph-name="l.ss01" horiz-adv-x="260" 
d="M61 0v710h137v-710h-137z" />
    <glyph glyph-name="lacute.ss01" horiz-adv-x="260" 
d="M188 745h-127l46 137h181zM61 0v710h137v-710h-137z" />
    <glyph glyph-name="lcaron.ss01" horiz-adv-x="299" 
d="M251 535q22 0 40 19.5t18 49.5q-32 0 -51 19.5t-19 49.5q0 31 20 50t50 19q71 0 70 -95q0 -77 -39.5 -123t-88.5 -45v56zM61 0v710h137v-710h-137z" />
    <glyph glyph-name="lcommaaccent.ss01" horiz-adv-x="260" 
d="M61 0v710h137v-710h-137zM71 -247q22 0 40.5 19t18.5 49q-32 0 -51.5 19t-19.5 49q0 31 20 50t50 19q71 0 71 -94q0 -76 -40 -122.5t-89 -44.5v56z" />
    <glyph glyph-name="ldot.ss01" horiz-adv-x="403" 
d="M61 0v710h137v-710h-137zM335 430q39 0 62.5 -23t23.5 -60t-23.5 -60t-62.5 -23t-62.5 23t-23.5 60t23.5 60t62.5 23z" />
    <glyph glyph-name="lslash.ss01" horiz-adv-x="348" 
d="M344 419l-101 -59v-360h-137v279l-62 -36l-38 70l100 58v339h137v-259l63 37z" />
    <glyph glyph-name="t.ss01" horiz-adv-x="473" 
d="M339 175h121q0 -86 -47.5 -133t-136.5 -47t-137.5 47.5t-48.5 136.5v202h-72v109h80v144h130v-144h171v-109h-171v-206q0 -70 54 -70q57 0 57 70z" />
    <glyph glyph-name="tbar.ss01" horiz-adv-x="473" 
d="M339 175h121q0 -86 -47.5 -133t-136.5 -47t-137.5 47.5t-48.5 136.5v48h-61v79h61v75h-72v109h80v144h130v-144h171v-109h-171v-75h133v-79h-133v-52q0 -70 54 -70q57 0 57 70z" />
    <glyph glyph-name="tcaron.ss01" horiz-adv-x="473" 
d="M333 625q-33 0 -52 19.5t-19 49.5q0 31 20 50t50 19q71 -2 71 -96q0 -66 -40 -107t-89 -40v56q22 0 40.5 14t18.5 35zM339 175h121q0 -86 -47.5 -133t-136.5 -47t-137.5 47.5t-48.5 136.5v202h-72v109h80v144h130v-144h171v-109h-171v-206q0 -70 54 -70q57 0 57 70z" />
    <glyph glyph-name="uni0163.ss01" horiz-adv-x="473" 
d="M276 -5h-2l-6 -28q36 -6 58 -26.5t22 -55.5q0 -45 -34.5 -71.5t-89.5 -26.5q-39 0 -69 13l17 72q22 -11 53 -11q45 0 45 25q0 30 -81 30l20 87q-119 34 -119 176v202h-72v109h80v144h130v-144h171v-109h-171v-206q0 -70 54 -70q57 0 57 70h121q0 -86 -47.5 -133
t-136.5 -47z" />
    <glyph glyph-name="uni021B.ss01" horiz-adv-x="473" 
d="M339 175h121q0 -86 -47.5 -133t-136.5 -47t-137.5 47.5t-48.5 136.5v202h-72v109h80v144h130v-144h171v-109h-171v-206q0 -70 54 -70q57 0 57 70zM262 -42q71 0 71 -94q0 -76 -40 -122.5t-89 -44.5v56q22 0 40.5 19t18.5 49q-32 0 -51.5 19t-19.5 49q0 31 20 50t50 19z
" />
    <glyph glyph-name="u.ss01" horiz-adv-x="589" 
d="M553 113l8 -108q-32 -10 -72 -10q-94 0 -115 84q-45 -84 -145 -84q-81 0 -127 51t-46 129v315h138v-283q0 -43 21 -68t58 -25q42 0 68.5 28t26.5 74v274h137v-352q0 -30 24 -30q10 0 24 5z" />
    <glyph glyph-name="uacute.ss01" horiz-adv-x="589" 
d="M423 731l-96 -174h-109l45 174h160zM553 113l8 -108q-32 -10 -72 -10q-94 0 -115 84q-45 -84 -145 -84q-81 0 -127 51t-46 129v315h138v-283q0 -43 21 -68t58 -25q42 0 68.5 28t26.5 74v274h137v-352q0 -30 24 -30q10 0 24 5z" />
    <glyph glyph-name="ubreve.ss01" horiz-adv-x="589" 
d="M281 554q-72 0 -114.5 46.5t-42.5 127.5h101q0 -80 55 -80q27 0 40.5 18.5t13.5 61.5h102q0 -81 -41.5 -127.5t-113.5 -46.5zM553 113l8 -108q-32 -10 -72 -10q-94 0 -115 84q-45 -84 -145 -84q-81 0 -127 51t-46 129v315h138v-283q0 -43 21 -68t58 -25q42 0 68.5 28
t26.5 74v274h137v-352q0 -30 24 -30q10 0 24 5z" />
    <glyph glyph-name="ucircumflex.ss01" horiz-adv-x="589" 
d="M281 647l-70 -89h-95l97 174h135l97 -174h-94zM553 113l8 -108q-32 -10 -72 -10q-94 0 -115 84q-45 -84 -145 -84q-81 0 -127 51t-46 129v315h138v-283q0 -43 21 -68t58 -25q42 0 68.5 28t26.5 74v274h137v-352q0 -30 24 -30q10 0 24 5z" />
    <glyph glyph-name="udieresis.ss01" horiz-adv-x="589" 
d="M183 574q-33 0 -53 19.5t-20 50.5q0 32 20 51.5t53 19.5q34 0 54 -19.5t20 -51.5q0 -31 -20.5 -50.5t-53.5 -19.5zM385 574q-32 0 -52.5 19.5t-20.5 50.5t20.5 51t52.5 20q34 0 54 -19.5t20 -51.5q0 -31 -20.5 -50.5t-53.5 -19.5zM553 113l8 -108q-32 -10 -72 -10
q-94 0 -115 84q-45 -84 -145 -84q-81 0 -127 51t-46 129v315h138v-283q0 -43 21 -68t58 -25q42 0 68.5 28t26.5 74v274h137v-352q0 -30 24 -30q10 0 24 5z" />
    <glyph glyph-name="uni1EE5.ss01" horiz-adv-x="589" 
d="M553 113l8 -108q-32 -10 -72 -10q-94 0 -115 84q-45 -84 -145 -84q-81 0 -127 51t-46 129v315h138v-283q0 -43 21 -68t58 -25q42 0 68.5 28t26.5 74v274h137v-352q0 -30 24 -30q10 0 24 5zM286 -50q39 0 62.5 -23t23.5 -60q0 -36 -23.5 -59.5t-62.5 -23.5q-38 0 -62 23.5
t-24 59.5q0 37 24 60t62 23z" />
    <glyph glyph-name="ugrave.ss01" horiz-adv-x="589" 
d="M340 557h-109l-96 174h160zM553 113l8 -108q-32 -10 -72 -10q-94 0 -115 84q-45 -84 -145 -84q-81 0 -127 51t-46 129v315h138v-283q0 -43 21 -68t58 -25q42 0 68.5 28t26.5 74v274h137v-352q0 -30 24 -30q10 0 24 5z" />
    <glyph glyph-name="uhungarumlaut.ss01" horiz-adv-x="589" 
d="M312 731l-100 -174h-113l46 174h167zM420 557h-112l45 174h167zM553 113l8 -108q-32 -10 -72 -10q-94 0 -115 84q-45 -84 -145 -84q-81 0 -127 51t-46 129v315h138v-283q0 -43 21 -68t58 -25q42 0 68.5 28t26.5 74v274h137v-352q0 -30 24 -30q10 0 24 5z" />
    <glyph glyph-name="umacron.ss01" horiz-adv-x="589" 
d="M437 692v-95h-309v95h309zM553 113l8 -108q-32 -10 -72 -10q-94 0 -115 84q-45 -84 -145 -84q-81 0 -127 51t-46 129v315h138v-283q0 -43 21 -68t58 -25q42 0 68.5 28t26.5 74v274h137v-352q0 -30 24 -30q10 0 24 5z" />
    <glyph glyph-name="uogonek.ss01" horiz-adv-x="589" 
d="M582 -113l34 -60q-35 -37 -100 -37q-52 0 -81.5 27.5t-29.5 74.5q0 60 49 107q-63 14 -80 80q-45 -84 -145 -84q-81 0 -127 51t-46 129v315h138v-283q0 -43 21 -68t58 -25q42 0 68.5 28t26.5 74v274h137v-352q0 -30 24 -30q10 0 24 5l8 -108q-3 -1 -8 -4t-17.5 -12.5
t-22 -20t-17.5 -26.5t-8 -33q0 -42 41 -42q33 0 53 20z" />
    <glyph glyph-name="uring.ss01" horiz-adv-x="589" 
d="M281 545q-43 0 -73.5 27t-30.5 71t30.5 71.5t73.5 27.5t73 -27.5t30 -71.5t-30 -71t-73 -27zM281 676q-16 0 -25.5 -9t-9.5 -24t9.5 -24.5t25.5 -9.5q15 0 25 9.5t10 24.5q0 14 -9.5 23.5t-25.5 9.5zM553 113l8 -108q-32 -10 -72 -10q-94 0 -115 84q-45 -84 -145 -84
q-81 0 -127 51t-46 129v315h138v-283q0 -43 21 -68t58 -25q42 0 68.5 28t26.5 74v274h137v-352q0 -30 24 -30q10 0 24 5z" />
    <glyph glyph-name="utilde.ss01" horiz-adv-x="589" 
d="M213 618q-38 0 -39 -43h-90q0 140 112 140q41 0 79.5 -22t55.5 -22q38 0 38 43h90q0 -69 -29 -104.5t-82 -35.5q-39 0 -78.5 22t-56.5 22zM553 113l8 -108q-32 -10 -72 -10q-94 0 -115 84q-45 -84 -145 -84q-81 0 -127 51t-46 129v315h138v-283q0 -43 21 -68t58 -25
q42 0 68.5 28t26.5 74v274h137v-352q0 -30 24 -30q10 0 24 5z" />
    <glyph glyph-name="y.ss01" horiz-adv-x="566" 
d="M368 490h137v-495q0 -95 -61 -151t-172 -56q-95 0 -154 42.5t-66 125.5h129q11 -64 90 -64q101 0 101 98v93q-48 -82 -147 -82q-81 0 -125 50.5t-44 129.5v309h138v-277q0 -43 22 -68t61 -25q40 0 65.5 28.5t25.5 73.5v268z" />
    <glyph glyph-name="yacute.ss01" horiz-adv-x="566" 
d="M426 731l-96 -174h-109l45 174h160zM368 490h137v-495q0 -95 -61 -151t-172 -56q-95 0 -154 42.5t-66 125.5h129q11 -64 90 -64q101 0 101 98v93q-48 -82 -147 -82q-81 0 -125 50.5t-44 129.5v309h138v-277q0 -43 22 -68t61 -25q40 0 65.5 28.5t25.5 73.5v268z" />
    <glyph glyph-name="ycircumflex.ss01" horiz-adv-x="566" 
d="M284 646l-70 -89h-95l97 174h135l97 -174h-94zM368 490h137v-495q0 -95 -61 -151t-172 -56q-95 0 -154 42.5t-66 125.5h129q11 -64 90 -64q101 0 101 98v93q-48 -82 -147 -82q-81 0 -125 50.5t-44 129.5v309h138v-277q0 -43 22 -68t61 -25q40 0 65.5 28.5t25.5 73.5v268z
" />
    <glyph glyph-name="ydieresis.ss01" horiz-adv-x="566" 
d="M183 574q-33 0 -53 19.5t-20 50.5q0 32 20 51.5t53 19.5q34 0 54 -19.5t20 -51.5q0 -31 -20.5 -50.5t-53.5 -19.5zM385 574q-32 0 -52.5 19.5t-20.5 50.5t20.5 51t52.5 20q34 0 54 -19.5t20 -51.5q0 -31 -20.5 -50.5t-53.5 -19.5zM368 490h137v-495q0 -95 -61 -151
t-172 -56q-95 0 -154 42.5t-66 125.5h129q11 -64 90 -64q101 0 101 98v93q-48 -82 -147 -82q-81 0 -125 50.5t-44 129.5v309h138v-277q0 -43 22 -68t61 -25q40 0 65.5 28.5t25.5 73.5v268z" />
    <glyph glyph-name="ygrave.ss01" horiz-adv-x="566" 
d="M343 557h-109l-96 174h160zM368 490h137v-495q0 -95 -61 -151t-172 -56q-95 0 -154 42.5t-66 125.5h129q11 -64 90 -64q101 0 101 98v93q-48 -82 -147 -82q-81 0 -125 50.5t-44 129.5v309h138v-277q0 -43 22 -68t61 -25q40 0 65.5 28.5t25.5 73.5v268z" />
    <glyph glyph-name="uni0233.ss01" horiz-adv-x="566" 
d="M447 692v-95h-309v95h309zM368 490h137v-495q0 -95 -61 -151t-172 -56q-95 0 -154 42.5t-66 125.5h129q11 -64 90 -64q101 0 101 98v93q-48 -82 -147 -82q-81 0 -125 50.5t-44 129.5v309h138v-277q0 -43 22 -68t61 -25q40 0 65.5 28.5t25.5 73.5v268z" />
    <glyph glyph-name="uni1EF9.ss01" horiz-adv-x="566" 
d="M222 618q-38 0 -39 -43h-90q0 140 112 140q41 0 79.5 -22t55.5 -22q38 0 38 43h90q0 -69 -29 -104.5t-82 -35.5q-39 0 -78.5 22t-56.5 22zM368 490h137v-495q0 -95 -61 -151t-172 -56q-95 0 -154 42.5t-66 125.5h129q11 -64 90 -64q101 0 101 98v93q-48 -82 -147 -82
q-81 0 -125 50.5t-44 129.5v309h138v-277q0 -43 22 -68t61 -25q40 0 65.5 28.5t25.5 73.5v268z" />
    <glyph glyph-name="f.ss02" horiz-adv-x="391" 
d="M329 596q-51 0 -72.5 -22t-21.5 -66v-18h142v-109h-142v-381h-137v381h-70v109h70v23q0 93 54.5 145t155.5 52q47 0 73 -2v-115q-29 3 -52 3z" />
    <glyph glyph-name="g.ss02" horiz-adv-x="600" 
d="M403 490h132v-467q0 -108 -70 -166.5t-212 -58.5q-88 0 -168 7v104q80 -7 161 -7q85 0 118.5 27.5t33.5 87.5v55q-44 -72 -147 -76q-97 0 -156.5 69.5t-59.5 178.5q0 116 63.5 183.5t157.5 67.5q101 0 143 -68zM283 111q51 0 83 36.5t32 83.5v29q0 46 -31.5 83t-83.5 37
q-48 0 -78.5 -37.5t-30.5 -98.5q0 -60 30.5 -96.5t78.5 -36.5z" />
    <glyph glyph-name="gbreve.ss02" horiz-adv-x="600" 
d="M308 553q-72 0 -114.5 46.5t-42.5 127.5h101q0 -80 55 -80q27 0 40.5 18.5t13.5 61.5h102q0 -81 -41.5 -127.5t-113.5 -46.5zM403 490h132v-467q0 -108 -70 -166.5t-212 -58.5q-88 0 -168 7v104q80 -7 161 -7q85 0 118.5 27.5t33.5 87.5v55q-44 -72 -147 -76
q-97 0 -156.5 69.5t-59.5 178.5q0 116 63.5 183.5t157.5 67.5q101 0 143 -68zM283 111q51 0 83 36.5t32 83.5v29q0 46 -31.5 83t-83.5 37q-48 0 -78.5 -37.5t-30.5 -98.5q0 -60 30.5 -96.5t78.5 -36.5z" />
    <glyph glyph-name="gcaron.ss02" horiz-adv-x="600" 
d="M377 557h-135l-98 174h95l70 -89l70 89h95zM403 490h132v-467q0 -108 -70 -166.5t-212 -58.5q-88 0 -168 7v104q80 -7 161 -7q85 0 118.5 27.5t33.5 87.5v55q-44 -72 -147 -76q-97 0 -156.5 69.5t-59.5 178.5q0 116 63.5 183.5t157.5 67.5q101 0 143 -68zM283 111
q51 0 83 36.5t32 83.5v29q0 46 -31.5 83t-83.5 37q-48 0 -78.5 -37.5t-30.5 -98.5q0 -60 30.5 -96.5t78.5 -36.5z" />
    <glyph glyph-name="gcircumflex.ss02" horiz-adv-x="600" 
d="M309 646l-70 -89h-95l97 174h135l97 -174h-94zM403 490h132v-467q0 -108 -70 -166.5t-212 -58.5q-88 0 -168 7v104q80 -7 161 -7q85 0 118.5 27.5t33.5 87.5v55q-44 -72 -147 -76q-97 0 -156.5 69.5t-59.5 178.5q0 116 63.5 183.5t157.5 67.5q101 0 143 -68zM283 111
q51 0 83 36.5t32 83.5v29q0 46 -31.5 83t-83.5 37q-48 0 -78.5 -37.5t-30.5 -98.5q0 -60 30.5 -96.5t78.5 -36.5z" />
    <glyph glyph-name="gcommaaccent.ss02" horiz-adv-x="596" 
d="M309 541q-71 0 -71 94q0 76 40 122.5t89 44.5v-56q-22 0 -40.5 -19t-18.5 -49q32 0 51.5 -19t19.5 -49q0 -31 -20 -50t-50 -19zM403 490h132v-467q0 -108 -70 -166.5t-212 -58.5q-88 0 -168 7v104q80 -7 161 -7q85 0 118.5 27.5t33.5 87.5v55q-44 -72 -147 -76
q-97 0 -156.5 69.5t-59.5 178.5q0 116 63.5 183.5t157.5 67.5q101 0 143 -68zM283 111q51 0 83 36.5t32 83.5v29q0 46 -31.5 83t-83.5 37q-48 0 -78.5 -37.5t-30.5 -98.5q0 -60 30.5 -96.5t78.5 -36.5z" />
    <glyph glyph-name="gdotaccent.ss02" horiz-adv-x="600" 
d="M309 566q-38 0 -62 23t-24 60t24 60t62 23q39 0 62.5 -23t23.5 -60t-23.5 -60t-62.5 -23zM403 490h132v-467q0 -108 -70 -166.5t-212 -58.5q-88 0 -168 7v104q80 -7 161 -7q85 0 118.5 27.5t33.5 87.5v55q-44 -72 -147 -76q-97 0 -156.5 69.5t-59.5 178.5
q0 116 63.5 183.5t157.5 67.5q101 0 143 -68zM283 111q51 0 83 36.5t32 83.5v29q0 46 -31.5 83t-83.5 37q-48 0 -78.5 -37.5t-30.5 -98.5q0 -60 30.5 -96.5t78.5 -36.5z" />
    <glyph glyph-name="j.ss02" horiz-adv-x="268" 
d="M230 648q0 -37 -26 -61t-63 -24q-38 0 -63 24t-25 61t25 61.5t63 24.5q37 0 63 -25t26 -61zM2 -207q-35 0 -72 3v114q36 -2 51 -2q47 0 67.5 22t20.5 65v495h137v-500q0 -93 -54 -145t-150 -52z" />
    <glyph glyph-name="uni0237.ss02" horiz-adv-x="268" 
d="M2 -207q-35 0 -72 3v114q36 -2 51 -2q47 0 67.5 22t20.5 65v495h137v-500q0 -93 -54 -145t-150 -52z" />
    <glyph glyph-name="jcircumflex.ss02" horiz-adv-x="268" 
d="M-30 558l97 174h135l97 -174h-94l-70 89l-70 -89h-95zM2 -207q-35 0 -72 3v114q36 -2 51 -2q47 0 67.5 22t20.5 65v495h137v-500q0 -93 -54 -145t-150 -52z" />
    <glyph glyph-name="t.ss02" horiz-adv-x="397" 
d="M373 381h-146v-179q0 -45 20.5 -66t72.5 -22q24 0 53 3v-114q-39 -3 -74 -3q-102 1 -155.5 52t-53.5 145v184h-72v109h80v139h129v-139h146v-109z" />
    <glyph glyph-name="tbar.ss02" horiz-adv-x="397" 
d="M373 381h-146v-75h134v-79h-134v-25q0 -45 20.5 -66t72.5 -22q24 0 53 3v-114q-39 -3 -74 -3q-102 1 -155.5 52t-53.5 145v30h-61v79h61v75h-72v109h80v139h129v-139h146v-109z" />
    <glyph glyph-name="tcaron.ss02" horiz-adv-x="397" 
d="M333 625q-33 0 -52 19.5t-19 49.5q0 31 20 50t50 19q71 -2 71 -96q0 -66 -40 -107t-89 -40v56q22 0 40.5 14t18.5 35zM227 629v-139h146v-109h-146v-179q0 -45 20.5 -66t72.5 -22q24 0 53 3v-114q-39 -3 -74 -3q-102 1 -155.5 52t-53.5 145v184h-72v109h80v139h129z" />
    <glyph glyph-name="uni0163.ss02" horiz-adv-x="397" 
d="M373 381h-146v-179q0 -45 20.5 -66t72.5 -22q24 0 53 3v-114q-39 -3 -74 -3q-12 0 -32 2l-7 -35q36 -6 58 -26.5t22 -55.5q0 -45 -34.5 -71.5t-89.5 -26.5q-39 0 -69 13l17 72q22 -11 53 -11q45 0 45 25q0 30 -81 30l22 99q-113 43 -113 182v184h-72v109h80v139h129v-139
h146v-109z" />
    <glyph glyph-name="uni021B.ss02" horiz-adv-x="397" 
d="M373 381h-146v-179q0 -45 20.5 -66t72.5 -22q24 0 53 3v-114q-39 -3 -74 -3q-102 1 -155.5 52t-53.5 145v184h-72v109h80v139h129v-139h146v-109zM245 -42q71 0 71 -94q0 -76 -40 -122.5t-89 -44.5v56q22 0 40.5 19t18.5 49q-32 0 -51.5 19t-19.5 49q0 31 20 50t50 19z
" />
    <glyph glyph-name="y.ss02" horiz-adv-x="566" 
d="M368 490h137v-467q0 -108 -65 -166.5t-195 -58.5q-88 0 -168 7v104q80 -7 162 -7q71 0 102 28t31 87v66q-48 -82 -147 -82q-81 0 -125 50.5t-44 129.5v309h138v-277q0 -43 22 -68t61 -25q40 0 65.5 28.5t25.5 73.5v268z" />
    <glyph glyph-name="yacute.ss02" horiz-adv-x="566" 
d="M426 731l-96 -174h-109l45 174h160zM368 490h137v-467q0 -108 -65 -166.5t-195 -58.5q-88 0 -168 7v104q80 -7 162 -7q71 0 102 28t31 87v66q-48 -82 -147 -82q-81 0 -125 50.5t-44 129.5v309h138v-277q0 -43 22 -68t61 -25q40 0 65.5 28.5t25.5 73.5v268z" />
    <glyph glyph-name="ycircumflex.ss02" horiz-adv-x="566" 
d="M284 646l-70 -89h-95l97 174h135l97 -174h-94zM368 490h137v-467q0 -108 -65 -166.5t-195 -58.5q-88 0 -168 7v104q80 -7 162 -7q71 0 102 28t31 87v66q-48 -82 -147 -82q-81 0 -125 50.5t-44 129.5v309h138v-277q0 -43 22 -68t61 -25q40 0 65.5 28.5t25.5 73.5v268z" />
    <glyph glyph-name="ydieresis.ss02" horiz-adv-x="566" 
d="M183 574q-33 0 -53 19.5t-20 50.5q0 32 20 51.5t53 19.5q34 0 54 -19.5t20 -51.5q0 -31 -20.5 -50.5t-53.5 -19.5zM385 574q-32 0 -52.5 19.5t-20.5 50.5t20.5 51t52.5 20q34 0 54 -19.5t20 -51.5q0 -31 -20.5 -50.5t-53.5 -19.5zM368 490h137v-467q0 -108 -65 -166.5
t-195 -58.5q-88 0 -168 7v104q80 -7 162 -7q71 0 102 28t31 87v66q-48 -82 -147 -82q-81 0 -125 50.5t-44 129.5v309h138v-277q0 -43 22 -68t61 -25q40 0 65.5 28.5t25.5 73.5v268z" />
    <glyph glyph-name="ygrave.ss02" horiz-adv-x="566" 
d="M343 557h-109l-96 174h160zM368 490h137v-467q0 -108 -65 -166.5t-195 -58.5q-88 0 -168 7v104q80 -7 162 -7q71 0 102 28t31 87v66q-48 -82 -147 -82q-81 0 -125 50.5t-44 129.5v309h138v-277q0 -43 22 -68t61 -25q40 0 65.5 28.5t25.5 73.5v268z" />
    <glyph glyph-name="uni0233.ss02" horiz-adv-x="566" 
d="M447 692v-95h-309v95h309zM368 490h137v-467q0 -108 -65 -166.5t-195 -58.5q-88 0 -168 7v104q80 -7 162 -7q71 0 102 28t31 87v66q-48 -82 -147 -82q-81 0 -125 50.5t-44 129.5v309h138v-277q0 -43 22 -68t61 -25q40 0 65.5 28.5t25.5 73.5v268z" />
    <glyph glyph-name="uni1EF9.ss02" horiz-adv-x="566" 
d="M222 618q-38 0 -39 -43h-90q0 140 112 140q41 0 79.5 -22t55.5 -22q38 0 38 43h90q0 -69 -29 -104.5t-82 -35.5q-39 0 -78.5 22t-56.5 22zM368 490h137v-467q0 -108 -65 -166.5t-195 -58.5q-88 0 -168 7v104q80 -7 162 -7q71 0 102 28t31 87v66q-48 -82 -147 -82
q-81 0 -125 50.5t-44 129.5v309h138v-277q0 -43 22 -68t61 -25q40 0 65.5 28.5t25.5 73.5v268z" />
    <glyph glyph-name="y.ss03" horiz-adv-x="566" 
d="M368 490h137v-464q0 -112 -67 -175t-203 -63q-85 0 -165 32v107q84 -35 160 -35q77 0 109.5 32.5t32.5 96.5v62q-48 -82 -147 -82q-81 0 -125 50.5t-44 129.5v309h138v-277q0 -43 22 -68t61 -25q40 0 65.5 28.5t25.5 73.5v268z" />
    <glyph glyph-name="yacute.ss03" horiz-adv-x="566" 
d="M426 731l-96 -174h-109l45 174h160zM368 490h137v-464q0 -112 -67 -175t-203 -63q-85 0 -165 32v107q84 -35 160 -35q77 0 109.5 32.5t32.5 96.5v62q-48 -82 -147 -82q-81 0 -125 50.5t-44 129.5v309h138v-277q0 -43 22 -68t61 -25q40 0 65.5 28.5t25.5 73.5v268z" />
    <glyph glyph-name="ycircumflex.ss03" horiz-adv-x="566" 
d="M284 646l-70 -89h-95l97 174h135l97 -174h-94zM368 490h137v-464q0 -112 -67 -175t-203 -63q-85 0 -165 32v107q84 -35 160 -35q77 0 109.5 32.5t32.5 96.5v62q-48 -82 -147 -82q-81 0 -125 50.5t-44 129.5v309h138v-277q0 -43 22 -68t61 -25q40 0 65.5 28.5t25.5 73.5
v268z" />
    <glyph glyph-name="ydieresis.ss03" horiz-adv-x="566" 
d="M183 574q-33 0 -53 19.5t-20 50.5q0 32 20 51.5t53 19.5q34 0 54 -19.5t20 -51.5q0 -31 -20.5 -50.5t-53.5 -19.5zM385 574q-32 0 -52.5 19.5t-20.5 50.5t20.5 51t52.5 20q34 0 54 -19.5t20 -51.5q0 -31 -20.5 -50.5t-53.5 -19.5zM368 490h137v-464q0 -112 -67 -175
t-203 -63q-85 0 -165 32v107q84 -35 160 -35q77 0 109.5 32.5t32.5 96.5v62q-48 -82 -147 -82q-81 0 -125 50.5t-44 129.5v309h138v-277q0 -43 22 -68t61 -25q40 0 65.5 28.5t25.5 73.5v268z" />
    <glyph glyph-name="ygrave.ss03" horiz-adv-x="566" 
d="M343 557h-109l-96 174h160zM368 490h137v-464q0 -112 -67 -175t-203 -63q-85 0 -165 32v107q84 -35 160 -35q77 0 109.5 32.5t32.5 96.5v62q-48 -82 -147 -82q-81 0 -125 50.5t-44 129.5v309h138v-277q0 -43 22 -68t61 -25q40 0 65.5 28.5t25.5 73.5v268z" />
    <glyph glyph-name="uni0233.ss03" horiz-adv-x="566" 
d="M447 692v-95h-309v95h309zM368 490h137v-464q0 -112 -67 -175t-203 -63q-85 0 -165 32v107q84 -35 160 -35q77 0 109.5 32.5t32.5 96.5v62q-48 -82 -147 -82q-81 0 -125 50.5t-44 129.5v309h138v-277q0 -43 22 -68t61 -25q40 0 65.5 28.5t25.5 73.5v268z" />
    <glyph glyph-name="uni1EF9.ss03" horiz-adv-x="566" 
d="M222 618q-38 0 -39 -43h-90q0 140 112 140q41 0 79.5 -22t55.5 -22q38 0 38 43h90q0 -69 -29 -104.5t-82 -35.5q-39 0 -78.5 22t-56.5 22zM368 490h137v-464q0 -112 -67 -175t-203 -63q-85 0 -165 32v107q84 -35 160 -35q77 0 109.5 32.5t32.5 96.5v62q-48 -82 -147 -82
q-81 0 -125 50.5t-44 129.5v309h138v-277q0 -43 22 -68t61 -25q40 0 65.5 28.5t25.5 73.5v268z" />
    <glyph glyph-name="a.sc" horiz-adv-x="584" 
d="M446 0l-37 100h-235l-37 -100h-131l208 522h155l209 -522h-132zM211 199h161l-80 216z" />
    <glyph glyph-name="aacute.sc" horiz-adv-x="584" 
d="M437 762l-96 -174h-109l45 174h160zM446 0l-37 100h-235l-37 -100h-131l208 522h155l209 -522h-132zM211 199h161l-80 216z" />
    <glyph glyph-name="abreve.sc" horiz-adv-x="584" 
d="M300 585q-72 0 -114.5 46.5t-42.5 127.5h101q0 -80 55 -80q27 0 40.5 18.5t13.5 61.5h102q0 -81 -41.5 -127.5t-113.5 -46.5zM446 0l-37 100h-235l-37 -100h-131l208 522h155l209 -522h-132zM211 199h161l-80 216z" />
    <glyph glyph-name="acircumflex.sc" horiz-adv-x="584" 
d="M295 678l-70 -89h-95l97 174h135l97 -174h-94zM446 0l-37 100h-235l-37 -100h-131l208 522h155l209 -522h-132zM211 199h161l-80 216z" />
    <glyph glyph-name="adieresis.sc" horiz-adv-x="584" 
d="M197 605q-33 0 -53 19.5t-20 50.5q0 32 20 51.5t53 19.5q34 0 54 -19.5t20 -51.5q0 -31 -20.5 -50.5t-53.5 -19.5zM399 605q-32 0 -52.5 19.5t-20.5 50.5t20.5 51t52.5 20q34 0 54 -19.5t20 -51.5q0 -31 -20.5 -50.5t-53.5 -19.5zM446 0l-37 100h-235l-37 -100h-131
l208 522h155l209 -522h-132zM211 199h161l-80 216z" />
    <glyph glyph-name="uni1EA1.sc" horiz-adv-x="584" 
d="M578 0h-132l-37 100h-235l-37 -100h-131l208 522h155zM211 199h161l-80 216zM292 -50q39 0 62.5 -23t23.5 -60q0 -36 -23.5 -59.5t-62.5 -23.5q-38 0 -62 23.5t-24 59.5q0 37 24 60t62 23z" />
    <glyph glyph-name="agrave.sc" horiz-adv-x="584" 
d="M354 588h-109l-96 174h160zM446 0l-37 100h-235l-37 -100h-131l208 522h155l209 -522h-132zM211 199h161l-80 216z" />
    <glyph glyph-name="amacron.sc" horiz-adv-x="584" 
d="M451 723v-95h-309v95h309zM446 0l-37 100h-235l-37 -100h-131l208 522h155l209 -522h-132zM211 199h161l-80 216z" />
    <glyph glyph-name="aogonek.sc" horiz-adv-x="584" 
d="M599 -118l34 -60q-35 -37 -100 -37q-52 0 -81.5 27.5t-29.5 74.5q0 65 56 113h-32l-37 100h-235l-37 -100h-131l208 522h155l209 -522q-3 -1 -8 -4t-17.5 -12.5t-22 -20t-17.5 -26.5t-8 -33q0 -42 41 -42q33 0 53 20zM211 199h161l-80 216z" />
    <glyph glyph-name="aring.sc" horiz-adv-x="584" 
d="M295 576q-43 0 -73.5 27t-30.5 71t30.5 71.5t73.5 27.5t73 -27.5t30 -71.5t-30 -71t-73 -27zM295 707q-16 0 -25.5 -9t-9.5 -24t9.5 -24.5t25.5 -9.5q15 0 25 10t10 24t-9.5 23.5t-25.5 9.5zM446 0l-37 100h-235l-37 -100h-131l208 522h155l209 -522h-132zM211 199h161
l-80 216z" />
    <glyph glyph-name="aringacute.sc" horiz-adv-x="584" 
d="M295 576q-43 0 -73.5 27t-30.5 71t30.5 71.5t73.5 27.5q44 0 74 -28l49 96h100l-120 -173q-2 -41 -32 -66.5t-71 -25.5zM295 707q-16 0 -25.5 -9t-9.5 -24t9.5 -24.5t25.5 -9.5q29 0 34 27l1 1v6q0 14 -9.5 23.5t-25.5 9.5zM446 0l-37 100h-235l-37 -100h-131l208 522
h155l209 -522h-132zM211 199h161l-80 216z" />
    <glyph glyph-name="atilde.sc" horiz-adv-x="584" 
d="M227 649q-38 0 -39 -43h-90q0 140 112 140q41 0 79.5 -22t55.5 -22q38 0 38 43h90q0 -69 -29 -104.5t-82 -35.5q-39 0 -78.5 22t-56.5 22zM446 0l-37 100h-235l-37 -100h-131l208 522h155l209 -522h-132zM211 199h161l-80 216z" />
    <glyph glyph-name="ae.sc" horiz-adv-x="802" 
d="M504 109h256v-109h-387v100h-182l-58 -100h-140l303 522h460v-109h-252v-95h219v-107h-219v-102zM249 199h124v212h-1z" />
    <glyph glyph-name="aeacute.sc" horiz-adv-x="802" 
d="M549 766l-96 -174h-109l45 174h160zM504 109h256v-109h-387v100h-182l-58 -100h-140l303 522h460v-109h-252v-95h219v-107h-219v-102zM249 199h124v212h-1z" />
    <glyph glyph-name="b.sc" horiz-adv-x="561" 
d="M418 269q42 -9 74.5 -43t32.5 -85q0 -62 -49 -101.5t-122 -39.5h-287v522h274q76 0 121 -37t45 -95q0 -50 -28.5 -79.5t-60.5 -38.5v-3zM377 366q0 57 -79 57h-103v-115h105q77 0 77 58zM314 98q37 0 58.5 15.5t21.5 44.5t-23 45t-61 16h-115v-121h119z" />
    <glyph glyph-name="c.sc" horiz-adv-x="612" 
d="M317 109q119 0 136 91h129q-11 -91 -78 -148t-191 -57q-121 0 -199 75t-78 192q0 118 78.5 192t198.5 74q123 0 191 -57t78 -148h-129q-8 39 -42 65t-94 26q-64 0 -106.5 -42t-42.5 -111q1 -69 43 -110.5t106 -41.5z" />
    <glyph glyph-name="cacute.sc" horiz-adv-x="612" 
d="M360 588h-109l45 174h160zM317 109q119 0 136 91h129q-11 -91 -78 -148t-191 -57q-121 0 -199 75t-78 192q0 118 78.5 192t198.5 74q123 0 191 -57t78 -148h-129q-8 39 -42 65t-94 26q-64 0 -106.5 -42t-42.5 -111q1 -69 43 -110.5t106 -41.5z" />
    <glyph glyph-name="ccaron.sc" horiz-adv-x="612" 
d="M148 763h95l70 -89l70 89h95l-97 -174h-135zM317 109q119 0 136 91h129q-11 -91 -78 -148t-191 -57q-121 0 -199 75t-78 192q0 118 78.5 192t198.5 74q123 0 191 -57t78 -148h-129q-8 39 -42 65t-94 26q-64 0 -106.5 -42t-42.5 -111q1 -69 43 -110.5t106 -41.5z" />
    <glyph glyph-name="ccedilla.sc" horiz-adv-x="612" 
d="M317 109q119 0 136 91h129q-10 -87 -72.5 -143.5t-177.5 -61.5l-6 -27q36 -6 58 -26.5t22 -55.5q0 -45 -34.5 -71.5t-89.5 -26.5q-39 0 -69 13l17 72q22 -11 53 -11q45 0 45 25q0 30 -81 30l18 81q-102 15 -165.5 87t-63.5 177q0 118 78.5 192t198.5 74q123 0 191 -57
t78 -148h-129q-8 39 -42 65t-94 26q-64 0 -106.5 -42t-42.5 -111q1 -69 43 -110.5t106 -41.5z" />
    <glyph glyph-name="ccircumflex.sc" horiz-adv-x="612" 
d="M149 589l97 174h135l97 -174h-94l-70 89l-70 -89h-95zM317 109q119 0 136 91h129q-11 -91 -78 -148t-191 -57q-121 0 -199 75t-78 192q0 118 78.5 192t198.5 74q123 0 191 -57t78 -148h-129q-8 39 -42 65t-94 26q-64 0 -106.5 -42t-42.5 -111q1 -69 43 -110.5t106 -41.5z
" />
    <glyph glyph-name="cdotaccent.sc" horiz-adv-x="612" 
d="M314 763q39 0 62.5 -23t23.5 -60t-23.5 -60t-62.5 -23q-38 0 -62 23t-24 60t24 60t62 23zM317 109q119 0 136 91h129q-11 -91 -78 -148t-191 -57q-121 0 -199 75t-78 192q0 118 78.5 192t198.5 74q123 0 191 -57t78 -148h-129q-8 39 -42 65t-94 26q-64 0 -106.5 -42
t-42.5 -111q1 -69 43 -110.5t106 -41.5z" />
    <glyph glyph-name="d.sc" horiz-adv-x="628" 
d="M301 522q131 0 211 -70t80 -191t-80 -191t-211 -70h-234v522h234zM301 106q72 0 115 39t43 116t-43 115.5t-115 38.5h-102v-309h102z" />
    <glyph glyph-name="eth.sc" horiz-adv-x="636" 
d="M309 522q131 0 211 -70t80 -191t-80 -191t-211 -70h-234v226h-60v79h60v217h234zM309 106q72 0 115 39t43 116t-43 115.5t-115 38.5h-102v-110h120v-79h-120v-120h102z" />
    <glyph glyph-name="dcaron.sc" horiz-adv-x="628" 
d="M362 593h-135l-98 174h95l70 -89l70 89h95zM301 522q131 0 211 -70t80 -191t-80 -191t-211 -70h-234v522h234zM301 106q72 0 115 39t43 116t-43 115.5t-115 38.5h-102v-309h102z" />
    <glyph glyph-name="dcroat.sc" horiz-adv-x="636" 
d="M309 522q131 0 211 -70t80 -191t-80 -191t-211 -70h-234v226h-60v79h60v217h234zM309 106q72 0 115 39t43 116t-43 115.5t-115 38.5h-102v-110h120v-79h-120v-120h102z" />
    <glyph glyph-name="e.sc" horiz-adv-x="531" 
d="M198 108h291v-108h-422v522h418v-108h-287v-96h253v-107h-253v-103z" />
    <glyph glyph-name="eacute.sc" horiz-adv-x="531" 
d="M424 762l-96 -174h-109l45 174h160zM198 108h291v-108h-422v522h418v-108h-287v-96h253v-107h-253v-103z" />
    <glyph glyph-name="ebreve.sc" horiz-adv-x="531" 
d="M282 585q-72 0 -114.5 46.5t-42.5 127.5h101q0 -80 55 -80q27 0 40.5 18.5t13.5 61.5h102q0 -81 -41.5 -127.5t-113.5 -46.5zM198 108h291v-108h-422v522h418v-108h-287v-96h253v-107h-253v-103z" />
    <glyph glyph-name="ecaron.sc" horiz-adv-x="531" 
d="M350 589h-135l-98 174h95l70 -89l70 89h95zM198 108h291v-108h-422v522h418v-108h-287v-96h253v-107h-253v-103z" />
    <glyph glyph-name="ecircumflex.sc" horiz-adv-x="531" 
d="M282 678l-70 -89h-95l97 174h135l97 -174h-94zM198 108h291v-108h-422v522h418v-108h-287v-96h253v-107h-253v-103z" />
    <glyph glyph-name="edieresis.sc" horiz-adv-x="531" 
d="M185 605q-33 0 -53 19.5t-20 50.5q0 32 20 51.5t53 19.5q34 0 54 -19.5t20 -51.5q0 -31 -20.5 -50.5t-53.5 -19.5zM387 605q-32 0 -52.5 19.5t-20.5 50.5t20.5 51t52.5 20q34 0 54 -19.5t20 -51.5q0 -31 -20.5 -50.5t-53.5 -19.5zM198 108h291v-108h-422v522h418v-108
h-287v-96h253v-107h-253v-103z" />
    <glyph glyph-name="edotaccent.sc" horiz-adv-x="531" 
d="M282 597q-38 0 -62 23t-24 60t24 60t62 23q39 0 62.5 -23t23.5 -60t-23.5 -60t-62.5 -23zM198 108h291v-108h-422v522h418v-108h-287v-96h253v-107h-253v-103z" />
    <glyph glyph-name="uni1EB9.sc" horiz-adv-x="531" 
d="M198 108h291v-108h-422v522h418v-108h-287v-96h253v-107h-253v-103zM286 -50q39 0 62.5 -23t23.5 -60q0 -36 -23.5 -59.5t-62.5 -23.5q-38 0 -62 23.5t-24 59.5q0 37 24 60t62 23z" />
    <glyph glyph-name="egrave.sc" horiz-adv-x="531" 
d="M342 588h-109l-96 174h160zM198 108h291v-108h-422v522h418v-108h-287v-96h253v-107h-253v-103z" />
    <glyph glyph-name="emacron.sc" horiz-adv-x="531" 
d="M438 723v-95h-309v95h309zM198 108h291v-108h-422v522h418v-108h-287v-96h253v-107h-253v-103z" />
    <glyph glyph-name="eogonek.sc" horiz-adv-x="531" 
d="M510 -118l34 -60q-35 -37 -100 -37q-52 0 -81.5 27.5t-29.5 74.5q0 65 56 113h-322v522h418v-108h-287v-96h253v-107h-253v-103h291v-108q-3 -1 -8 -4t-17.5 -12.5t-22 -20t-17.5 -26.5t-8 -33q0 -42 41 -42q33 0 53 20z" />
    <glyph glyph-name="uni1EBD.sc" horiz-adv-x="531" 
d="M215 649q-38 0 -39 -43h-90q0 140 112 140q41 0 79.5 -22t55.5 -22q38 0 38 43h90q0 -69 -29 -104.5t-82 -35.5q-39 0 -78.5 22t-56.5 22zM198 108h291v-108h-422v522h418v-108h-287v-96h253v-107h-253v-103z" />
    <glyph glyph-name="uni0259.sc" horiz-adv-x="612" 
d="M298 527q124 0 200.5 -71t76.5 -191q0 -121 -78.5 -196t-199.5 -75q-127 0 -195 71.5t-68 191.5v29h406q-7 61 -47 94.5t-93 33.5q-51 0 -82 -19.5t-41 -48.5h-133q15 75 80 128t174 53zM299 105q44 0 80.5 23t52.5 68h-266q20 -91 133 -91z" />
    <glyph glyph-name="f.sc" horiz-adv-x="504" 
d="M475 415h-276v-125h242v-104h-242v-186h-132v522h408v-107z" />
    <glyph glyph-name="g.sc" horiz-adv-x="629" 
d="M325 278h259v-278h-94v68q-56 -73 -181 -73q-118 0 -195.5 75t-77.5 192q0 119 78.5 192.5t202.5 73.5q119 0 184.5 -54t76.5 -142h-130q-8 36 -40 59t-88 23q-67 0 -109.5 -42.5t-41.5 -111.5q0 -71 41 -113.5t109 -42.5q56 0 92.5 23t48.5 57h-135v94z" />
    <glyph glyph-name="gbreve.sc" horiz-adv-x="629" 
d="M312 593q-72 0 -114.5 46.5t-42.5 127.5h101q0 -80 55 -80q27 0 40.5 18.5t13.5 61.5h102q0 -81 -41.5 -127.5t-113.5 -46.5zM325 278h259v-278h-94v68q-56 -73 -181 -73q-118 0 -195.5 75t-77.5 192q0 119 78.5 192.5t202.5 73.5q119 0 184.5 -54t76.5 -142h-130
q-8 36 -40 59t-88 23q-67 0 -109.5 -42.5t-41.5 -111.5q0 -71 41 -113.5t109 -42.5q56 0 92.5 23t48.5 57h-135v94z" />
    <glyph glyph-name="gcaron.sc" horiz-adv-x="629" 
d="M380 596h-135l-98 174h95l70 -89l70 89h95zM325 278h259v-278h-94v68q-56 -73 -181 -73q-118 0 -195.5 75t-77.5 192q0 119 78.5 192.5t202.5 73.5q119 0 184.5 -54t76.5 -142h-130q-8 36 -40 59t-88 23q-67 0 -109.5 -42.5t-41.5 -111.5q0 -71 41 -113.5t109 -42.5
q56 0 92.5 23t48.5 57h-135v94z" />
    <glyph glyph-name="gcircumflex.sc" horiz-adv-x="629" 
d="M312 685l-70 -89h-95l97 174h135l97 -174h-94zM325 278h259v-278h-94v68q-56 -73 -181 -73q-118 0 -195.5 75t-77.5 192q0 119 78.5 192.5t202.5 73.5q119 0 184.5 -54t76.5 -142h-130q-8 36 -40 59t-88 23q-67 0 -109.5 -42.5t-41.5 -111.5q0 -71 41 -113.5t109 -42.5
q56 0 92.5 23t48.5 57h-135v94z" />
    <glyph glyph-name="gcommaaccent.sc" horiz-adv-x="629" 
d="M325 278h259v-278h-94v68q-56 -73 -181 -73q-118 0 -195.5 75t-77.5 192q0 119 78.5 192.5t202.5 73.5q119 0 184.5 -54t76.5 -142h-130q-8 36 -40 59t-88 23q-67 0 -109.5 -42.5t-41.5 -111.5q0 -71 41 -113.5t109 -42.5q56 0 92.5 23t48.5 57h-135v94zM309 -42
q71 0 71 -94q0 -76 -40 -122.5t-89 -44.5v56q22 0 40.5 19t18.5 49q-32 0 -51.5 19t-19.5 49q0 31 20 50t50 19z" />
    <glyph glyph-name="gdotaccent.sc" horiz-adv-x="629" 
d="M312 605q-38 0 -62 23t-24 60t24 60t62 23q39 0 62.5 -23t23.5 -60t-23.5 -60t-62.5 -23zM325 278h259v-278h-94v68q-56 -73 -181 -73q-118 0 -195.5 75t-77.5 192q0 119 78.5 192.5t202.5 73.5q119 0 184.5 -54t76.5 -142h-130q-8 36 -40 59t-88 23q-67 0 -109.5 -42.5
t-41.5 -111.5q0 -71 41 -113.5t109 -42.5q56 0 92.5 23t48.5 57h-135v94z" />
    <glyph glyph-name="h.sc" horiz-adv-x="643" 
d="M444 522h131v-522h-131v205h-245v-205h-132v522h132v-202h245v202z" />
    <glyph glyph-name="hbar.sc" horiz-adv-x="657" 
d="M636 469v-89h-54v-380h-131v205h-245v-205h-132v380h-51v89h51v53h132v-53h245v53h131v-53h54zM451 320v60h-245v-60h245z" />
    <glyph glyph-name="hcircumflex.sc" horiz-adv-x="643" 
d="M324 682l-70 -89h-95l97 174h135l97 -174h-94zM444 522h131v-522h-131v205h-245v-205h-132v522h132v-202h245v202z" />
    <glyph glyph-name="i.sc" horiz-adv-x="266" 
d="M67 0v522h132v-522h-132z" />
    <glyph glyph-name="iacute.sc" horiz-adv-x="266" 
d="M180 592h-109l45 174h160zM67 0v522h132v-522h-132z" />
    <glyph glyph-name="ibreve.sc" horiz-adv-x="266" 
d="M288 763q0 -81 -41.5 -127.5t-113.5 -46.5t-114.5 46.5t-42.5 127.5h101q0 -80 55 -80q27 0 40.5 18.5t13.5 61.5h102zM67 0v522h132v-522h-132z" />
    <glyph glyph-name="icircumflex.sc" horiz-adv-x="266" 
d="M-32 593l97 174h135l97 -174h-94l-70 89l-70 -89h-95zM67 0v522h132v-522h-132z" />
    <glyph glyph-name="idieresis.sc" horiz-adv-x="266" 
d="M36 750q34 0 54 -19.5t20 -51.5q0 -31 -20.5 -50.5t-53.5 -19.5t-53 19.5t-20 50.5q0 32 20 51.5t53 19.5zM238 750q34 0 54 -19.5t20 -51.5q0 -31 -20.5 -50.5t-53.5 -19.5q-32 0 -52.5 19.5t-20.5 50.5t20.5 51t52.5 20zM67 0v522h132v-522h-132z" />
    <glyph glyph-name="i.sc.loclTRK" horiz-adv-x="266" 
d="M134 767q39 0 62.5 -23t23.5 -60t-23.5 -60t-62.5 -23q-38 0 -62 23t-24 60t24 60t62 23zM67 0v522h132v-522h-132z" />
    <glyph glyph-name="uni1ECB.sc" horiz-adv-x="266" 
d="M67 0v522h132v-522h-132zM133 -50q39 0 62.5 -23t23.5 -60q0 -36 -23.5 -59.5t-62.5 -23.5q-38 0 -62 23.5t-24 59.5q0 37 24 60t62 23z" />
    <glyph glyph-name="igrave.sc" horiz-adv-x="266" 
d="M84 592l-96 174h160l45 -174h-109zM67 0v522h132v-522h-132z" />
    <glyph glyph-name="ij.sc" horiz-adv-x="756" 
d="M67 0v522h132v-522h-132zM419 185q0 -75 72 -75q70 0 70 69v343h132v-343q0 -86 -52 -134t-151 -48q-98 0 -149 48t-51 140h129z" />
    <glyph glyph-name="imacron.sc" horiz-adv-x="266" 
d="M-20 632v95h309v-95h-309zM67 0v522h132v-522h-132z" />
    <glyph glyph-name="iogonek.sc" horiz-adv-x="266" 
d="M220 -118l34 -60q-35 -37 -100 -37q-52 0 -81.5 27.5t-29.5 74.5q0 65 56 113h-32v522h132v-522q-3 -1 -8 -4t-17.5 -12.5t-22 -20t-17.5 -26.5t-8 -33q0 -42 41 -42q33 0 53 20z" />
    <glyph glyph-name="itilde.sc" horiz-adv-x="266" 
d="M66 653q-38 0 -39 -43h-90q0 140 112 140q41 0 79.5 -22t55.5 -22q38 0 38 43h90q0 -69 -29 -104.5t-82 -35.5q-39 0 -78.5 22t-56.5 22zM67 0v522h132v-522h-132z" />
    <glyph glyph-name="j.sc" horiz-adv-x="480" 
d="M143 185q0 -75 72 -75q70 0 70 69v343h132v-343q0 -86 -52 -134t-151 -48q-98 0 -149 48t-51 140h129z" />
    <glyph glyph-name="jcircumflex.sc" horiz-adv-x="480" 
d="M184 594l97 174h135l97 -174h-94l-70 89l-70 -89h-95zM143 185q0 -75 72 -75q70 0 70 69v343h132v-343q0 -86 -52 -134t-151 -48q-98 0 -149 48t-51 140h129z" />
    <glyph glyph-name="k.sc" horiz-adv-x="590" 
d="M444 0l-165 212l-80 -82v-130h-132v522h132v-243l228 243h154l-208 -224l223 -298h-152z" />
    <glyph glyph-name="kcommaaccent.sc" horiz-adv-x="590" 
d="M373 298l223 -298h-152l-165 212l-80 -82v-130h-132v522h132v-243l228 243h154zM300 -42q71 0 71 -94q0 -76 -40 -122.5t-89 -44.5v56q22 0 40.5 19t18.5 49q-32 0 -51.5 19t-19.5 49q0 31 20 50t50 19z" />
    <glyph glyph-name="l.sc" horiz-adv-x="496" 
d="M198 114h283v-114h-414v522h131v-408z" />
    <glyph glyph-name="lacute.sc" horiz-adv-x="496" 
d="M273 766l-96 -174h-109l45 174h160zM198 114h283v-114h-414v522h131v-408z" />
    <glyph glyph-name="lcaron.sc" horiz-adv-x="509" 
d="M383 400q-32 0 -51 19.5t-19 49.5q0 31 20 50t50 19q70 0 71 -95q-1 -75 -40.5 -121.5t-88.5 -45.5v56q22 0 40 19.5t18 48.5zM198 114h283v-114h-414v522h131v-408z" />
    <glyph glyph-name="lcommaaccent.sc" horiz-adv-x="496" 
d="M198 114h283v-114h-414v522h131v-408zM281 -42q71 0 71 -94q0 -76 -40 -122.5t-89 -44.5v56q22 0 40.5 19t18.5 49q-32 0 -51.5 19t-19.5 49q0 31 20 50t50 19z" />
    <glyph glyph-name="ldot.sc" horiz-adv-x="513" 
d="M198 114h283v-114h-414v522h131v-408zM373 209q-39 0 -62.5 23t-23.5 60t23.5 60t62.5 23t62.5 -23t23.5 -60t-23.5 -60t-62.5 -23z" />
    <glyph glyph-name="lslash.sc" horiz-adv-x="527" 
d="M229 114h283v-114h-414v194l-58 -34l-38 70l96 56v236h131v-160l73 43l39 -69l-112 -65v-157z" />
    <glyph glyph-name="m.sc" horiz-adv-x="766" 
d="M526 522h173v-522h-127v373l-146 -373h-86l-146 373v-373h-126l-1 522h173l143 -376z" />
    <glyph glyph-name="n.sc" horiz-adv-x="643" 
d="M447 522h128v-522h-122l-258 343v-343h-128v522h122l258 -343v343z" />
    <glyph glyph-name="nacute.sc" horiz-adv-x="643" 
d="M464 766l-96 -174h-109l45 174h160zM447 522h128v-522h-122l-258 343v-343h-128v522h122l258 -343v343z" />
    <glyph glyph-name="ncaron.sc" horiz-adv-x="643" 
d="M389 593h-135l-98 174h95l70 -89l70 89h95zM447 522h128v-522h-122l-258 343v-343h-128v522h122l258 -343v343z" />
    <glyph glyph-name="ncommaaccent.sc" horiz-adv-x="643" 
d="M447 522h128v-522h-122l-258 343v-343h-128v522h122l258 -343v343zM321 -42q71 0 71 -94q0 -76 -40 -122.5t-89 -44.5v56q22 0 40.5 19t18.5 49q-32 0 -51.5 19t-19.5 49q0 31 20 50t50 19z" />
    <glyph glyph-name="eng.sc" horiz-adv-x="643" 
d="M447 522h128v-526q0 -69 -47.5 -112t-126.5 -43q-41 0 -71 7l8 106q19 -7 40 -7q67 0 67 54v10l-250 331v-342h-128v522h122l258 -343v343z" />
    <glyph glyph-name="uni0272.sc" horiz-adv-x="642" 
d="M447 522h128v-522h-122l-257 341v-345q0 -69 -46.5 -112t-125.5 -43q-41 0 -71 7l7 106q21 -7 41 -7q66 0 66 54v521h122l258 -343v343z" />
    <glyph glyph-name="ntilde.sc" horiz-adv-x="643" 
d="M254 653q-38 0 -39 -43h-90q0 140 112 140q41 0 79.5 -22t55.5 -22q38 0 38 43h90q0 -69 -29 -104.5t-82 -35.5q-39 0 -78.5 22t-56.5 22zM447 522h128v-522h-122l-258 343v-343h-128v522h122l258 -343v343z" />
    <glyph glyph-name="o.sc" horiz-adv-x="650" 
d="M324 -5q-129 0 -208.5 72.5t-79.5 193.5t79.5 194t208.5 73q130 0 209.5 -72.5t79.5 -194.5q0 -121 -79.5 -193.5t-209.5 -72.5zM324 108q70 0 113 40.5t43 112.5t-43 112.5t-113 40.5t-113 -40.5t-43 -112.5q0 -71 43 -112t113 -41z" />
    <glyph glyph-name="oacute.sc" horiz-adv-x="650" 
d="M371 596h-109l45 174h160zM324 -5q-129 0 -208.5 72.5t-79.5 193.5t79.5 194t208.5 73q130 0 209.5 -72.5t79.5 -194.5q0 -121 -79.5 -193.5t-209.5 -72.5zM324 108q70 0 113 40.5t43 112.5t-43 112.5t-113 40.5t-113 -40.5t-43 -112.5q0 -71 43 -112t113 -41z" />
    <glyph glyph-name="obreve.sc" horiz-adv-x="650" 
d="M479 767q0 -81 -41.5 -127.5t-113.5 -46.5t-114.5 46.5t-42.5 127.5h101q0 -80 55 -80q27 0 40.5 18.5t13.5 61.5h102zM324 -5q-129 0 -208.5 72.5t-79.5 193.5t79.5 194t208.5 73q130 0 209.5 -72.5t79.5 -194.5q0 -121 -79.5 -193.5t-209.5 -72.5zM324 108
q70 0 113 40.5t43 112.5t-43 112.5t-113 40.5t-113 -40.5t-43 -112.5q0 -71 43 -112t113 -41z" />
    <glyph glyph-name="ocircumflex.sc" horiz-adv-x="650" 
d="M160 596l97 174h135l97 -174h-94l-70 89l-70 -89h-95zM324 -5q-129 0 -208.5 72.5t-79.5 193.5t79.5 194t208.5 73q130 0 209.5 -72.5t79.5 -194.5q0 -121 -79.5 -193.5t-209.5 -72.5zM324 108q70 0 113 40.5t43 112.5t-43 112.5t-113 40.5t-113 -40.5t-43 -112.5
q0 -71 43 -112t113 -41z" />
    <glyph glyph-name="odieresis.sc" horiz-adv-x="650" 
d="M227 754q34 0 54 -19.5t20 -51.5q0 -31 -20.5 -50.5t-53.5 -19.5t-53 19.5t-20 50.5q0 32 20 51.5t53 19.5zM429 754q34 0 54 -19.5t20 -51.5q0 -31 -20.5 -50.5t-53.5 -19.5q-32 0 -52.5 19.5t-20.5 50.5t20.5 51t52.5 20zM324 -5q-129 0 -208.5 72.5t-79.5 193.5
t79.5 194t208.5 73q130 0 209.5 -72.5t79.5 -194.5q0 -121 -79.5 -193.5t-209.5 -72.5zM324 108q70 0 113 40.5t43 112.5t-43 112.5t-113 40.5t-113 -40.5t-43 -112.5q0 -71 43 -112t113 -41z" />
    <glyph glyph-name="uni1ECD.sc" horiz-adv-x="650" 
d="M324 -5q-129 0 -208.5 72.5t-79.5 193.5t79.5 194t208.5 73q130 0 209.5 -72.5t79.5 -194.5q0 -121 -79.5 -193.5t-209.5 -72.5zM324 108q70 0 113 40.5t43 112.5t-43 112.5t-113 40.5t-113 -40.5t-43 -112.5q0 -71 43 -112t113 -41zM324 -50q39 0 62.5 -23t23.5 -60
q0 -36 -23.5 -59.5t-62.5 -23.5q-38 0 -62 23.5t-24 59.5q0 37 24 60t62 23z" />
    <glyph glyph-name="ograve.sc" horiz-adv-x="650" 
d="M275 596l-96 174h160l45 -174h-109zM324 -5q-129 0 -208.5 72.5t-79.5 193.5t79.5 194t208.5 73q130 0 209.5 -72.5t79.5 -194.5q0 -121 -79.5 -193.5t-209.5 -72.5zM324 108q70 0 113 40.5t43 112.5t-43 112.5t-113 40.5t-113 -40.5t-43 -112.5q0 -71 43 -112t113 -41z
" />
    <glyph glyph-name="ohungarumlaut.sc" horiz-adv-x="650" 
d="M255 596h-113l46 174h167zM463 596h-112l45 174h167zM324 -5q-129 0 -208.5 72.5t-79.5 193.5t79.5 194t208.5 73q130 0 209.5 -72.5t79.5 -194.5q0 -121 -79.5 -193.5t-209.5 -72.5zM324 108q70 0 113 40.5t43 112.5t-43 112.5t-113 40.5t-113 -40.5t-43 -112.5
q0 -71 43 -112t113 -41z" />
    <glyph glyph-name="omacron.sc" horiz-adv-x="650" 
d="M172 636v95h309v-95h-309zM324 -5q-129 0 -208.5 72.5t-79.5 193.5t79.5 194t208.5 73q130 0 209.5 -72.5t79.5 -194.5q0 -121 -79.5 -193.5t-209.5 -72.5zM324 108q70 0 113 40.5t43 112.5t-43 112.5t-113 40.5t-113 -40.5t-43 -112.5q0 -71 43 -112t113 -41z" />
    <glyph glyph-name="uni01EB.sc" horiz-adv-x="650" 
d="M418 7q-70 -43 -70 -95q0 -42 41 -42q33 0 53 20l34 -60q-35 -37 -100 -37q-52 0 -81.5 27.5t-29.5 74.5q0 56 42 100q-122 5 -196.5 77t-74.5 189q0 121 79.5 194t208.5 73q130 0 209.5 -72.5t79.5 -194.5q0 -97 -52.5 -163.5t-142.5 -90.5zM168 261q0 -71 43 -112
t113 -41t113 40.5t43 112.5t-43 112.5t-113 40.5t-113 -40.5t-43 -112.5z" />
    <glyph glyph-name="oslash.sc" horiz-adv-x="650" 
d="M502 479q111 -71 111 -218q0 -121 -79.5 -193.5t-209.5 -72.5q-60 0 -111 17l-30 -49h-88l51 81q-110 72 -110 217q0 121 79.5 194t208.5 73q60 0 114 -17l26 42h84zM168 261q0 -71 43 -112l162 259q-22 6 -49 6q-70 0 -113 -40.5t-43 -112.5zM324 108q70 0 113 40.5
t43 112.5q0 71 -43 112l-161 -259q22 -6 48 -6z" />
    <glyph glyph-name="oslashacute.sc" horiz-adv-x="650" 
d="M467 770l-96 -174h-109l45 174h160zM502 479q111 -71 111 -218q0 -121 -79.5 -193.5t-209.5 -72.5q-60 0 -111 17l-30 -49h-88l51 81q-110 72 -110 217q0 121 79.5 194t208.5 73q60 0 114 -17l26 42h84zM168 261q0 -71 43 -112l162 259q-22 6 -49 6q-70 0 -113 -40.5
t-43 -112.5zM324 108q70 0 113 40.5t43 112.5q0 71 -43 112l-161 -259q22 -6 48 -6z" />
    <glyph glyph-name="otilde.sc" horiz-adv-x="650" 
d="M257 657q-38 0 -39 -43h-90q0 140 112 140q41 0 79.5 -22t55.5 -22q38 0 38 43h90q0 -69 -29 -104.5t-82 -35.5q-39 0 -78.5 22t-56.5 22zM324 -5q-129 0 -208.5 72.5t-79.5 193.5t79.5 194t208.5 73q130 0 209.5 -72.5t79.5 -194.5q0 -121 -79.5 -193.5t-209.5 -72.5z
M324 108q70 0 113 40.5t43 112.5t-43 112.5t-113 40.5t-113 -40.5t-43 -112.5q0 -71 43 -112t113 -41z" />
    <glyph glyph-name="oe.sc" horiz-adv-x="945" 
d="M612 108h291v-108h-422v31q-66 -36 -157 -36q-129 0 -208.5 72.5t-79.5 193.5t79.5 194t208.5 73q88 0 157 -36v30h418v-108h-287v-96h253v-107h-253v-103zM324 108q70 0 113 40.5t43 112.5t-43 112.5t-113 40.5t-113 -40.5t-43 -112.5q0 -71 43 -112t113 -41z" />
    <glyph glyph-name="p.sc" horiz-adv-x="557" 
d="M315 522q104 0 161.5 -45.5t57.5 -129.5t-57.5 -129t-161.5 -45h-116v-173h-132v522h248zM315 279q41 0 63.5 18.5t22.5 49.5t-22.5 49.5t-63.5 18.5h-116v-136h116z" />
    <glyph glyph-name="thorn.sc" horiz-adv-x="565" 
d="M533 265q0 -84 -57 -129t-161 -45h-116v-91h-132v522h132v-83h116q104 0 161 -45t57 -129zM314 197q42 0 64 18t22 50t-22 50t-64 18h-115v-136h115z" />
    <glyph glyph-name="q.sc" horiz-adv-x="650" 
d="M613 261q0 -101 -57 -169t-154 -89q42 -25 109 -25l5 -117q-85 0 -149.5 38.5t-92.5 98.5q-109 14 -173.5 84t-64.5 179q0 121 79.5 194t208.5 73q130 0 209.5 -72.5t79.5 -194.5zM324 108q70 0 113 40.5t43 112.5t-43 112.5t-113 40.5t-113 -40.5t-43 -112.5
q0 -71 43 -112t113 -41z" />
    <glyph glyph-name="r.sc" horiz-adv-x="585" 
d="M552 100l7 -95q-27 -9 -64 -9q-61 0 -93 21t-58 64l-57 98h-89v-179h-131v522h239q103 0 162 -45t59 -126q0 -110 -107 -153l45 -71q18 -30 53 -30q20 0 34 3zM198 416v-138h108q43 0 66 18.5t23 50.5t-23 50.5t-66 18.5h-108z" />
    <glyph glyph-name="racute.sc" horiz-adv-x="585" 
d="M417 770l-96 -174h-109l45 174h160zM552 100l7 -95q-27 -9 -64 -9q-61 0 -93 21t-58 64l-57 98h-89v-179h-131v522h239q103 0 162 -45t59 -126q0 -110 -107 -153l45 -71q18 -30 53 -30q20 0 34 3zM198 416v-138h108q43 0 66 18.5t23 50.5t-23 50.5t-66 18.5h-108z" />
    <glyph glyph-name="rcaron.sc" horiz-adv-x="585" 
d="M343 596h-135l-98 174h95l70 -89l70 89h95zM552 100l7 -95q-27 -9 -64 -9q-61 0 -93 21t-58 64l-57 98h-89v-179h-131v522h239q103 0 162 -45t59 -126q0 -110 -107 -153l45 -71q18 -30 53 -30q20 0 34 3zM198 416v-138h108q43 0 66 18.5t23 50.5t-23 50.5t-66 18.5h-108z
" />
    <glyph glyph-name="rcommaaccent.sc" horiz-adv-x="585" 
d="M552 100l7 -95q-27 -9 -64 -9q-61 0 -93 21t-58 64l-57 98h-89v-179h-131v522h239q103 0 162 -45t59 -126q0 -110 -107 -153l45 -71q18 -30 53 -30q20 0 34 3zM198 416v-138h108q43 0 66 18.5t23 50.5t-23 50.5t-66 18.5h-108zM296 -42q71 0 71 -94q0 -76 -40 -122.5
t-89 -44.5v56q22 0 40.5 19t18.5 49q-32 0 -51.5 19t-19.5 49q0 31 20 50t50 19z" />
    <glyph glyph-name="s.sc" horiz-adv-x="542" 
d="M173 374q0 -26 34.5 -38.5t83.5 -19t97.5 -19t83 -48.5t34.5 -97q0 -74 -63.5 -116t-172.5 -42q-111 0 -174.5 43.5t-63.5 122.5h131q0 -61 109 -61q104 0 104 53q0 28 -34.5 42t-83.5 21t-97.5 19.5t-83 47t-34.5 92.5q0 69 62.5 111.5t165.5 42.5q105 0 165.5 -44
t60.5 -122l-131 1q0 60 -97 60q-96 0 -96 -49z" />
    <glyph glyph-name="sacute.sc" horiz-adv-x="542" 
d="M413 766l-96 -174h-109l45 174h160zM173 374q0 -26 34.5 -38.5t83.5 -19t97.5 -19t83 -48.5t34.5 -97q0 -74 -63.5 -116t-172.5 -42q-111 0 -174.5 43.5t-63.5 122.5h131q0 -61 109 -61q104 0 104 53q0 28 -34.5 42t-83.5 21t-97.5 19.5t-83 47t-34.5 92.5
q0 69 62.5 111.5t165.5 42.5q105 0 165.5 -44t60.5 -122l-131 1q0 60 -97 60q-96 0 -96 -49z" />
    <glyph glyph-name="scaron.sc" horiz-adv-x="542" 
d="M338 592h-135l-98 174h95l70 -89l70 89h95zM173 374q0 -26 34.5 -38.5t83.5 -19t97.5 -19t83 -48.5t34.5 -97q0 -74 -63.5 -116t-172.5 -42q-111 0 -174.5 43.5t-63.5 122.5h131q0 -61 109 -61q104 0 104 53q0 28 -34.5 42t-83.5 21t-97.5 19.5t-83 47t-34.5 92.5
q0 69 62.5 111.5t165.5 42.5q105 0 165.5 -44t60.5 -122l-131 1q0 60 -97 60q-96 0 -96 -49z" />
    <glyph glyph-name="scedilla.sc" horiz-adv-x="542" 
d="M506 152q0 -70 -57.5 -111.5t-157.5 -46.5l-6 -27q36 -6 58 -26.5t22 -55.5q0 -45 -34.5 -71.5t-89.5 -26.5q-39 0 -69 13l17 72q22 -11 53 -11q45 0 45 25q0 30 -81 30l18 80q-91 9 -141.5 51.5t-50.5 112.5h131q0 -61 109 -61q104 0 104 53q0 28 -34.5 42t-83.5 21
t-97.5 19.5t-83 47t-34.5 92.5q0 69 62.5 111.5t165.5 42.5q105 0 165.5 -44t60.5 -122l-131 1q0 60 -97 60q-96 0 -96 -49q0 -26 34.5 -38.5t83.5 -19t97.5 -19t83 -48.5t34.5 -97z" />
    <glyph glyph-name="scircumflex.sc" horiz-adv-x="542" 
d="M271 681l-70 -89h-95l97 174h135l97 -174h-94zM173 374q0 -26 34.5 -38.5t83.5 -19t97.5 -19t83 -48.5t34.5 -97q0 -74 -63.5 -116t-172.5 -42q-111 0 -174.5 43.5t-63.5 122.5h131q0 -61 109 -61q104 0 104 53q0 28 -34.5 42t-83.5 21t-97.5 19.5t-83 47t-34.5 92.5
q0 69 62.5 111.5t165.5 42.5q105 0 165.5 -44t60.5 -122l-131 1q0 60 -97 60q-96 0 -96 -49z" />
    <glyph glyph-name="scommaaccent.sc" horiz-adv-x="542" 
d="M173 374q0 -26 34.5 -38.5t83.5 -19t97.5 -19t83 -48.5t34.5 -97q0 -74 -63.5 -116t-172.5 -42q-111 0 -174.5 43.5t-63.5 122.5h131q0 -61 109 -61q104 0 104 53q0 28 -34.5 42t-83.5 21t-97.5 19.5t-83 47t-34.5 92.5q0 69 62.5 111.5t165.5 42.5q105 0 165.5 -44
t60.5 -122l-131 1q0 60 -97 60q-96 0 -96 -49zM270 -42q71 0 71 -94q0 -76 -40 -122.5t-89 -44.5v56q22 0 40.5 19t18.5 49q-32 0 -51.5 19t-19.5 49q0 31 20 50t50 19z" />
    <glyph glyph-name="germandbls.sc" horiz-adv-x="597" 
d="M437 298q59 -15 92 -50.5t33 -87.5q0 -73 -58 -116.5t-158 -43.5h-53v100h53q83 0 83 60q0 30 -22 46.5t-61 16.5h-41v84l67 106h-111q-67 0 -67 -60v-353h-132v359q0 71 48.5 117t131.5 46h288v-85z" />
    <glyph glyph-name="t.sc" horiz-adv-x="530" 
d="M199 0v413h-185v109h501v-109h-185v-413h-131z" />
    <glyph glyph-name="tbar.sc" horiz-adv-x="540" 
d="M520 413h-185v-116h113v-79h-113v-218h-131v218h-112v79h112v116h-185v109h501v-109z" />
    <glyph glyph-name="tcaron.sc" horiz-adv-x="530" 
d="M102 763h95l70 -89l70 89h95l-97 -174h-135zM199 0v413h-185v109h501v-109h-185v-413h-131z" />
    <glyph glyph-name="uni0163.sc" horiz-adv-x="530" 
d="M330 0h-36l-7 -33q36 -6 58 -26.5t22 -55.5q0 -45 -34.5 -71.5t-89.5 -26.5q-39 0 -69 13l17 72q22 -11 53 -11q45 0 45 25q0 30 -81 30l19 84h-28v413h-185v109h501v-109h-185v-413z" />
    <glyph glyph-name="uni021B.sc" horiz-adv-x="530" 
d="M199 0v413h-185v109h501v-109h-185v-413h-131zM212 -247q22 0 40.5 19t18.5 49q-32 0 -51.5 19t-19.5 49q0 31 20 50t50 19q71 0 71 -94q0 -76 -40 -122.5t-89 -44.5v56z" />
    <glyph glyph-name="u.sc" horiz-adv-x="624" 
d="M432 522h131v-311q0 -101 -67 -158.5t-184 -57.5q-118 0 -185 57.5t-67 158.5l1 310l131 1v-311q0 -50 31 -76.5t89 -26.5t89 26.5t31 76.5v311z" />
    <glyph glyph-name="uacute.sc" horiz-adv-x="624" 
d="M358 588h-109l45 174h160zM432 522h131v-311q0 -101 -67 -158.5t-184 -57.5q-118 0 -185 57.5t-67 158.5l1 310l131 1v-311q0 -50 31 -76.5t89 -26.5t89 26.5t31 76.5v311z" />
    <glyph glyph-name="ubreve.sc" horiz-adv-x="624" 
d="M467 759q0 -81 -41.5 -127.5t-113.5 -46.5t-114.5 46.5t-42.5 127.5h101q0 -80 55 -80q27 0 40.5 18.5t13.5 61.5h102zM432 522h131v-311q0 -101 -67 -158.5t-184 -57.5q-118 0 -185 57.5t-67 158.5l1 310l131 1v-311q0 -50 31 -76.5t89 -26.5t89 26.5t31 76.5v311z" />
    <glyph glyph-name="ucircumflex.sc" horiz-adv-x="624" 
d="M147 589l97 174h135l97 -174h-94l-70 89l-70 -89h-95zM432 522h131v-311q0 -101 -67 -158.5t-184 -57.5q-118 0 -185 57.5t-67 158.5l1 310l131 1v-311q0 -50 31 -76.5t89 -26.5t89 26.5t31 76.5v311z" />
    <glyph glyph-name="udieresis.sc" horiz-adv-x="624" 
d="M215 746q34 0 54 -19.5t20 -51.5q0 -31 -20.5 -50.5t-53.5 -19.5t-53 19.5t-20 50.5q0 32 20 51.5t53 19.5zM417 746q34 0 54 -19.5t20 -51.5q0 -31 -20.5 -50.5t-53.5 -19.5q-32 0 -52.5 19.5t-20.5 50.5t20.5 51t52.5 20zM432 522h131v-311q0 -101 -67 -158.5
t-184 -57.5q-118 0 -185 57.5t-67 158.5l1 310l131 1v-311q0 -50 31 -76.5t89 -26.5t89 26.5t31 76.5v311z" />
    <glyph glyph-name="uni1EE5.sc" horiz-adv-x="624" 
d="M432 522h131v-311q0 -101 -67 -158.5t-184 -57.5q-118 0 -185 57.5t-67 158.5l1 310l131 1v-311q0 -50 31 -76.5t89 -26.5t89 26.5t31 76.5v311zM312 -50q39 0 62.5 -23t23.5 -60q0 -36 -23.5 -59.5t-62.5 -23.5q-38 0 -62 23.5t-24 59.5q0 37 24 60t62 23z" />
    <glyph glyph-name="ugrave.sc" horiz-adv-x="624" 
d="M263 588l-96 174h160l45 -174h-109zM432 522h131v-311q0 -101 -67 -158.5t-184 -57.5q-118 0 -185 57.5t-67 158.5l1 310l131 1v-311q0 -50 31 -76.5t89 -26.5t89 26.5t31 76.5v311z" />
    <glyph glyph-name="uhungarumlaut.sc" horiz-adv-x="624" 
d="M243 588h-113l46 174h167zM451 588h-112l45 174h167zM432 522h131v-311q0 -101 -67 -158.5t-184 -57.5q-118 0 -185 57.5t-67 158.5l1 310l131 1v-311q0 -50 31 -76.5t89 -26.5t89 26.5t31 76.5v311z" />
    <glyph glyph-name="umacron.sc" horiz-adv-x="624" 
d="M159 628v95h309v-95h-309zM432 522h131v-311q0 -101 -67 -158.5t-184 -57.5q-118 0 -185 57.5t-67 158.5l1 310l131 1v-311q0 -50 31 -76.5t89 -26.5t89 26.5t31 76.5v311z" />
    <glyph glyph-name="uogonek.sc" horiz-adv-x="624" 
d="M432 522h131v-311q0 -78 -40 -130.5t-113 -72.5l1 -1q-3 -1 -8 -4t-17.5 -12.5t-22 -20t-17.5 -26.5t-8 -33q0 -42 41 -42q33 0 53 20l34 -60q-35 -37 -100 -37q-52 0 -81.5 27.5t-29.5 74.5q0 56 43 101q-112 4 -175 61t-63 155l1 310l131 1v-311q0 -50 31 -76.5
t89 -26.5t89 26.5t31 76.5v311z" />
    <glyph glyph-name="uring.sc" horiz-adv-x="624" 
d="M312 576q-43 0 -73.5 27t-30.5 71t30.5 71.5t73.5 27.5t73 -27.5t30 -71.5t-30 -71t-73 -27zM312 640q16 0 25.5 10t9.5 24t-9.5 23.5t-25.5 9.5t-25.5 -9t-9.5 -24t9.5 -24.5t25.5 -9.5zM432 522h131v-311q0 -101 -67 -158.5t-184 -57.5q-118 0 -185 57.5t-67 158.5
l1 310l131 1v-311q0 -50 31 -76.5t89 -26.5t89 26.5t31 76.5v311z" />
    <glyph glyph-name="utilde.sc" horiz-adv-x="624" 
d="M245 649q-38 0 -39 -43h-90q0 140 112 140q41 0 79.5 -22t55.5 -22q38 0 38 43h90q0 -69 -29 -104.5t-82 -35.5q-39 0 -78.5 22t-56.5 22zM432 522h131v-311q0 -101 -67 -158.5t-184 -57.5q-118 0 -185 57.5t-67 158.5l1 310l131 1v-311q0 -50 31 -76.5t89 -26.5t89 26.5
t31 76.5v311z" />
    <glyph glyph-name="v.sc" horiz-adv-x="573" 
d="M435 522h132l-209 -522h-144l-208 522h131l149 -397z" />
    <glyph glyph-name="w.sc" horiz-adv-x="842" 
d="M701 522h129l-159 -522h-151l-99 380l-100 -380h-150l-160 522h130l108 -408l102 408h140l101 -410z" />
    <glyph glyph-name="wacute.sc" horiz-adv-x="842" 
d="M564 762l-96 -174h-109l45 174h160zM701 522h129l-159 -522h-151l-99 380l-100 -380h-150l-160 522h130l108 -408l102 408h140l101 -410z" />
    <glyph glyph-name="wcircumflex.sc" horiz-adv-x="842" 
d="M422 678l-70 -89h-95l97 174h135l97 -174h-94zM701 522h129l-159 -522h-151l-99 380l-100 -380h-150l-160 522h130l108 -408l102 408h140l101 -410z" />
    <glyph glyph-name="wdieresis.sc" horiz-adv-x="842" 
d="M324 605q-33 0 -53 19.5t-20 50.5q0 32 20 51.5t53 19.5q34 0 54 -19.5t20 -51.5q0 -31 -20.5 -50.5t-53.5 -19.5zM526 605q-32 0 -52.5 19.5t-20.5 50.5t20.5 51t52.5 20q34 0 54 -19.5t20 -51.5q0 -31 -20.5 -50.5t-53.5 -19.5zM701 522h129l-159 -522h-151l-99 380
l-100 -380h-150l-160 522h130l108 -408l102 408h140l101 -410z" />
    <glyph glyph-name="wgrave.sc" horiz-adv-x="842" 
d="M481 588h-109l-96 174h160zM701 522h129l-159 -522h-151l-99 380l-100 -380h-150l-160 522h130l108 -408l102 408h140l101 -410z" />
    <glyph glyph-name="x.sc" horiz-adv-x="562" 
d="M558 0h-147l-129 192l-129 -192h-146l180 266l-176 256h147l123 -180l121 180h146l-172 -253z" />
    <glyph glyph-name="y.sc" horiz-adv-x="550" 
d="M544 522l-204 -328v-194h-131v194l-204 328h139l130 -215l131 215h139z" />
    <glyph glyph-name="yacute.sc" horiz-adv-x="550" 
d="M417 762l-96 -174h-109l45 174h160zM544 522l-204 -328v-194h-131v194l-204 328h139l130 -215l131 215h139z" />
    <glyph glyph-name="ycircumflex.sc" horiz-adv-x="550" 
d="M275 678l-70 -89h-95l97 174h135l97 -174h-94zM544 522l-204 -328v-194h-131v194l-204 328h139l130 -215l131 215h139z" />
    <glyph glyph-name="ydieresis.sc" horiz-adv-x="550" 
d="M177 605q-33 0 -53 19.5t-20 50.5q0 32 20 51.5t53 19.5q34 0 54 -19.5t20 -51.5q0 -31 -20.5 -50.5t-53.5 -19.5zM379 605q-32 0 -52.5 19.5t-20.5 50.5t20.5 51t52.5 20q34 0 54 -19.5t20 -51.5q0 -31 -20.5 -50.5t-53.5 -19.5zM544 522l-204 -328v-194h-131v194
l-204 328h139l130 -215l131 215h139z" />
    <glyph glyph-name="ygrave.sc" horiz-adv-x="550" 
d="M334 588h-109l-96 174h160zM544 522l-204 -328v-194h-131v194l-204 328h139l130 -215l131 215h139z" />
    <glyph glyph-name="uni0233.sc" horiz-adv-x="550" 
d="M431 723v-95h-309v95h309zM544 522l-204 -328v-194h-131v194l-204 328h139l130 -215l131 215h139z" />
    <glyph glyph-name="uni1EF9.sc" horiz-adv-x="550" 
d="M207 649q-38 0 -39 -43h-90q0 140 112 140q41 0 79.5 -22t55.5 -22q38 0 38 43h90q0 -69 -29 -104.5t-82 -35.5q-39 0 -78.5 22t-56.5 22zM544 522l-204 -328v-194h-131v194l-204 328h139l130 -215l131 215h139z" />
    <glyph glyph-name="z.sc" horiz-adv-x="549" 
d="M211 109h298v-109h-473v108l297 305h-288v109h463v-109z" />
    <glyph glyph-name="zacute.sc" horiz-adv-x="549" 
d="M409 766l-96 -174h-109l45 174h160zM211 109h298v-109h-473v108l297 305h-288v109h463v-109z" />
    <glyph glyph-name="zcaron.sc" horiz-adv-x="549" 
d="M335 592h-135l-98 174h95l70 -89l70 89h95zM211 109h298v-109h-473v108l297 305h-288v109h463v-109z" />
    <glyph glyph-name="zdotaccent.sc" horiz-adv-x="549" 
d="M267 601q-38 0 -62 23t-24 60t24 60t62 23q39 0 62.5 -23t23.5 -60t-23.5 -60t-62.5 -23zM211 109h298v-109h-473v108l297 305h-288v109h463v-109z" />
    <glyph glyph-name="k.sc.ss01" horiz-adv-x="590" 
d="M584 101l7 -96q-34 -9 -64 -9q-54 0 -85 19.5t-65 65.5l-97 133l-81 -84v-130h-132v522h132v-243l228 243h154l-208 -224l122 -168q24 -33 55 -33q23 0 34 4z" />
    <glyph glyph-name="kcommaaccent.sc.ss01" horiz-adv-x="590" 
d="M584 101l7 -96q-34 -9 -64 -9q-54 0 -85 19.5t-65 65.5l-97 133l-81 -84v-130h-132v522h132v-243l228 243h154l-208 -224l122 -168q24 -33 55 -33q23 0 34 4zM300 -42q71 0 71 -94q0 -76 -40 -122.5t-89 -44.5v56q22 0 40.5 19t18.5 49q-32 0 -51.5 19t-19.5 49
q0 31 20 50t50 19z" />
    <glyph glyph-name="r.sc.ss01" horiz-adv-x="572" 
d="M399 0l-96 178h-104v-178h-132v522h241q104 0 162 -45t58 -127q0 -102 -98 -148l114 -202h-145zM199 415v-136h108q43 0 65.5 18t22.5 50q0 31 -22.5 49.5t-65.5 18.5h-108z" />
    <glyph glyph-name="racute.sc.ss01" horiz-adv-x="572" 
d="M417 770l-96 -174h-109l45 174h160zM399 0l-96 178h-104v-178h-132v522h241q104 0 162 -45t58 -127q0 -102 -98 -148l114 -202h-145zM199 415v-136h108q43 0 65.5 18t22.5 50q0 31 -22.5 49.5t-65.5 18.5h-108z" />
    <glyph glyph-name="rcaron.sc.ss01" horiz-adv-x="572" 
d="M343 596h-135l-98 174h95l70 -89l70 89h95zM399 0l-96 178h-104v-178h-132v522h241q104 0 162 -45t58 -127q0 -102 -98 -148l114 -202h-145zM199 415v-136h108q43 0 65.5 18t22.5 50q0 31 -22.5 49.5t-65.5 18.5h-108z" />
    <glyph glyph-name="rcommaaccent.sc.ss01" horiz-adv-x="572" 
d="M430 202l114 -202h-145l-96 178h-104v-178h-132v522h241q104 0 162 -45t58 -127q0 -102 -98 -148zM199 415v-136h108q43 0 65.5 18t22.5 50q0 31 -22.5 49.5t-65.5 18.5h-108zM296 -42q71 0 71 -94q0 -76 -40 -122.5t-89 -44.5v56q22 0 40.5 19t18.5 49q-32 0 -51.5 19
t-19.5 49q0 31 20 50t50 19z" />
    <glyph glyph-name="zero.sinf" horiz-adv-x="420" 
d="M209 -85q-85 0 -133 55t-48 156q0 102 48 157.5t134 55.5q85 0 133 -56t48 -157t-48 -156t-134 -55zM210 4q76 0 76 122q0 125 -76 125q-77 0 -77 -125q0 -122 77 -122z" />
    <glyph glyph-name="one.sinf" horiz-adv-x="297" 
d="M215 6h67v-86h-250v86h80v199q-27 -9 -79 -9v85q75 0 102 53h80v-328z" />
    <glyph glyph-name="two.sinf" horiz-adv-x="365" 
d="M187 6h146v-86h-304v68l151 138q47 42 47 80q-1 45 -45 45q-24 0 -37.5 -15.5t-13.5 -42.5h-104q0 67 43 107t112 40t108.5 -36.5t39.5 -97.5q0 -70 -75 -138z" />
    <glyph glyph-name="three.sinf" horiz-adv-x="377" 
d="M299 131q50 -31 50 -90t-46 -92.5t-118 -33.5q-71 0 -115.5 36t-44.5 98l103 -1q1 -44 60 -44q27 0 42 11t15 30q-1 43 -63 43h-40v79h37q55 0 55 42t-47 42q-51 0 -51 -54h-104q0 65 41.5 103.5t110.5 38.5q67 0 111 -35.5t44 -91.5q0 -52 -40 -81z" />
    <glyph glyph-name="four.sinf" horiz-adv-x="390" 
d="M368 88v-85h-51v-83h-103v83h-196v83l164 248h135v-246h51zM121 90v-1h98v150h-1z" />
    <glyph glyph-name="five.sinf" horiz-adv-x="368" 
d="M191 194q66 0 109.5 -36.5t43.5 -103.5q0 -63 -47 -101t-117 -38q-69 0 -114.5 35t-45.5 95h103q1 -41 56 -41q27 0 43.5 12.5t16.5 37.5q0 52 -58 52q-29 0 -54 -17l-90 31l23 214h258v-86h-175l-6 -61q28 7 54 7z" />
    <glyph glyph-name="six.sinf" horiz-adv-x="392" 
d="M219 182q62 1 104 -34t42 -94q0 -62 -42.5 -100.5t-114.5 -38.5q-85 0 -132.5 55.5t-47.5 154.5q0 102 47.5 157.5t131.5 55.5q67 0 108.5 -35t40.5 -91h-98q-1 38 -51 38q-70 0 -76 -101q35 33 88 33zM205 4q26 0 41.5 13t15.5 37q0 48 -58 48q-33 0 -51 -19t-7 -50
q17 -29 59 -29z" />
    <glyph glyph-name="seven.sinf" horiz-adv-x="339" 
d="M56 -80l156 327v1h-197v86h310v-81l-155 -333h-114z" />
    <glyph glyph-name="eight.sinf" horiz-adv-x="382" 
d="M302 138q52 -34 52 -94q0 -62 -44 -95.5t-119 -33.5q-76 0 -120 33.5t-44 95.5q0 59 53 94q-40 33 -40 80q0 59 43 90t108 31t107.5 -31t42.5 -90q0 -48 -39 -80zM191 258q-24 0 -38 -11.5t-14 -31.5q0 -21 14.5 -32t37.5 -11q24 0 38 11.5t13 31.5q1 19 -13.5 31
t-37.5 12zM191 -2q61 0 61 48q0 23 -16 36t-45 13q-28 0 -44.5 -13t-16.5 -36q0 -48 61 -48z" />
    <glyph glyph-name="nine.sinf" horiz-adv-x="392" 
d="M184 338q86 0 133 -54t47 -156q0 -101 -47.5 -157t-131.5 -56q-67 0 -108.5 35.5t-41.5 91.5l98 -1q1 -37 51 -37q70 0 76 100q-35 -32 -87 -32q-63 -1 -105 34t-42 94q0 61 43 99.5t115 38.5zM187 152q30 0 49 16.5t13 43.5q-15 38 -62 38q-27 0 -42.5 -13t-15.5 -37
q0 -48 58 -48z" />
    <glyph glyph-name="zero.tf" horiz-adv-x="638" 
d="M319 -6q-132 0 -205.5 91t-73.5 259t73.5 259.5t205.5 91.5t205.5 -91.5t73.5 -259.5t-73.5 -259t-205.5 -91zM319 114q139 0 139 230q0 231 -139 231q-140 0 -140 -231q0 -230 140 -230z" />
    <glyph glyph-name="one.tf" horiz-adv-x="638" 
d="M417 116h150v-116h-465v116h177v397q-61 -24 -176 -24v115q76 0 125.5 19t83.5 64h105v-571z" />
    <glyph glyph-name="two.tf" horiz-adv-x="638" 
d="M284 116h292v-116h-510v92l268 236q93 81 93 154q0 45 -29 69t-78 24q-54 0 -87 -30t-32 -86h-139q0 111 72.5 174t187.5 63q112 0 178.5 -57.5t66.5 -156.5q0 -66 -32.5 -121.5t-102.5 -116.5z" />
    <glyph glyph-name="three.tf" horiz-adv-x="638" 
d="M579 196q1 -92 -75.5 -147.5t-191.5 -55.5q-116 0 -189 59t-73 163l138 -1q0 -51 35 -75.5t93 -24.5q57 0 90.5 23t33.5 64q-1 94 -131 94h-68v105h63q53 0 86 23t34 65q0 43 -30.5 65t-78.5 22q-50 0 -81.5 -26t-32.5 -79h-137q-1 104 67 164.5t181 61.5q109 0 180 -55
t72 -148q0 -91 -79 -141q93 -51 94 -156z" />
    <glyph glyph-name="four.tf" horiz-adv-x="638" 
d="M598 266v-117h-91v-149h-137v149h-338v111l298 427h177v-421h91zM171 267v-1h206v289h-1z" />
    <glyph glyph-name="five.tf" horiz-adv-x="638" 
d="M331 448q111 0 181 -60t71 -168q0 -104 -75 -165.5t-192 -61.5q-114 0 -188.5 58.5t-74.5 154.5h138q1 -45 35.5 -68.5t88.5 -23.5q58 0 93 28t35 78q0 53 -34 81t-92 28q-63 0 -116 -37l-119 42l37 353h423v-116h-312l-15 -143q55 20 116 20z" />
    <glyph glyph-name="six.tf" horiz-adv-x="638" 
d="M355 434q101 0 166.5 -58.5t65.5 -154.5q0 -100 -67 -164t-181 -64q-133 0 -207.5 91t-74.5 256q0 170 74.5 262.5t206.5 92.5q103 0 168.5 -55t65.5 -142h-138q-1 38 -27 57t-68 19q-139 0 -145 -209q62 69 161 69zM334 114q53 0 84 29t31 78q0 47 -30 76t-84 29
q-67 0 -103.5 -47t-3.5 -111h-1q34 -54 107 -54z" />
    <glyph glyph-name="seven.tf" horiz-adv-x="638" 
d="M145 0l286 570v1h-377v116h527v-112l-284 -575h-152z" />
    <glyph glyph-name="eight.tf" horiz-adv-x="638" 
d="M484 361q98 -54 98 -161q0 -99 -71 -153t-192 -54q-122 0 -192.5 54.5t-70.5 152.5q0 107 98 161q-75 53 -75 140q0 92 67 143t173 51t173 -51t67 -143q0 -87 -75 -140zM319 585q-51 0 -80 -24.5t-29 -64.5q0 -41 29.5 -65t80.5 -24q52 0 80.5 25t27.5 64q1 39 -28.5 64
t-80.5 25zM319 104q60 0 93.5 26t33.5 73q0 46 -33.5 72.5t-92.5 26.5t-93.5 -26.5t-34.5 -72.5q1 -48 34.5 -73.5t92.5 -25.5z" />
    <glyph glyph-name="nine.tf" horiz-adv-x="638" 
d="M299 695q134 0 209.5 -89.5t75.5 -257.5q0 -170 -76 -262.5t-209 -92.5q-104 0 -170 55t-66 142h138q1 -38 27.5 -57t70.5 -19q142 0 148 211q-63 -71 -165 -71t-168.5 58.5t-66.5 154.5q0 100 68 164t184 64zM303 362q69 0 106 47t3 111q-34 54 -109 54q-54 0 -85.5 -29
t-31.5 -78q0 -47 30.5 -76t86.5 -29z" />
    <glyph glyph-name="zero.dnom" horiz-adv-x="420" 
d="M209 -5q-85 0 -133 55t-48 156q0 102 48 157.5t134 55.5q85 0 133 -56t48 -157t-48 -156t-134 -55zM210 84q76 0 76 122q0 125 -76 125q-77 0 -77 -125q0 -122 77 -122z" />
    <glyph glyph-name="one.dnom" horiz-adv-x="297" 
d="M215 86h67v-86h-250v86h80v199q-27 -9 -79 -9v85q75 0 102 53h80v-328z" />
    <glyph glyph-name="two.dnom" horiz-adv-x="365" 
d="M188 86h147v-86h-305v68l150 138q47 42 47 80q0 45 -45 45q-24 0 -37.5 -15.5t-13.5 -42.5h-104q0 67 43 107t112 40t108.5 -36.5t39.5 -97.5q0 -69 -75 -138z" />
    <glyph glyph-name="three.dnom" horiz-adv-x="377" 
d="M298 211q50 -30 51 -90q0 -59 -46.5 -92.5t-118.5 -33.5q-71 0 -115.5 36t-44.5 98l104 -1q0 -44 59 -44q27 0 42 11t15 30q0 43 -63 43h-40v79h38q53 0 55 42q0 42 -48 42q-51 0 -51 -54h-103q-1 66 41 104t111 38q67 0 111 -35.5t43 -91.5q0 -51 -40 -81z" />
    <glyph glyph-name="four.dnom" horiz-adv-x="390" 
d="M367 168v-85h-52v-83h-103v83h-196v83l165 248h134v-246h52zM120 170v-1h97v150h-1z" />
    <glyph glyph-name="five.dnom" horiz-adv-x="368" 
d="M191 274q67 0 110 -36.5t44 -103.5q0 -63 -47.5 -101t-117.5 -38q-68 0 -114 35t-46 95h104q0 -41 56 -41q26 0 43 13t17 37q0 25 -16 38.5t-42 13.5q-31 0 -54 -17l-90 31l23 214h258v-86h-175l-6 -61q28 7 53 7z" />
    <glyph glyph-name="six.dnom" horiz-adv-x="392" 
d="M219 262q62 1 104 -34t42 -94q0 -62 -42.5 -100.5t-114.5 -38.5q-85 0 -132.5 56t-47.5 154q0 102 47.5 157.5t131.5 55.5q67 0 108.5 -35t41.5 -91h-99q0 38 -50 38q-70 0 -76 -100q35 32 87 32zM205 84q26 0 42 13t16 37q0 48 -58 48q-31 0 -49.5 -17t-12.5 -45
q15 -36 62 -36z" />
    <glyph glyph-name="seven.dnom" horiz-adv-x="339" 
d="M56 0l156 327v2l-197 -1v86h310v-81l-155 -333h-114z" />
    <glyph glyph-name="eight.dnom" horiz-adv-x="382" 
d="M302 218q52 -34 52 -94q0 -62 -44 -95.5t-119 -33.5q-76 0 -120 33.5t-44 95.5q0 59 53 94q-40 33 -40 80q0 59 43 90t108 31t107.5 -31t42.5 -90q0 -48 -39 -80zM191 338q-24 0 -38 -11.5t-14 -31.5q0 -21 14.5 -32t37.5 -11q24 0 38 11.5t13 31.5q1 19 -13.5 31
t-37.5 12zM191 78q61 0 61 48q0 23 -16 36t-45 13q-28 0 -44.5 -13t-16.5 -36q0 -48 61 -48z" />
    <glyph glyph-name="nine.dnom" horiz-adv-x="392" 
d="M183 418q86 0 133 -54t47 -156q0 -101 -47.5 -157t-131.5 -56q-67 0 -108.5 35.5t-40.5 91.5l98 -1q0 -37 50 -37q71 0 77 100q-35 -32 -88 -32q-63 -1 -104.5 34t-41.5 94q0 61 42.5 99.5t114.5 38.5zM186 232q30 0 49 16.5t14 43.5q-15 38 -63 38q-26 0 -42 -13
t-16 -37q0 -22 15.5 -35t42.5 -13z" />
    <glyph glyph-name="zero.numr" horiz-adv-x="420" 
d="M209 279q-85 0 -133 55t-48 156t48 156.5t134 55.5q85 0 133 -55.5t48 -156.5t-48 -156t-134 -55zM210 367q76 0 76 123q0 124 -76 124q-77 0 -77 -124q0 -123 77 -123z" />
    <glyph glyph-name="one.numr" horiz-adv-x="297" 
d="M215 370h67v-85h-250v85h80v199q-31 -9 -79 -9v85q75 0 102 54h80v-329z" />
    <glyph glyph-name="two.numr" horiz-adv-x="365" 
d="M187 368h146v-86h-304v68l151 138q47 44 47 81q0 45 -45 45q-23 0 -37 -15.5t-14 -42.5l-104 -1q0 67 43 107t112 40t108.5 -36.5t39.5 -96.5q0 -71 -75 -139z" />
    <glyph glyph-name="three.numr" horiz-adv-x="377" 
d="M298 494q51 -31 51 -90t-46.5 -92.5t-118.5 -33.5q-71 0 -115.5 36t-44.5 98l104 -1q0 -44 59 -44q27 0 42 11t15 30q0 43 -63 43h-40v79h38q53 0 55 41q0 43 -48 43q-51 0 -51 -54h-103q-1 66 41 104t111 38q67 0 111 -35.5t43 -91.5q0 -51 -40 -81z" />
    <glyph glyph-name="four.numr" horiz-adv-x="390" 
d="M366 453v-85h-51v-83h-103v83h-196v83l164 248h135v-246h51zM119 454v-1h98v151h-1z" />
    <glyph glyph-name="five.numr" horiz-adv-x="368" 
d="M191 559q67 0 110 -36t44 -104q0 -63 -47 -100.5t-118 -37.5q-69 0 -114.5 34.5t-45.5 94.5h104q0 -41 56 -41q26 0 43 13t17 37q0 25 -16 38.5t-42 13.5q-31 0 -54 -17l-90 31l23 214h258v-86h-175l-6 -61q28 7 53 7z" />
    <glyph glyph-name="six.numr" horiz-adv-x="392" 
d="M219 546q62 1 104 -34t42 -94q0 -62 -42.5 -100.5t-114.5 -38.5q-85 0 -132.5 56t-47.5 154q0 102 47.5 157.5t131.5 55.5q67 0 108.5 -35t41.5 -91h-99q0 38 -50 38q-70 0 -76 -100q35 32 87 32zM205 368q26 0 42 13t16 37q0 48 -58 48q-31 0 -49.5 -17t-12.5 -45
q15 -36 62 -36z" />
    <glyph glyph-name="seven.numr" horiz-adv-x="339" 
d="M55 285l156 327v1h-197v86h311v-81l-155 -333h-115z" />
    <glyph glyph-name="eight.numr" horiz-adv-x="382" 
d="M302 501q52 -34 52 -94q0 -62 -44 -95t-119 -33q-76 0 -120 33t-44 95q0 59 53 94q-40 33 -40 80q0 59 43 90t108 31t107.5 -31t42.5 -90q0 -48 -39 -80zM191 621q-24 0 -38 -11.5t-14 -31.5t14.5 -31.5t37.5 -11.5q24 0 38 11.5t13 31.5q1 19 -13.5 31t-37.5 12z
M191 361q61 0 61 48q0 23 -16 36t-45 13q-28 0 -44.5 -13t-16.5 -36q0 -48 61 -48z" />
    <glyph glyph-name="nine.numr" horiz-adv-x="392" 
d="M183 702q86 0 133 -54t47 -156q0 -101 -47.5 -157t-131.5 -56q-67 0 -108.5 35.5t-40.5 91.5l98 -1q0 -37 50 -37q71 0 77 100q-35 -32 -88 -32q-63 -1 -104.5 34t-41.5 94q0 61 42.5 99.5t114.5 38.5zM186 516q30 0 49 16.5t14 43.5q-15 38 -63 38q-26 0 -42 -13
t-16 -37q0 -22 15.5 -35t42.5 -13z" />
    <glyph glyph-name="zero.sups" horiz-adv-x="420" 
d="M209 345q-85 0 -133 55t-48 156t48 156.5t134 55.5q85 0 133 -55.5t48 -156.5t-48 -156t-134 -55zM210 433q76 0 76 123q0 124 -76 124q-77 0 -77 -124q0 -123 77 -123z" />
    <glyph glyph-name="one.sups" horiz-adv-x="297" 
d="M215 434h66v-86h-250v86h80v199q-26 -9 -78 -9v85q75 0 101 53h81v-328z" />
    <glyph glyph-name="two.sups" horiz-adv-x="365" 
d="M186 434h147v-85h-304v67l151 138q45 42 45 81q0 45 -42 45q-24 0 -38 -15t-14 -43l-104 -1q0 68 43 108t112 40t108.5 -37t39.5 -97q0 -70 -75 -138z" />
    <glyph glyph-name="three.sups" horiz-adv-x="377" 
d="M299 560q50 -33 50 -91q0 -55 -47 -90t-118 -35t-115.5 36t-44.5 98l104 -1q1 -44 59 -44q57 0 57 40q-1 44 -63 44h-40v79h38q53 0 55 42q0 42 -48 42q-50 0 -51 -54h-103q-1 65 41 103.5t111 38.5q67 0 111 -35.5t44 -91.5q0 -51 -40 -81z" />
    <glyph glyph-name="four.sups" horiz-adv-x="390" 
d="M366 517v-85h-51v-83h-103v83h-196v83l164 248h135v-246h51zM120 518v-1h97v151h-1z" />
    <glyph glyph-name="five.sups" horiz-adv-x="368" 
d="M192 623q66 0 109 -36.5t44 -103.5q0 -63 -47.5 -101t-117.5 -38q-68 0 -114 35t-46 95h104q0 -41 56 -41q26 0 43 13t17 37q0 25 -16 38.5t-42 13.5q-31 0 -54 -17l-90 31l23 214h258v-86h-175l-6 -61q28 7 54 7z" />
    <glyph glyph-name="six.sups" horiz-adv-x="392" 
d="M219 611q62 1 104 -34t42 -94q0 -62 -42.5 -100.5t-114.5 -38.5q-85 0 -132.5 56t-47.5 154q0 102 47.5 157.5t131.5 55.5q67 0 108.5 -35t41.5 -91h-104q0 38 -45 38q-70 0 -76 -100q35 32 87 32zM205 433q26 0 42 13t16 37q0 48 -58 48q-31 0 -49.5 -17t-12.5 -45
q15 -36 62 -36z" />
    <glyph glyph-name="seven.sups" horiz-adv-x="339" 
d="M55 349l156 327v1h-197v86h311v-81l-155 -333h-115z" />
    <glyph glyph-name="eight.sups" horiz-adv-x="382" 
d="M302 567q52 -34 52 -94q0 -62 -44 -95.5t-119 -33.5q-76 0 -120 33.5t-44 95.5q0 59 53 94q-40 33 -40 80q0 59 43 90t108 31t107.5 -31t42.5 -90q0 -48 -39 -80zM191 687q-24 0 -38 -11.5t-14 -31.5q0 -21 14.5 -32t37.5 -11q24 0 38 11.5t13 31.5q1 19 -13.5 31
t-37.5 12zM191 427q61 0 61 48q0 23 -16 36t-45 13q-28 0 -44.5 -13t-16.5 -36q0 -48 61 -48z" />
    <glyph glyph-name="nine.sups" horiz-adv-x="392" 
d="M183 767q86 0 133 -54t47 -156q0 -101 -47.5 -157t-131.5 -56q-67 0 -108.5 35.5t-40.5 91.5l103 -1q1 -37 45 -37q71 0 77 100q-35 -32 -88 -32q-63 -1 -104.5 34t-41.5 94q0 61 42.5 99.5t114.5 38.5zM186 581q31 0 50 17.5t12 45.5q-15 35 -62 35q-26 0 -42 -13
t-16 -37q0 -22 15.5 -35t42.5 -13z" />
    <glyph glyph-name="zero.sc" horiz-adv-x="574" 
d="M287 -6q-117 0 -182.5 70t-65.5 198q0 127 65.5 197t182.5 70t182.5 -70t65.5 -197q0 -128 -65.5 -198t-182.5 -70zM287 114q108 0 108 148q0 147 -108 147q-109 0 -109 -147q0 -148 109 -148z" />
    <glyph glyph-name="one.sc" horiz-adv-x="398" 
d="M286 114h90v-114h-334v114h106v245q-42 -15 -103 -15v113q51 0 81.5 14t50.5 51h109v-408z" />
    <glyph glyph-name="two.sc" horiz-adv-x="492" 
d="M253 108h197v-108h-411v84l214 178q60 50 60 95q0 27 -18.5 42t-49.5 15q-35 0 -56.5 -18.5t-21.5 -55.5h-131q0 89 57 138t152 49q93 0 146.5 -45.5t53.5 -122.5q0 -53 -25 -94.5t-84 -89.5z" />
    <glyph glyph-name="three.sc" horiz-adv-x="503" 
d="M464 152q1 -72 -58.5 -115t-157.5 -43q-97 0 -156.5 47.5t-59.5 131.5l128 -1q0 -66 90 -66q40 0 62.5 13.5t22.5 38.5q-1 58 -89 58h-58v93h55q36 0 58 15t22 40q-1 27 -22 40t-53 13q-34 0 -55.5 -17t-22.5 -50l-128 -1q0 83 55.5 131t148.5 48q89 1 147.5 -41.5
t58.5 -115.5q0 -67 -56 -105q68 -38 68 -114z" />
    <glyph glyph-name="four.sc" horiz-adv-x="523" 
d="M490 209v-106h-72v-103h-128v103h-269v99l236 320h161v-313h72zM148 210v-1h150v192h-1z" />
    <glyph glyph-name="five.sc" horiz-adv-x="493" 
d="M259 342q89 0 145.5 -45.5t57.5 -128.5q0 -81 -61 -127.5t-156 -46.5q-94 0 -154.5 45t-60.5 119l128 -1q0 -24 24 -37.5t61 -13.5q41 0 65.5 16.5t24.5 45.5q0 30 -24 47t-65 17q-47 0 -83 -24l-108 34l33 280h342v-106h-243l-10 -87q39 13 84 13z" />
    <glyph glyph-name="six.sc" horiz-adv-x="526" 
d="M296 330q85 1 140.5 -43t55.5 -117q0 -76 -57 -126t-155 -50q-113 0 -177.5 70.5t-64.5 192.5q0 129 64 200t177 71q88 0 143.5 -42t55.5 -110h-128q-1 41 -71 41q-106 0 -113 -134q50 47 130 47zM275 105q42 0 65.5 18t23.5 46t-23 46.5t-66 18.5t-70.5 -23t-22.5 -53
q24 -53 93 -53z" />
    <glyph glyph-name="seven.sc" horiz-adv-x="457" 
d="M83 0l215 415v1h-279v106h417v-105l-212 -417h-141z" />
    <glyph glyph-name="eight.sc" horiz-adv-x="516" 
d="M404 272q74 -41 74 -119q0 -75 -58.5 -117t-161.5 -42q-104 0 -162 42t-58 117q0 77 73 119q-56 39 -56 106q0 72 56 111t147 39t146.5 -39t55.5 -111q0 -67 -56 -106zM258 430q-40 0 -61.5 -16t-21.5 -42q0 -27 22 -42.5t62 -15.5t61 16t20 42q1 25 -21 41.5t-61 16.5z
M258 94q46 0 70.5 16.5t23.5 45.5q1 29 -24 46t-69 17q-45 0 -70 -16.5t-26 -46.5q2 -62 95 -62z" />
    <glyph glyph-name="nine.sc" horiz-adv-x="525" 
d="M245 528q113 0 177.5 -69.5t64.5 -192.5q0 -129 -64 -200.5t-177 -71.5q-89 0 -144 42.5t-55 110.5h128q1 -42 71 -42q106 0 113 135q-51 -48 -131 -48q-85 0 -140 44.5t-55 116.5q0 75 57 125t155 50zM250 289q42 0 70 23t23 52q-24 53 -93 53q-42 0 -65.5 -18
t-23.5 -46t23 -46.5t66 -17.5z" />
    <glyph glyph-name="exclam.case" horiz-adv-x="290" 
d="M143 537q-39 0 -62.5 23t-23.5 60t23.5 60t62.5 23q38 0 62 -23t24 -60q-1 -37 -24.5 -60t-61.5 -23zM218 0h-145l12 454h120z" />
    <glyph glyph-name="exclamdown.case" horiz-adv-x="290" 
d="M219 686l-13 -444h-120l-13 444h146zM143 159q39 0 62.5 -23t23.5 -60t-23.5 -60t-62.5 -23q-38 0 -62 23t-24 60t24 60t62 23z" />
    <glyph glyph-name="question.case" horiz-adv-x="483" 
d="M258 536q-38 0 -62 23.5t-24 59.5t24 59.5t63 23.5q38 0 61.5 -23.5t23.5 -59.5q0 -37 -24 -60t-62 -23zM324 204h133q0 -96 -58.5 -153t-157.5 -57q-97 0 -154 51t-58 136q0 37 17 68.5t40.5 53.5t47.5 42t41 43t17 46v19h129v-28q0 -33 -16 -62.5t-39.5 -51
t-46.5 -41.5t-39 -43.5t-16 -46.5q0 -32 19.5 -49t55.5 -17q40 0 62.5 23t22.5 67z" />
    <glyph glyph-name="questiondown.case" horiz-adv-x="483" 
d="M242 702q97 0 154 -51t58 -136q0 -43 -25.5 -81.5t-56 -62.5t-56 -54.5t-25.5 -59.5v-19h-129v29q0 33 16 63t39 53t46.5 44t39.5 44t16 45q0 67 -75 67q-40 0 -62.5 -23.5t-22.5 -67.5h-133q0 96 58 153t158 57zM224 156q39 -1 63 -24.5t24 -59.5t-24 -59.5t-63 -23.5
q-38 0 -62 23.5t-24 60.5q0 36 24 59t62 24z" />
    <glyph glyph-name="braceleft.case" horiz-adv-x="373" 
d="M31 391h10q26 0 44.5 17t18.5 52v70q0 83 51.5 130.5t145.5 47.5h33v-115h-28q-34 0 -53 -20t-19 -56v-86q0 -44 -15.5 -68t-34.5 -29q17 -5 33.5 -31.5t16.5 -66.5v-70q0 -36 19 -56t53 -20h28v-115h-33q-94 0 -145.5 47.5t-51.5 130.5v53q0 35 -18.5 52t-44.5 17h-10
v116z" />
    <glyph glyph-name="braceright.case" horiz-adv-x="373" 
d="M343 391v-116h-10q-26 0 -45 -17t-19 -52v-53q0 -83 -51.5 -130.5t-145.5 -47.5h-33v115h28q34 0 53 20t19 56v70q0 40 16.5 66.5t33.5 31.5q-19 5 -34.5 29t-15.5 68v86q0 36 -19 56t-53 20h-28v115h33q94 0 145.5 -47.5t51.5 -130.5v-70q0 -35 19 -52t45 -17h10z" />
    <glyph glyph-name="bracketleft.case" horiz-adv-x="380" 
d="M78 -25v733h267v-112h-139v-509h139v-112h-267z" />
    <glyph glyph-name="bracketright.case" horiz-adv-x="380" 
d="M302 -25h-267v112h139v509h-139v112h267v-733z" />
    <glyph glyph-name="parenleft.case" horiz-adv-x="319" 
d="M41 345q0 98 37.5 195.5t87.5 166.5h130q-118 -170 -118 -362q0 -198 118 -371h-130q-50 69 -87.5 170.5t-37.5 200.5z" />
    <glyph glyph-name="parenright.case" horiz-adv-x="319" 
d="M277 345q0 -99 -38 -201t-88 -170h-129q118 173 118 371q0 192 -118 362h129q51 -68 88.5 -166t37.5 -196z" />
    <glyph glyph-name="emdash.case" horiz-adv-x="824" 
d="M59 290v105h705v-105h-705z" />
    <glyph glyph-name="endash.case" horiz-adv-x="563" 
d="M59 290v105h445v-105h-445z" />
    <glyph glyph-name="hyphen.case" horiz-adv-x="463" 
d="M59 290v105h345v-105h-345z" />
    <glyph glyph-name="guillemotleft.case" horiz-adv-x="534" 
d="M31 326v11l122 159h129l-125 -164l126 -166h-130zM237 326v11l122 159h130l-126 -164l127 -166h-131z" />
    <glyph glyph-name="guillemotright.case" horiz-adv-x="534" 
d="M297 326l-122 -160h-131l127 166l-126 164h130l122 -159v-11zM504 326l-122 -160h-131l127 166l-126 164h130l122 -159v-11z" />
    <glyph glyph-name="guilsinglleft.case" horiz-adv-x="327" 
d="M31 326v11l122 159h129l-125 -164l126 -166h-130z" />
    <glyph glyph-name="guilsinglright.case" horiz-adv-x="327" 
d="M297 326l-122 -160h-131l127 166l-126 164h130l122 -159v-11z" />
    <glyph glyph-name="ampersand.sc" horiz-adv-x="543" 
d="M546 0h-125l-31 29q-61 -35 -146 -35q-97 0 -156 43.5t-59 114.5q0 46 21.5 78t70.5 59q-40 53 -40 101q0 62 46 101t120 39q70 0 113 -35t43 -93q0 -43 -26 -75t-92 -62l-10 -5l109 -104q18 33 18 82h105q0 -90 -50 -153zM246 439q-26 0 -41.5 -13t-16.5 -36
q0 -31 23 -61l22 9q65 26 63 61q1 19 -12.5 29.5t-37.5 10.5zM254 91q34 0 60 9l-126 118q-38 -22 -38 -60q0 -32 28 -49.5t76 -17.5z" />
    <glyph glyph-name="cent.sc" horiz-adv-x="539" 
d="M284 125q78 0 92 83h131q-8 -73 -50 -124t-119 -66v-101h-117v102q-83 19 -134 85t-51 158q0 94 50.5 160t134.5 85v101h117v-100q76 -15 119 -67t50 -125h-131q-14 84 -92 84q-49 0 -79 -36t-30 -102q0 -65 30 -101t79 -36z" />
    <glyph glyph-name="dollar.sc" horiz-adv-x="488" 
d="M464 147q0 -59 -44 -98t-119 -50v-82h-117v81q-78 11 -120 52t-42 108h122q2 -64 102 -64q46 0 71 14t25 39q0 29 -32 44t-77.5 23t-91 20t-77.5 46.5t-32 91.5q0 58 41 98.5t111 53.5v84h117v-83q73 -12 114 -54t40 -107h-122q0 65 -91 65q-88 0 -88 -54q0 -27 32 -41
t77.5 -21.5t91 -20.5t77.5 -49t32 -96z" />
    <glyph glyph-name="Euro.sc" horiz-adv-x="618" 
d="M356 101q77 0 106 59h125q-21 -75 -80 -120t-154 -45q-92 0 -156.5 46t-88.5 129h-84l13 72h60q-1 7 -1 20v17h-72l13 73h71q23 83 88 129.5t157 46.5q95 0 154.5 -45t79.5 -120h-126q-31 58 -106 58q-84 0 -117 -69h130l-13 -73h-135v-18q0 -13 1 -19h147l-13 -72h-117
q34 -69 118 -69z" />
    <glyph glyph-name="sterling.sc" horiz-adv-x="521" 
d="M289 422q-74 0 -75 -67q0 -28 6 -76h188v-73h-177q2 -18 2 -26q0 -40 -21 -74h271v-106h-447v103q40 0 57 16.5t17 56.5q0 10 -2 30h-70v73h59q-6 48 -6 76q1 79 55 126t145 47t144.5 -47t52.5 -125h-120q0 66 -79 66z" />
    <glyph glyph-name="yen.sc" horiz-adv-x="571" 
d="M554 528l-160 -259h79v-73h-123v-36h123v-72h-123v-88h-128v88h-125v72h125v36h-125v73h80l-160 259h135l133 -218l133 218h136z" />
    <glyph glyph-name="caroncomb.alt" 
d="M-159 260q22 0 40 19.5t18 48.5q-32 0 -51 19.5t-19 49.5q0 31 20 50t50 19q70 0 71 -95q-1 -75 -40.5 -121.5t-88.5 -45.5v56z" />
    <glyph glyph-name="uni0306.case.001" 
d="M-19 702q0 -64 -42.5 -106t-112.5 -42q-71 0 -114 42t-43 106h101q0 -27 14.5 -41.5t40.5 -14.5q54 0 54 56h102z" />
    <glyph glyph-name="uni0308.case" 
d="M-297 706q33 0 53 -19.5t20 -51.5t-20 -51.5t-53 -19.5t-53 19.5t-20 51.5t20 51.5t53 19.5zM-95 706q33 0 53 -19.5t20 -51.5t-20 -51.5t-53 -19.5t-53 19.5t-20 51.5t20 51.5t53 19.5z" />
    <glyph glyph-name="uni0307.case" 
d="M-116 721q39 0 62.5 -23t23.5 -60t-23.5 -60t-62.5 -23q-38 0 -62 23t-24 60t24 60t62 23z" />
    <glyph glyph-name="gravecomb.case" 
d="M-164 557l-101 137h179l48 -137h-126z" />
    <glyph glyph-name="acutecomb.case" 
d="M-133 557h-127l46 137h181z" />
    <glyph glyph-name="uni030B.case" 
d="M-312 557h-104l56 138h155zM-122 557h-104l55 138h156z" />
    <glyph glyph-name="uni0302.case" 
d="M-120 694l92 -137h-99l-65 65l-65 -65h-99l93 137h143z" />
    </font>
</defs>
</svg>
